{"glyphs":{"0":{"ha":810,"x_min":47,"x_max":790,"o":"m 483 963 q 228 865 325 963 q 89 626 131 768 q 47 339 47 483 q 126 69 47 164 q 354 -26 206 -26 q 609 72 511 -26 q 749 315 707 171 q 790 601 790 458 q 711 869 790 776 q 483 963 632 963 m 469 782 q 529 753 510 782 q 549 653 549 725 q 530 432 549 547 q 471 236 511 317 q 369 156 431 156 q 310 186 329 156 q 290 289 290 217 q 308 510 290 396 q 367 703 326 624 q 469 782 407 782 z "},"1":{"ha":642,"x_min":58,"x_max":624,"o":"m 624 942 l 492 0 l 254 0 l 353 692 l 140 571 l 58 746 l 406 942 l 624 942 z "},"2":{"ha":713,"x_min":-17,"x_max":706,"o":"m 401 963 q 567 929 499 963 q 671 839 636 896 q 706 711 706 782 q 676 574 706 640 q 556 412 647 507 q 285 186 464 317 l 653 188 l 601 0 l -17 0 l 6 175 q 299 438 208 350 q 422 578 390 526 q 453 685 453 629 q 427 751 453 726 q 357 775 401 775 q 272 753 311 775 q 182 681 232 731 l 51 804 q 210 922 125 882 q 401 963 296 963 z "},"3":{"ha":715,"x_min":-49,"x_max":700,"o":"m 410 963 q 624 899 549 963 q 700 738 700 836 q 649 593 700 658 q 485 496 599 528 q 617 439 565 488 q 668 303 668 390 q 626 152 668 228 q 492 25 583 76 q 263 -26 401 -26 q 78 13 156 -26 q -49 124 0 53 l 100 244 q 175 181 135 201 q 268 161 215 161 q 378 202 335 161 q 421 315 421 243 q 390 386 421 364 q 297 408 360 408 l 215 408 l 265 575 l 318 575 q 426 613 393 575 q 460 700 460 650 q 434 761 460 740 q 363 782 408 782 q 172 700 265 782 l 67 838 q 228 931 144 900 q 410 963 311 963 z "},"4":{"ha":783,"x_min":7,"x_max":761,"o":"m 761 378 l 735 194 l 636 194 l 608 0 l 371 0 l 397 194 l 7 194 l 29 357 l 365 968 l 568 892 l 294 378 l 424 378 l 482 592 l 692 592 l 661 378 l 761 378 z "},"5":{"ha":744,"x_min":-25,"x_max":740,"o":"m 689 767 l 363 767 l 338 593 q 475 624 400 624 q 640 556 578 624 q 703 363 703 488 q 659 185 703 275 q 520 35 615 96 q 281 -26 425 -26 q -25 121 86 -26 l 122 246 q 288 158 189 158 q 409 211 364 158 q 454 349 454 264 q 357 457 454 457 q 301 450 328 457 q 243 424 275 443 l 79 424 l 151 942 l 740 942 l 689 767 z "},"6":{"ha":783,"x_min":43,"x_max":754,"o":"m 522 639 q 692 571 629 639 q 754 382 754 503 q 715 200 754 294 q 588 40 675 106 q 367 -26 500 -26 q 124 65 204 -26 q 43 317 43 156 q 104 634 43 486 q 279 872 165 782 q 543 963 393 963 q 753 896 672 963 l 646 756 q 533 789 597 789 q 407 732 461 789 q 326 567 353 675 q 522 639 418 639 m 376 149 q 478 220 447 149 q 510 375 510 292 q 491 449 510 426 q 436 471 472 471 q 304 411 371 471 q 293 276 293 322 q 313 178 293 208 q 376 149 332 149 z "},"7":{"ha":644,"x_min":25,"x_max":707,"o":"m 707 942 l 685 776 l 239 -25 l 25 50 l 426 757 l 64 757 l 90 942 l 707 942 z "},"8":{"ha":804,"x_min":14,"x_max":788,"o":"m 608 503 q 758 283 758 419 q 709 128 758 199 q 567 15 660 57 q 347 -26 474 -26 q 167 8 242 -26 q 53 100 92 42 q 14 232 14 158 q 64 376 14 308 q 221 485 114 443 q 114 675 114 558 q 153 812 114 746 q 275 920 193 878 q 478 963 357 963 q 703 902 618 963 q 788 739 788 842 q 608 503 788 593 m 465 799 q 376 764 403 799 q 349 685 349 729 q 367 625 349 650 q 426 581 386 600 l 454 569 q 532 644 513 607 q 551 721 551 682 q 529 778 551 757 q 465 799 507 799 m 371 149 q 477 188 439 149 q 515 286 515 228 q 492 348 515 324 q 410 397 468 372 l 364 414 q 283 339 307 383 q 260 249 260 294 q 290 176 260 203 q 371 149 319 149 z "},"9":{"ha":778,"x_min":58,"x_max":782,"o":"m 456 963 q 697 880 611 963 q 782 660 782 797 q 628 217 782 414 q 89 -42 475 21 l 58 131 q 338 231 242 172 q 485 400 435 290 q 397 342 443 361 q 292 322 350 322 q 174 353 226 322 q 92 442 122 385 q 63 579 63 500 q 105 758 63 669 q 235 904 147 846 q 456 963 324 963 m 307 593 q 386 492 307 492 q 456 511 421 492 q 522 568 492 531 q 533 676 533 638 q 512 763 533 738 q 443 789 490 789 q 339 728 371 789 q 307 593 307 668 z "},"\r":{"ha":301,"x_min":0,"x_max":0,"o":""}," ":{"ha":301,"x_min":0,"x_max":0,"o":""},"A":{"ha":813,"x_min":-79,"x_max":786,"o":"m 519 0 l 504 197 l 253 197 l 185 0 l -79 0 l 336 965 l 642 965 l 786 0 l 519 0 m 315 381 l 492 381 l 460 799 l 315 381 z "},"Á":{"ha":813,"x_min":-79,"x_max":786,"o":"m 519 0 l 504 197 l 253 197 l 185 0 l -79 0 l 336 965 l 642 965 l 786 0 l 519 0 m 315 381 l 492 381 l 460 799 l 315 381 m 658 1338 l 735 1154 l 383 1033 l 331 1156 l 658 1338 z "},"Ă":{"ha":813,"x_min":-79,"x_max":786,"o":"m 519 0 l 504 197 l 253 197 l 185 0 l -79 0 l 336 965 l 642 965 l 786 0 l 519 0 m 315 381 l 492 381 l 460 799 l 315 381 m 503 1039 q 380 1073 429 1039 q 309 1163 331 1107 q 292 1283 288 1219 l 419 1303 q 450 1235 425 1261 q 518 1208 475 1208 q 595 1235 563 1208 q 646 1306 628 1263 l 778 1279 q 683 1109 756 1179 q 503 1039 611 1039 z "},"Ắ":{"ha":813,"x_min":-79,"x_max":786,"o":"m 786 1453 l 533 1253 l 451 1335 l 669 1582 l 786 1453 m 504 1022 q 381 1056 431 1022 q 310 1147 332 1090 q 293 1267 289 1203 l 421 1286 q 451 1218 426 1244 q 519 1192 476 1192 q 597 1219 564 1192 q 647 1289 629 1246 l 779 1263 q 685 1092 757 1163 q 504 1022 613 1022 m 336 965 l 642 965 l 786 0 l 519 0 l 504 197 l 253 197 l 185 0 l -79 0 l 336 965 m 315 381 l 492 381 l 460 799 l 315 381 z "},"Ặ":{"ha":813,"x_min":-79,"x_max":786,"o":"m 519 0 l 504 197 l 253 197 l 185 0 l -79 0 l 336 965 l 642 965 l 786 0 l 519 0 m 315 381 l 492 381 l 460 799 l 315 381 m 503 1039 q 380 1073 429 1039 q 309 1163 331 1107 q 292 1283 288 1219 l 419 1303 q 450 1235 425 1261 q 518 1208 475 1208 q 595 1235 563 1208 q 646 1306 628 1263 l 778 1279 q 683 1109 756 1179 q 503 1039 611 1039 m 336 -78 q 427 -111 393 -78 q 461 -197 461 -144 q 416 -306 461 -262 q 304 -350 371 -350 q 213 -317 247 -350 q 179 -231 179 -283 q 224 -122 179 -165 q 336 -78 269 -78 z "},"Ằ":{"ha":813,"x_min":-79,"x_max":786,"o":"m 619 1328 l 521 1253 l 324 1461 l 468 1579 l 619 1328 m 503 1022 q 380 1056 429 1022 q 309 1147 331 1090 q 292 1267 288 1203 l 419 1286 q 450 1218 425 1244 q 518 1192 475 1192 q 595 1219 563 1192 q 646 1289 628 1246 l 778 1263 q 683 1092 756 1163 q 503 1022 611 1022 m 519 0 l 504 197 l 253 197 l 185 0 l -79 0 l 336 965 l 642 965 l 786 0 l 519 0 m 315 381 l 492 381 l 460 799 l 315 381 z "},"Ẳ":{"ha":813,"x_min":-79,"x_max":786,"o":"m 519 0 l 504 197 l 253 197 l 185 0 l -79 0 l 336 965 l 642 965 l 786 0 l 519 0 m 315 381 l 492 381 l 460 799 l 315 381 m 504 1022 q 381 1056 431 1022 q 310 1147 332 1090 q 293 1267 289 1203 l 421 1286 q 451 1218 426 1244 q 519 1192 476 1192 q 597 1219 564 1192 q 647 1289 629 1246 l 779 1263 q 685 1092 757 1163 q 504 1022 613 1022 m 475 1396 q 582 1453 582 1400 q 533 1488 582 1488 q 450 1469 497 1488 l 424 1568 q 574 1604 492 1604 q 700 1566 657 1604 q 743 1467 743 1528 q 607 1325 743 1353 l 600 1269 l 461 1269 l 475 1396 z "},"Ẵ":{"ha":813,"x_min":-79,"x_max":824,"o":"m 475 1379 q 433 1366 451 1379 q 393 1322 415 1353 l 286 1379 q 376 1495 324 1450 q 488 1540 428 1540 q 538 1532 518 1540 q 586 1506 557 1524 q 635 1485 617 1485 q 676 1498 657 1485 q 715 1540 694 1511 l 824 1485 q 734 1368 786 1413 q 624 1324 682 1324 q 579 1332 599 1324 q 531 1357 560 1340 q 502 1372 517 1365 q 475 1379 488 1379 m 519 1192 q 597 1219 564 1192 q 647 1289 629 1246 l 779 1263 q 685 1092 757 1163 q 504 1022 613 1022 q 381 1056 431 1022 q 310 1147 332 1090 q 293 1267 289 1203 l 421 1286 q 451 1218 426 1244 q 519 1192 476 1192 m 336 965 l 642 965 l 786 0 l 519 0 l 504 197 l 253 197 l 185 0 l -79 0 l 336 965 m 315 381 l 492 381 l 460 799 l 315 381 z "},"Ǎ":{"ha":813,"x_min":-79,"x_max":793,"o":"m 519 0 l 504 197 l 253 197 l 185 0 l -79 0 l 336 965 l 642 965 l 786 0 l 519 0 m 315 381 l 492 381 l 460 799 l 315 381 m 718 1325 l 793 1228 l 574 1039 l 426 1039 l 256 1228 l 351 1325 l 518 1207 l 718 1325 z "},"Â":{"ha":813,"x_min":-79,"x_max":786,"o":"m 519 0 l 504 197 l 253 197 l 185 0 l -79 0 l 336 965 l 642 965 l 786 0 l 519 0 m 315 381 l 492 381 l 460 799 l 315 381 m 311 1046 l 235 1144 l 457 1333 l 604 1333 l 772 1144 l 679 1046 l 511 1165 l 311 1046 z "},"Ấ":{"ha":813,"x_min":-79,"x_max":989,"o":"m 989 1419 l 736 1219 l 654 1301 l 872 1549 l 989 1419 m 510 1122 l 310 1003 l 233 1101 l 456 1290 l 603 1290 l 771 1101 l 678 1003 l 510 1122 m 336 965 l 642 965 l 786 0 l 519 0 l 504 197 l 253 197 l 185 0 l -79 0 l 336 965 m 315 381 l 492 381 l 460 799 l 315 381 z "},"Ậ":{"ha":813,"x_min":-79,"x_max":786,"o":"m 519 0 l 504 197 l 253 197 l 185 0 l -79 0 l 336 965 l 642 965 l 786 0 l 519 0 m 315 381 l 492 381 l 460 799 l 315 381 m 311 1046 l 235 1144 l 457 1333 l 604 1333 l 772 1144 l 679 1046 l 511 1165 l 311 1046 m 336 -78 q 427 -111 393 -78 q 461 -197 461 -144 q 416 -306 461 -262 q 304 -350 371 -350 q 213 -317 247 -350 q 179 -231 179 -283 q 224 -122 179 -165 q 336 -78 269 -78 z "},"Ầ":{"ha":813,"x_min":-79,"x_max":786,"o":"m 388 1294 l 289 1219 l 92 1428 l 236 1546 l 388 1294 m 306 1003 l 229 1101 l 451 1290 l 599 1290 l 767 1101 l 674 1003 l 506 1122 l 306 1003 m 519 0 l 504 197 l 253 197 l 185 0 l -79 0 l 336 965 l 642 965 l 786 0 l 519 0 m 315 381 l 492 381 l 460 799 l 315 381 z "},"Ẩ":{"ha":813,"x_min":-79,"x_max":960,"o":"m 519 0 l 504 197 l 253 197 l 185 0 l -79 0 l 336 965 l 642 965 l 786 0 l 519 0 m 315 381 l 492 381 l 460 799 l 315 381 m 304 1003 l 228 1101 l 450 1290 l 597 1290 l 765 1101 l 672 1003 l 504 1122 l 304 1003 m 692 1331 q 799 1388 799 1335 q 750 1422 799 1422 q 667 1404 714 1422 l 640 1503 q 790 1539 708 1539 q 917 1501 874 1539 q 960 1401 960 1463 q 824 1260 960 1288 l 817 1204 l 678 1204 l 692 1331 z "},"Ẫ":{"ha":813,"x_min":-79,"x_max":813,"o":"m 464 1382 q 422 1369 440 1382 q 382 1325 404 1356 l 275 1382 q 365 1498 313 1453 q 476 1543 417 1543 q 526 1535 507 1543 q 575 1508 546 1526 q 624 1488 607 1488 q 665 1501 646 1488 q 704 1543 683 1514 l 813 1488 q 723 1371 775 1415 q 613 1326 671 1326 q 568 1335 588 1326 q 519 1360 549 1343 q 491 1375 506 1368 q 464 1382 476 1382 m 503 1122 l 303 1003 l 226 1101 l 449 1290 l 596 1290 l 764 1101 l 671 1003 l 503 1122 m 336 965 l 642 965 l 786 0 l 519 0 l 504 197 l 253 197 l 185 0 l -79 0 l 336 965 m 315 381 l 492 381 l 460 799 l 315 381 z "},"Ȁ":{"ha":813,"x_min":-79,"x_max":786,"o":"m 519 0 l 504 197 l 253 197 l 185 0 l -79 0 l 336 965 l 642 965 l 786 0 l 519 0 m 315 381 l 492 381 l 460 799 l 315 381 m 363 1382 l 461 1099 l 331 1040 l 194 1301 l 363 1382 m 611 1382 l 697 1096 l 568 1046 l 443 1307 l 611 1382 z "},"Ä":{"ha":813,"x_min":-79,"x_max":801,"o":"m 519 0 l 504 197 l 253 197 l 185 0 l -79 0 l 336 965 l 642 965 l 786 0 l 519 0 m 315 381 l 492 381 l 460 799 l 315 381 m 339 1061 q 259 1090 289 1061 q 229 1165 229 1119 q 269 1260 229 1222 q 367 1299 308 1299 q 447 1269 417 1299 q 476 1193 476 1239 q 437 1099 476 1136 q 339 1061 397 1061 m 664 1061 q 584 1090 614 1061 q 554 1165 554 1119 q 594 1260 554 1222 q 692 1299 633 1299 q 772 1269 742 1299 q 801 1193 801 1239 q 762 1099 801 1136 q 664 1061 722 1061 z "},"Ǟ":{"ha":813,"x_min":-79,"x_max":796,"o":"m 519 0 l 504 197 l 253 197 l 185 0 l -79 0 l 336 965 l 642 965 l 786 0 l 519 0 m 315 381 l 492 381 l 460 799 l 315 381 m 333 1036 q 253 1065 283 1036 q 224 1140 224 1094 q 263 1235 224 1197 q 361 1274 303 1274 q 441 1244 411 1274 q 471 1168 471 1214 q 431 1074 471 1111 q 333 1036 392 1036 m 658 1036 q 578 1065 608 1036 q 549 1140 549 1094 q 588 1235 549 1197 q 686 1274 628 1274 q 766 1244 736 1274 q 796 1168 796 1214 q 756 1074 796 1111 q 658 1036 717 1036 m 744 1322 l 314 1322 l 338 1492 l 768 1492 l 744 1322 z "},"Ȧ":{"ha":813,"x_min":-79,"x_max":786,"o":"m 519 0 l 504 197 l 253 197 l 185 0 l -79 0 l 336 965 l 642 965 l 786 0 l 519 0 m 315 381 l 492 381 l 460 799 l 315 381 m 507 1042 q 416 1075 450 1042 q 382 1161 382 1108 q 427 1270 382 1226 q 539 1314 472 1314 q 630 1281 596 1314 q 664 1194 664 1247 q 619 1085 664 1129 q 507 1042 574 1042 z "},"Ạ":{"ha":813,"x_min":-79,"x_max":786,"o":"m 519 0 l 504 197 l 253 197 l 185 0 l -79 0 l 336 965 l 642 965 l 786 0 l 519 0 m 315 381 l 492 381 l 460 799 l 315 381 m 336 -78 q 427 -111 393 -78 q 461 -197 461 -144 q 416 -306 461 -262 q 304 -350 371 -350 q 213 -317 247 -350 q 179 -231 179 -283 q 224 -122 179 -165 q 336 -78 269 -78 z "},"Ǡ":{"ha":813,"x_min":-79,"x_max":786,"o":"m 519 0 l 504 197 l 253 197 l 185 0 l -79 0 l 336 965 l 642 965 l 786 0 l 519 0 m 315 381 l 492 381 l 460 799 l 315 381 m 496 1019 q 405 1053 439 1019 q 371 1139 371 1086 q 416 1248 371 1204 q 528 1292 461 1292 q 619 1258 585 1292 q 653 1172 653 1225 q 608 1063 653 1107 q 496 1019 563 1019 m 756 1324 l 325 1324 l 349 1493 l 779 1493 l 756 1324 z "},"À":{"ha":813,"x_min":-79,"x_max":786,"o":"m 519 0 l 504 197 l 253 197 l 185 0 l -79 0 l 336 965 l 642 965 l 786 0 l 519 0 m 315 381 l 492 381 l 460 799 l 315 381 m 435 1336 l 718 1156 l 656 1036 l 333 1153 l 435 1336 z "},"Ả":{"ha":813,"x_min":-79,"x_max":786,"o":"m 519 0 l 504 197 l 253 197 l 185 0 l -79 0 l 336 965 l 642 965 l 786 0 l 519 0 m 315 381 l 492 381 l 460 799 l 315 381 m 447 1188 q 554 1244 554 1192 q 506 1279 554 1279 q 422 1261 469 1279 l 396 1360 q 546 1396 464 1396 q 672 1358 629 1396 q 715 1258 715 1319 q 579 1117 715 1144 l 572 1061 l 433 1061 l 447 1188 z "},"Ȃ":{"ha":813,"x_min":-79,"x_max":786,"o":"m 519 0 l 504 197 l 253 197 l 185 0 l -79 0 l 336 965 l 642 965 l 786 0 l 519 0 m 315 381 l 492 381 l 460 799 l 315 381 m 258 1079 q 356 1261 282 1189 q 540 1333 429 1333 q 706 1260 651 1333 q 754 1076 761 1186 l 619 1057 q 591 1135 615 1107 q 522 1164 567 1164 q 388 1054 432 1164 l 258 1079 z "},"Ɑ":{"ha":936,"x_min":43,"x_max":940,"o":"m 838 225 q 835 190 835 197 q 842 159 835 171 q 871 138 850 147 l 800 -21 q 607 90 660 -11 q 501 3 560 33 q 364 -26 442 -26 q 128 76 213 -26 q 43 360 43 179 q 99 669 43 524 q 258 902 156 814 q 496 990 361 990 q 614 963 565 990 q 700 888 663 936 l 726 965 l 940 965 l 838 225 m 303 353 q 336 199 303 244 q 436 154 369 154 q 582 215 519 154 l 656 740 q 533 806 613 806 q 406 738 458 806 q 328 567 354 671 q 303 353 303 463 z "},"Ā":{"ha":813,"x_min":-79,"x_max":786,"o":"m 519 0 l 504 197 l 253 197 l 185 0 l -79 0 l 336 965 l 642 965 l 786 0 l 519 0 m 315 381 l 492 381 l 460 799 l 315 381 m 721 1081 l 290 1081 l 314 1250 l 744 1250 l 721 1081 z "},"Ą":{"ha":813,"x_min":-79,"x_max":786,"o":"m 668 0 q 524 -76 563 -36 q 486 -153 486 -117 q 546 -199 486 -199 q 633 -187 582 -199 l 600 -336 q 501 -347 551 -347 q 363 -307 417 -347 q 310 -197 310 -267 q 517 39 310 -47 l 504 197 l 253 197 l 185 0 l -79 0 l 336 965 l 642 965 l 786 0 l 668 0 m 315 381 l 492 381 l 460 799 l 315 381 z "},"Å":{"ha":813,"x_min":-79,"x_max":786,"o":"m 519 0 l 504 197 l 253 197 l 185 0 l -79 0 l 336 965 l 642 965 l 786 0 l 519 0 m 315 381 l 492 381 l 460 799 l 315 381 m 547 1393 q 678 1344 632 1393 q 725 1218 725 1296 q 697 1115 725 1164 q 617 1037 669 1067 q 499 1007 565 1007 q 369 1056 417 1007 q 322 1181 322 1104 q 351 1283 322 1235 q 431 1363 379 1332 q 547 1393 482 1393 m 536 1269 q 481 1244 501 1269 q 461 1186 461 1218 q 474 1146 461 1160 q 511 1132 488 1132 q 566 1156 546 1132 q 586 1213 586 1181 q 573 1255 586 1240 q 536 1269 560 1269 z "},"Ǻ":{"ha":813,"x_min":-79,"x_max":786,"o":"m 519 0 l 504 197 l 253 197 l 185 0 l -79 0 l 336 965 l 642 965 l 786 0 l 519 0 m 315 381 l 492 381 l 460 799 l 315 381 m 538 1393 q 669 1344 622 1393 q 715 1218 715 1296 q 688 1115 715 1164 q 608 1037 660 1067 q 489 1007 556 1007 q 360 1056 407 1007 q 313 1181 313 1104 q 341 1283 313 1235 q 421 1363 369 1332 q 538 1393 472 1393 m 526 1269 q 472 1244 492 1269 q 451 1186 451 1218 q 465 1146 451 1160 q 501 1132 478 1132 q 556 1156 536 1132 q 576 1213 576 1181 q 563 1255 576 1240 q 526 1269 550 1269 m 664 1693 l 740 1510 l 389 1389 l 336 1511 l 664 1693 z "},"Ⱥ":{"ha":813,"x_min":-79,"x_max":786,"o":"m 547 0 l 528 197 l 375 197 l 253 -106 l 167 -85 l 282 197 l 233 197 l 161 0 l -79 0 l 336 965 l 594 965 l 629 1051 l 713 1032 l 654 886 l 786 0 l 547 0 m 297 368 l 351 368 l 478 681 l 464 822 l 297 368 m 444 368 l 510 368 l 497 499 l 444 368 z "},"Ã":{"ha":813,"x_min":-79,"x_max":792,"o":"m 519 0 l 504 197 l 253 197 l 185 0 l -79 0 l 336 965 l 642 965 l 786 0 l 519 0 m 315 381 l 492 381 l 460 799 l 315 381 m 588 1047 q 541 1057 563 1047 q 494 1083 519 1067 q 463 1102 475 1096 q 438 1108 450 1108 q 394 1094 413 1108 q 354 1046 376 1079 l 244 1108 q 337 1234 283 1185 q 450 1283 390 1283 q 501 1274 481 1283 q 550 1246 522 1264 q 576 1228 565 1233 q 600 1222 588 1222 q 641 1237 622 1222 q 682 1283 660 1251 l 792 1222 q 699 1096 753 1144 q 588 1047 646 1047 z "},"Æ":{"ha":1167,"x_min":-85,"x_max":1165,"o":"m 1115 783 l 761 783 l 771 576 l 1099 576 l 1075 399 l 779 399 l 789 182 l 1106 182 l 1081 0 l 563 0 l 557 197 l 279 197 l 189 0 l -85 0 l 407 965 l 1165 965 l 1115 783 m 363 381 l 553 381 l 543 779 l 363 381 z "},"Ǽ":{"ha":1167,"x_min":-85,"x_max":1165,"o":"m 1115 783 l 761 783 l 771 576 l 1099 576 l 1075 399 l 779 399 l 789 182 l 1106 182 l 1081 0 l 563 0 l 557 197 l 279 197 l 189 0 l -85 0 l 407 965 l 1165 965 l 1115 783 m 363 381 l 553 381 l 543 779 l 363 381 m 918 1338 l 994 1154 l 643 1033 l 590 1156 l 918 1338 z "},"Ǣ":{"ha":1167,"x_min":-85,"x_max":1165,"o":"m 1115 783 l 761 783 l 771 576 l 1099 576 l 1075 399 l 779 399 l 789 182 l 1106 182 l 1081 0 l 563 0 l 557 197 l 279 197 l 189 0 l -85 0 l 407 965 l 1165 965 l 1115 783 m 363 381 l 553 381 l 543 779 l 363 381 m 981 1081 l 550 1081 l 574 1250 l 1004 1250 l 981 1081 z "},"B":{"ha":846,"x_min":22,"x_max":829,"o":"m 618 510 q 756 447 704 493 q 808 307 808 401 q 699 84 808 168 q 343 0 590 0 l 22 0 l 157 965 l 444 965 q 730 913 631 965 q 829 743 829 861 q 769 589 829 646 q 618 510 710 532 m 421 585 q 535 621 501 585 q 568 713 568 657 q 539 769 568 751 q 447 786 510 786 l 383 786 l 356 585 l 421 585 m 367 183 q 510 221 471 183 q 549 328 549 258 q 418 419 549 419 l 333 419 l 300 183 l 367 183 z "},"Ḃ":{"ha":846,"x_min":22,"x_max":829,"o":"m 618 510 q 756 447 704 493 q 808 307 808 401 q 699 84 808 168 q 343 0 590 0 l 22 0 l 157 965 l 444 965 q 730 913 631 965 q 829 743 829 861 q 769 589 829 646 q 618 510 710 532 m 421 585 q 535 621 501 585 q 568 713 568 657 q 539 769 568 751 q 447 786 510 786 l 383 786 l 356 585 l 421 585 m 367 183 q 510 221 471 183 q 549 328 549 258 q 418 419 549 419 l 333 419 l 300 183 l 367 183 m 488 1042 q 397 1075 431 1042 q 363 1161 363 1108 q 408 1270 363 1226 q 519 1314 453 1314 q 610 1281 576 1314 q 644 1194 644 1247 q 599 1085 644 1129 q 488 1042 554 1042 z "},"Ḅ":{"ha":846,"x_min":22,"x_max":829,"o":"m 618 510 q 756 447 704 493 q 808 307 808 401 q 699 84 808 168 q 343 0 590 0 l 22 0 l 157 965 l 444 965 q 730 913 631 965 q 829 743 829 861 q 769 589 829 646 q 618 510 710 532 m 421 585 q 535 621 501 585 q 568 713 568 657 q 539 769 568 751 q 447 786 510 786 l 383 786 l 356 585 l 421 585 m 367 183 q 510 221 471 183 q 549 328 549 258 q 418 419 549 419 l 333 419 l 300 183 l 367 183 m 347 -78 q 438 -111 404 -78 q 472 -197 472 -144 q 427 -306 472 -262 q 315 -350 382 -350 q 224 -317 258 -350 q 190 -231 190 -283 q 235 -122 190 -165 q 347 -78 281 -78 z "},"Ꞵ":{"ha":843,"x_min":-19,"x_max":829,"o":"m 621 510 q 808 321 808 471 q 756 145 808 218 q 613 36 703 72 q 411 0 524 0 q 276 14 346 0 l 233 -296 l -19 -296 l 157 965 l 444 965 q 730 913 631 965 q 829 743 829 861 q 769 590 829 646 q 621 510 710 533 m 399 419 l 436 585 l 444 585 q 533 617 500 585 q 567 704 567 649 q 538 767 567 749 q 447 786 510 786 l 385 786 l 301 190 q 386 183 347 183 q 506 220 463 183 q 550 331 550 257 q 439 419 550 419 l 399 419 z "},"Ɓ":{"ha":1064,"x_min":54,"x_max":1049,"o":"m 838 510 q 976 447 924 493 q 1028 307 1028 401 q 919 84 1028 168 q 563 0 810 0 l 242 0 l 351 783 l 315 783 q 264 765 282 783 q 246 710 246 746 q 250 667 246 688 q 256 640 254 646 l 89 576 q 54 715 54 649 q 131 898 54 831 q 333 965 207 965 l 664 965 q 949 913 850 965 q 1049 743 1049 861 q 989 589 1049 646 q 838 510 929 532 m 640 585 q 754 621 721 585 q 788 713 788 657 q 758 769 788 751 q 667 786 729 786 l 603 786 l 575 585 l 640 585 m 586 183 q 729 221 690 183 q 768 328 768 258 q 638 419 768 419 l 553 419 l 519 183 l 586 183 z "},"Ƀ":{"ha":860,"x_min":-7,"x_max":843,"o":"m 632 510 q 770 447 718 493 q 822 307 822 401 q 713 84 822 168 q 357 0 604 0 l 36 0 l 71 247 l -7 247 l 10 363 l 86 363 l 171 965 l 458 965 q 744 913 644 965 q 843 743 843 861 q 783 589 843 646 q 632 510 724 532 m 435 585 q 549 621 515 585 q 582 713 582 657 q 553 769 582 751 q 461 786 524 786 l 397 786 l 369 585 l 435 585 m 381 183 q 524 221 485 183 q 563 328 563 258 q 432 419 563 419 l 347 419 l 339 363 l 481 363 l 464 247 l 322 247 l 314 183 l 381 183 z "},"Ƃ":{"ha":821,"x_min":22,"x_max":801,"o":"m 456 626 q 713 561 624 626 q 801 367 801 496 q 759 194 801 278 q 622 55 717 110 q 379 0 528 0 l 22 0 l 157 965 l 772 965 l 721 772 l 383 772 l 363 626 l 456 626 m 375 183 q 494 230 454 183 q 535 350 535 276 q 410 451 535 451 l 339 451 l 301 183 l 375 183 z "},"C":{"ha":789,"x_min":44,"x_max":843,"o":"m 549 990 q 843 871 736 990 l 708 740 q 635 787 672 771 q 551 803 597 803 q 409 733 464 803 q 330 566 354 664 q 306 376 306 468 q 346 222 306 272 q 461 171 386 171 q 555 192 511 171 q 651 251 599 213 l 747 103 q 601 10 685 46 q 419 -26 518 -26 q 222 20 307 -26 q 91 157 138 67 q 44 375 44 247 q 97 663 44 522 q 262 897 149 804 q 549 990 375 990 z "},"Ć":{"ha":789,"x_min":44,"x_max":843,"o":"m 549 990 q 843 871 736 990 l 708 740 q 635 787 672 771 q 551 803 597 803 q 409 733 464 803 q 330 566 354 664 q 306 376 306 468 q 346 222 306 272 q 461 171 386 171 q 555 192 511 171 q 651 251 599 213 l 747 103 q 601 10 685 46 q 419 -26 518 -26 q 222 20 307 -26 q 91 157 138 67 q 44 375 44 247 q 97 663 44 522 q 262 897 149 804 q 549 990 375 990 m 738 1338 l 814 1154 l 463 1033 l 410 1156 l 738 1338 z "},"Č":{"ha":789,"x_min":44,"x_max":872,"o":"m 549 990 q 843 871 736 990 l 708 740 q 635 787 672 771 q 551 803 597 803 q 409 733 464 803 q 330 566 354 664 q 306 376 306 468 q 346 222 306 272 q 461 171 386 171 q 555 192 511 171 q 651 251 599 213 l 747 103 q 601 10 685 46 q 419 -26 518 -26 q 222 20 307 -26 q 91 157 138 67 q 44 375 44 247 q 97 663 44 522 q 262 897 149 804 q 549 990 375 990 m 797 1325 l 872 1228 l 653 1039 l 506 1039 l 335 1228 l 431 1325 l 597 1207 l 797 1325 z "},"Ç":{"ha":789,"x_min":44,"x_max":843,"o":"m 747 103 q 479 -22 631 -4 l 472 -62 q 569 -105 536 -71 q 603 -193 603 -139 q 579 -276 603 -235 q 503 -346 556 -318 q 368 -374 450 -374 q 210 -326 275 -374 l 278 -219 q 361 -242 318 -242 q 431 -200 431 -242 q 403 -169 431 -178 q 310 -161 375 -161 l 344 -21 q 124 103 204 1 q 44 375 44 206 q 97 663 44 522 q 262 897 149 804 q 549 990 375 990 q 843 871 736 990 l 708 740 q 635 787 672 771 q 551 803 597 803 q 409 733 464 803 q 330 566 354 664 q 306 376 306 468 q 346 222 306 272 q 461 171 386 171 q 555 192 511 171 q 651 251 599 213 l 747 103 z "},"Ĉ":{"ha":789,"x_min":44,"x_max":851,"o":"m 549 990 q 843 871 736 990 l 708 740 q 635 787 672 771 q 551 803 597 803 q 409 733 464 803 q 330 566 354 664 q 306 376 306 468 q 346 222 306 272 q 461 171 386 171 q 555 192 511 171 q 651 251 599 213 l 747 103 q 601 10 685 46 q 419 -26 518 -26 q 222 20 307 -26 q 91 157 138 67 q 44 375 44 247 q 97 663 44 522 q 262 897 149 804 q 549 990 375 990 m 390 1046 l 314 1144 l 536 1333 l 683 1333 l 851 1144 l 758 1046 l 590 1165 l 390 1046 z "},"Ċ":{"ha":789,"x_min":44,"x_max":843,"o":"m 549 990 q 843 871 736 990 l 708 740 q 635 787 672 771 q 551 803 597 803 q 409 733 464 803 q 330 566 354 664 q 306 376 306 468 q 346 222 306 272 q 461 171 386 171 q 555 192 511 171 q 651 251 599 213 l 747 103 q 601 10 685 46 q 419 -26 518 -26 q 222 20 307 -26 q 91 157 138 67 q 44 375 44 247 q 97 663 44 522 q 262 897 149 804 q 549 990 375 990 m 586 1042 q 495 1075 529 1042 q 461 1161 461 1108 q 506 1270 461 1226 q 618 1314 551 1314 q 709 1281 675 1314 q 743 1194 743 1247 q 698 1085 743 1129 q 586 1042 653 1042 z "},"Ꭓ":{"ha":796,"x_min":-96,"x_max":868,"o":"m 868 965 l 544 397 l 721 -237 l 453 -237 l 372 225 l 179 -237 l -96 -237 l 244 394 l 93 965 l 361 965 l 418 554 l 597 965 l 868 965 z "},"Ƈ":{"ha":804,"x_min":43,"x_max":1099,"o":"m 913 1190 q 1099 1138 1019 1190 l 1013 988 q 970 1006 989 1000 q 929 1011 951 1011 q 849 929 861 1011 l 842 871 l 729 753 q 554 803 642 803 q 409 733 465 803 q 329 566 353 664 q 306 376 306 468 q 346 222 306 272 q 461 171 386 171 q 553 192 510 171 q 651 253 597 213 l 747 103 q 601 10 683 46 q 426 -26 518 -26 q 144 78 246 -26 q 43 375 43 182 q 99 659 43 517 q 263 896 154 801 q 522 990 371 990 q 644 968 592 990 q 730 1133 663 1075 q 913 1190 797 1190 z "},"Ȼ":{"ha":789,"x_min":44,"x_max":843,"o":"m 461 171 q 555 192 511 171 q 651 251 599 213 l 747 103 q 601 10 685 46 q 419 -26 518 -26 q 329 -18 371 -26 l 293 -106 l 207 -85 l 244 8 q 97 145 150 51 q 44 375 44 239 q 97 663 44 522 q 262 897 149 804 q 549 990 375 990 q 642 982 599 990 l 669 1051 l 753 1032 l 722 957 q 843 871 792 928 l 708 740 q 651 779 678 765 l 408 178 q 461 171 433 171 m 306 376 q 338 235 306 286 l 568 803 l 551 803 q 409 733 464 803 q 330 566 354 664 q 306 376 306 468 z "},"D":{"ha":893,"x_min":22,"x_max":881,"o":"m 439 965 q 760 885 639 965 q 881 599 881 804 q 751 167 881 333 q 326 0 621 0 l 22 0 l 157 965 l 439 965 m 385 781 l 301 183 l 364 183 q 563 308 506 183 q 621 597 621 432 q 578 741 621 701 q 451 781 536 781 l 385 781 z "},"Ǳ":{"ha":1608,"x_min":22,"x_max":1654,"o":"m 439 965 q 760 885 639 965 q 881 599 881 804 q 751 167 881 333 q 326 0 621 0 l 22 0 l 157 965 l 439 965 m 385 781 l 301 183 l 364 183 q 563 308 506 183 q 621 597 621 432 q 578 741 621 701 q 451 781 536 781 l 385 781 m 825 0 l 850 190 l 1335 768 l 974 768 l 1000 965 l 1654 965 l 1628 772 l 1150 203 l 1557 203 l 1504 0 l 825 0 z "},"Ǆ":{"ha":1608,"x_min":22,"x_max":1654,"o":"m 439 965 q 760 885 639 965 q 881 599 881 804 q 751 167 881 333 q 326 0 621 0 l 22 0 l 157 965 l 439 965 m 385 781 l 301 183 l 364 183 q 563 308 506 183 q 621 597 621 432 q 578 741 621 701 q 451 781 536 781 l 385 781 m 825 0 l 850 190 l 1335 768 l 974 768 l 1000 965 l 1654 965 l 1628 772 l 1150 203 l 1557 203 l 1504 0 l 825 0 m 1549 1325 l 1624 1228 l 1404 1039 l 1257 1039 l 1086 1228 l 1182 1325 l 1349 1207 l 1549 1325 z "},"Ɖ":{"ha":906,"x_min":17,"x_max":893,"o":"m 451 965 q 772 885 651 965 q 893 599 893 804 q 763 167 893 333 q 339 0 633 0 l 35 0 l 93 415 l 17 415 l 38 565 l 114 565 l 169 965 l 451 965 m 376 183 q 576 308 518 183 q 633 597 633 432 q 591 741 633 701 q 464 781 549 781 l 397 781 l 367 565 l 540 565 l 521 415 l 346 415 l 314 183 l 376 183 z "},"Ð":{"ha":906,"x_min":17,"x_max":893,"o":"m 451 965 q 772 885 651 965 q 893 599 893 804 q 763 167 893 333 q 339 0 633 0 l 35 0 l 93 415 l 17 415 l 38 565 l 114 565 l 169 965 l 451 965 m 376 183 q 576 308 518 183 q 633 597 633 432 q 591 741 633 701 q 464 781 549 781 l 397 781 l 367 565 l 540 565 l 521 415 l 346 415 l 314 183 l 376 183 z "},"Ď":{"ha":893,"x_min":22,"x_max":881,"o":"m 439 965 q 760 885 639 965 q 881 599 881 804 q 751 167 881 333 q 326 0 621 0 l 22 0 l 157 965 l 439 965 m 385 781 l 301 183 l 364 183 q 563 308 506 183 q 621 597 621 432 q 578 741 621 701 q 451 781 536 781 l 385 781 m 714 1325 l 789 1228 l 569 1039 l 422 1039 l 251 1228 l 347 1325 l 514 1207 l 714 1325 z "},"Ḓ":{"ha":893,"x_min":22,"x_max":881,"o":"m 439 965 q 760 885 639 965 q 881 599 881 804 q 751 167 881 333 q 326 0 621 0 l 22 0 l 157 965 l 439 965 m 385 781 l 301 183 l 364 183 q 563 308 506 183 q 621 597 621 432 q 578 741 621 701 q 451 781 536 781 l 385 781 m 111 -385 l 36 -285 l 258 -85 l 406 -85 l 574 -285 l 476 -385 l 313 -254 l 111 -385 z "},"Đ":{"ha":906,"x_min":17,"x_max":893,"o":"m 451 965 q 772 885 651 965 q 893 599 893 804 q 763 167 893 333 q 339 0 633 0 l 35 0 l 93 415 l 17 415 l 38 565 l 114 565 l 169 965 l 451 965 m 376 183 q 576 308 518 183 q 633 597 633 432 q 591 741 633 701 q 464 781 549 781 l 397 781 l 367 565 l 540 565 l 521 415 l 346 415 l 314 183 l 376 183 z "},"Ḋ":{"ha":893,"x_min":22,"x_max":881,"o":"m 439 965 q 760 885 639 965 q 881 599 881 804 q 751 167 881 333 q 326 0 621 0 l 22 0 l 157 965 l 439 965 m 385 781 l 301 183 l 364 183 q 563 308 506 183 q 621 597 621 432 q 578 741 621 701 q 451 781 536 781 l 385 781 m 503 1042 q 412 1075 446 1042 q 378 1161 378 1108 q 423 1270 378 1226 q 535 1314 468 1314 q 626 1281 592 1314 q 660 1194 660 1247 q 615 1085 660 1129 q 503 1042 569 1042 z "},"Ḍ":{"ha":893,"x_min":22,"x_max":881,"o":"m 439 965 q 760 885 639 965 q 881 599 881 804 q 751 167 881 333 q 326 0 621 0 l 22 0 l 157 965 l 439 965 m 385 781 l 301 183 l 364 183 q 563 308 506 183 q 621 597 621 432 q 578 741 621 701 q 451 781 536 781 l 385 781 m 335 -78 q 426 -111 392 -78 q 460 -197 460 -144 q 415 -306 460 -262 q 303 -350 369 -350 q 212 -317 246 -350 q 178 -231 178 -283 q 223 -122 178 -165 q 335 -78 268 -78 z "},"Ɗ":{"ha":1113,"x_min":54,"x_max":1100,"o":"m 658 965 q 979 885 858 965 q 1100 599 1100 804 q 970 167 1100 333 q 546 0 840 0 l 242 0 l 351 783 l 315 783 q 264 765 282 783 q 246 710 246 746 q 250 667 246 688 q 256 640 254 646 l 89 576 q 54 715 54 649 q 131 898 54 831 q 333 965 207 965 l 658 965 m 583 183 q 783 308 725 183 q 840 597 840 432 q 798 741 840 701 q 671 781 756 781 l 604 781 l 521 183 l 583 183 z "},"Ḏ":{"ha":893,"x_min":22,"x_max":881,"o":"m 439 965 q 760 885 639 965 q 881 599 881 804 q 751 167 881 333 q 326 0 621 0 l 22 0 l 157 965 l 439 965 m 385 781 l 301 183 l 364 183 q 563 308 506 183 q 621 597 621 432 q 578 741 621 701 q 451 781 536 781 l 385 781 m 131 -104 l 561 -104 l 538 -274 l 107 -274 l 131 -104 z "},"Ƌ":{"ha":825,"x_min":8,"x_max":833,"o":"m 699 0 l 339 0 q 98 72 188 0 q 8 286 8 144 q 124 538 8 450 q 438 626 240 626 l 533 626 l 553 772 l 201 772 l 229 965 l 833 965 l 699 0 m 471 183 l 508 451 l 440 451 q 317 408 358 451 q 275 296 275 364 q 304 210 275 236 q 396 183 333 183 l 471 183 z "},"ǲ":{"ha":1511,"x_min":22,"x_max":1538,"o":"m 439 965 q 760 885 639 965 q 881 599 881 804 q 751 167 881 333 q 326 0 621 0 l 22 0 l 157 965 l 439 965 m 385 781 l 301 183 l 364 183 q 563 308 506 183 q 621 597 621 432 q 578 741 621 701 q 451 781 536 781 l 385 781 m 1538 740 l 1514 567 l 1167 185 l 1468 185 l 1421 0 l 838 0 l 860 174 l 1211 557 l 943 557 l 968 740 l 1538 740 z "},"ǅ":{"ha":1511,"x_min":22,"x_max":1563,"o":"m 439 965 q 760 885 639 965 q 881 599 881 804 q 751 167 881 333 q 326 0 621 0 l 22 0 l 157 965 l 439 965 m 385 781 l 301 183 l 364 183 q 563 308 506 183 q 621 597 621 432 q 578 741 621 701 q 451 781 536 781 l 385 781 m 1538 740 l 1514 567 l 1167 185 l 1468 185 l 1421 0 l 838 0 l 860 174 l 1211 557 l 943 557 l 968 740 l 1538 740 m 1485 1142 l 1563 1043 l 1340 843 l 1193 843 l 1025 1043 l 1117 1142 l 1282 1011 l 1485 1142 z "},"E":{"ha":714,"x_min":22,"x_max":761,"o":"m 761 965 l 708 783 l 385 783 l 356 579 l 639 579 l 615 401 l 332 401 l 301 182 l 647 182 l 622 0 l 22 0 l 157 965 l 761 965 z "},"É":{"ha":714,"x_min":22,"x_max":761,"o":"m 761 965 l 708 783 l 385 783 l 356 579 l 639 579 l 615 401 l 332 401 l 301 182 l 647 182 l 622 0 l 22 0 l 157 965 l 761 965 m 631 1338 l 707 1154 l 356 1033 l 303 1156 l 631 1338 z "},"Ĕ":{"ha":714,"x_min":22,"x_max":761,"o":"m 761 965 l 708 783 l 385 783 l 356 579 l 639 579 l 615 401 l 332 401 l 301 182 l 647 182 l 622 0 l 22 0 l 157 965 l 761 965 m 475 1039 q 352 1073 401 1039 q 281 1163 303 1107 q 264 1283 260 1219 l 392 1303 q 422 1235 397 1261 q 490 1208 447 1208 q 567 1235 535 1208 q 618 1306 600 1263 l 750 1279 q 656 1109 728 1179 q 475 1039 583 1039 z "},"Ě":{"ha":714,"x_min":22,"x_max":765,"o":"m 761 965 l 708 783 l 385 783 l 356 579 l 639 579 l 615 401 l 332 401 l 301 182 l 647 182 l 622 0 l 22 0 l 157 965 l 761 965 m 690 1325 l 765 1228 l 546 1039 l 399 1039 l 228 1228 l 324 1325 l 490 1207 l 690 1325 z "},"Ȩ":{"ha":714,"x_min":22,"x_max":761,"o":"m 385 783 l 356 579 l 639 579 l 615 401 l 332 401 l 301 182 l 647 182 l 622 0 l 392 0 l 381 -62 q 478 -104 446 -71 q 511 -192 511 -137 q 488 -275 511 -233 q 411 -345 464 -317 q 275 -374 358 -374 q 118 -326 183 -374 l 186 -219 q 274 -242 226 -242 q 339 -201 339 -242 q 312 -170 339 -179 q 218 -161 285 -161 l 258 0 l 22 0 l 157 965 l 761 965 l 708 783 l 385 783 z "},"Ê":{"ha":714,"x_min":22,"x_max":761,"o":"m 761 965 l 708 783 l 385 783 l 356 579 l 639 579 l 615 401 l 332 401 l 301 182 l 647 182 l 622 0 l 22 0 l 157 965 l 761 965 m 283 1046 l 207 1144 l 429 1333 l 576 1333 l 744 1144 l 651 1046 l 483 1165 l 283 1046 z "},"Ế":{"ha":714,"x_min":22,"x_max":961,"o":"m 844 1549 l 961 1419 l 708 1219 l 626 1301 l 844 1549 m 282 1003 l 206 1101 l 428 1290 l 575 1290 l 743 1101 l 650 1003 l 482 1122 l 282 1003 m 761 965 l 708 783 l 385 783 l 356 579 l 639 579 l 615 401 l 332 401 l 301 182 l 647 182 l 622 0 l 22 0 l 157 965 l 761 965 z "},"Ệ":{"ha":714,"x_min":22,"x_max":761,"o":"m 761 965 l 708 783 l 385 783 l 356 579 l 639 579 l 615 401 l 332 401 l 301 182 l 647 182 l 622 0 l 22 0 l 157 965 l 761 965 m 283 1046 l 207 1144 l 429 1333 l 576 1333 l 744 1144 l 651 1046 l 483 1165 l 283 1046 m 307 -78 q 398 -111 364 -78 q 432 -197 432 -144 q 387 -306 432 -262 q 275 -350 342 -350 q 184 -317 218 -350 q 150 -231 150 -283 q 195 -122 150 -165 q 307 -78 240 -78 z "},"Ề":{"ha":714,"x_min":22,"x_max":761,"o":"m 208 1546 l 360 1294 l 261 1219 l 64 1428 l 208 1546 m 278 1003 l 201 1101 l 424 1290 l 571 1290 l 739 1101 l 646 1003 l 478 1122 l 278 1003 m 761 965 l 708 783 l 385 783 l 356 579 l 639 579 l 615 401 l 332 401 l 301 182 l 647 182 l 622 0 l 22 0 l 157 965 l 761 965 z "},"Ể":{"ha":714,"x_min":22,"x_max":932,"o":"m 761 965 l 708 783 l 385 783 l 356 579 l 639 579 l 615 401 l 332 401 l 301 182 l 647 182 l 622 0 l 22 0 l 157 965 l 761 965 m 276 1003 l 200 1101 l 422 1290 l 569 1290 l 738 1101 l 644 1003 l 476 1122 l 276 1003 m 664 1331 q 771 1388 771 1335 q 722 1422 771 1422 q 639 1404 686 1422 l 613 1503 q 763 1539 681 1539 q 889 1501 846 1539 q 932 1401 932 1463 q 796 1260 932 1288 l 789 1204 l 650 1204 l 664 1331 z "},"Ễ":{"ha":714,"x_min":22,"x_max":785,"o":"m 585 1326 q 540 1335 560 1326 q 492 1360 521 1343 q 463 1375 478 1368 q 436 1382 449 1382 q 394 1369 413 1382 q 354 1325 376 1356 l 247 1382 q 337 1498 285 1453 q 449 1543 389 1543 q 499 1535 479 1543 q 547 1508 518 1526 q 596 1488 578 1488 q 637 1501 618 1488 q 676 1543 656 1514 l 785 1488 q 695 1371 747 1415 q 585 1326 643 1326 m 275 1003 l 199 1101 l 421 1290 l 568 1290 l 736 1101 l 643 1003 l 475 1122 l 275 1003 m 761 965 l 708 783 l 385 783 l 356 579 l 639 579 l 615 401 l 332 401 l 301 182 l 647 182 l 622 0 l 22 0 l 157 965 l 761 965 z "},"Ȅ":{"ha":714,"x_min":22,"x_max":761,"o":"m 761 965 l 708 783 l 385 783 l 356 579 l 639 579 l 615 401 l 332 401 l 301 182 l 647 182 l 622 0 l 22 0 l 157 965 l 761 965 m 335 1382 l 433 1099 l 303 1040 l 167 1301 l 335 1382 m 583 1382 l 669 1096 l 540 1046 l 415 1307 l 583 1382 z "},"Ë":{"ha":714,"x_min":22,"x_max":774,"o":"m 761 965 l 708 783 l 385 783 l 356 579 l 639 579 l 615 401 l 332 401 l 301 182 l 647 182 l 622 0 l 22 0 l 157 965 l 761 965 m 311 1061 q 231 1090 261 1061 q 201 1165 201 1119 q 241 1260 201 1222 q 339 1299 281 1299 q 419 1269 389 1299 q 449 1193 449 1239 q 409 1099 449 1136 q 311 1061 369 1061 m 636 1061 q 556 1090 586 1061 q 526 1165 526 1119 q 566 1260 526 1222 q 664 1299 606 1299 q 744 1269 714 1299 q 774 1193 774 1239 q 734 1099 774 1136 q 636 1061 694 1061 z "},"Ė":{"ha":714,"x_min":22,"x_max":761,"o":"m 761 965 l 708 783 l 385 783 l 356 579 l 639 579 l 615 401 l 332 401 l 301 182 l 647 182 l 622 0 l 22 0 l 157 965 l 761 965 m 479 1042 q 388 1075 422 1042 q 354 1161 354 1108 q 399 1270 354 1226 q 511 1314 444 1314 q 602 1281 568 1314 q 636 1194 636 1247 q 591 1085 636 1129 q 479 1042 546 1042 z "},"Ẹ":{"ha":714,"x_min":22,"x_max":761,"o":"m 761 965 l 708 783 l 385 783 l 356 579 l 639 579 l 615 401 l 332 401 l 301 182 l 647 182 l 622 0 l 22 0 l 157 965 l 761 965 m 307 -78 q 398 -111 364 -78 q 432 -197 432 -144 q 387 -306 432 -262 q 275 -350 342 -350 q 184 -317 218 -350 q 150 -231 150 -283 q 195 -122 150 -165 q 307 -78 240 -78 z "},"È":{"ha":714,"x_min":22,"x_max":761,"o":"m 761 965 l 708 783 l 385 783 l 356 579 l 639 579 l 615 401 l 332 401 l 301 182 l 647 182 l 622 0 l 22 0 l 157 965 l 761 965 m 407 1336 l 690 1156 l 628 1036 l 306 1153 l 407 1336 z "},"Ẻ":{"ha":714,"x_min":22,"x_max":761,"o":"m 761 965 l 708 783 l 385 783 l 356 579 l 639 579 l 615 401 l 332 401 l 301 182 l 647 182 l 622 0 l 22 0 l 157 965 l 761 965 m 419 1188 q 526 1244 526 1192 q 478 1279 526 1279 q 394 1261 442 1279 l 368 1360 q 518 1396 436 1396 q 644 1358 601 1396 q 688 1258 688 1319 q 551 1117 688 1144 l 544 1061 l 406 1061 l 419 1188 z "},"Ȇ":{"ha":714,"x_min":22,"x_max":761,"o":"m 761 965 l 708 783 l 385 783 l 356 579 l 639 579 l 615 401 l 332 401 l 301 182 l 647 182 l 622 0 l 22 0 l 157 965 l 761 965 m 231 1079 q 328 1261 254 1189 q 513 1333 401 1333 q 678 1260 624 1333 q 726 1076 733 1186 l 592 1057 q 563 1135 588 1107 q 494 1164 539 1164 q 360 1054 404 1164 l 231 1079 z "},"Ē":{"ha":714,"x_min":22,"x_max":761,"o":"m 761 965 l 708 783 l 385 783 l 356 579 l 639 579 l 615 401 l 332 401 l 301 182 l 647 182 l 622 0 l 22 0 l 157 965 l 761 965 m 693 1081 l 263 1081 l 286 1250 l 717 1250 l 693 1081 z "},"Ę":{"ha":714,"x_min":22,"x_max":761,"o":"m 385 783 l 356 579 l 639 579 l 615 401 l 332 401 l 301 182 l 647 182 l 622 0 l 569 0 q 426 -76 464 -36 q 388 -153 388 -117 q 447 -199 388 -199 q 535 -187 483 -199 l 501 -336 q 403 -347 453 -347 q 265 -307 318 -347 q 211 -197 211 -267 q 340 0 211 -78 l 22 0 l 157 965 l 761 965 l 708 783 l 385 783 z "},"Ɛ":{"ha":746,"x_min":10,"x_max":792,"o":"m 474 990 q 656 958 581 990 q 792 858 732 925 l 657 733 q 493 807 585 807 q 394 774 429 807 q 358 689 358 742 q 474 597 358 597 l 582 597 l 528 418 l 456 418 q 319 380 368 418 q 271 272 271 342 q 303 187 271 214 q 400 160 335 160 q 501 181 454 160 q 600 244 549 201 l 718 110 q 358 -26 574 -26 q 175 6 254 -26 q 53 100 96 39 q 10 242 10 161 q 84 430 10 364 q 293 511 158 496 q 150 583 197 532 q 103 710 103 635 q 154 857 103 793 q 290 956 206 921 q 474 990 375 990 z "},"Ǝ":{"ha":708,"x_min":-17,"x_max":717,"o":"m 125 965 l 717 965 l 582 0 l -17 0 l 8 182 l 354 182 l 386 401 l 103 401 l 126 579 l 408 579 l 439 783 l 99 783 l 125 965 z "},"Ʃ":{"ha":685,"x_min":-31,"x_max":747,"o":"m 747 965 l 722 781 l 349 781 l 531 515 l 518 422 l 274 188 l 639 188 l 613 0 l -31 0 l -6 183 l 285 475 l 79 782 l 104 965 l 747 965 z "},"Ɇ":{"ha":714,"x_min":22,"x_max":761,"o":"m 708 783 l 640 783 l 557 579 l 639 579 l 615 401 l 486 401 l 397 182 l 647 182 l 622 0 l 324 0 l 281 -106 l 196 -85 l 231 0 l 22 0 l 157 965 l 622 965 l 657 1051 l 740 1032 l 714 965 l 761 965 l 708 783 m 465 579 l 549 783 l 385 783 l 356 579 l 465 579 m 304 182 l 393 401 l 332 401 l 301 182 l 304 182 z "},"Ẽ":{"ha":714,"x_min":22,"x_max":764,"o":"m 761 965 l 708 783 l 385 783 l 356 579 l 639 579 l 615 401 l 332 401 l 301 182 l 647 182 l 622 0 l 22 0 l 157 965 l 761 965 m 560 1047 q 513 1057 535 1047 q 467 1083 492 1067 q 435 1102 447 1096 q 410 1108 422 1108 q 367 1094 385 1108 q 326 1046 349 1079 l 217 1108 q 309 1234 256 1185 q 422 1283 363 1283 q 474 1274 453 1283 q 522 1246 494 1264 q 549 1228 538 1233 q 572 1222 560 1222 q 613 1237 594 1222 q 654 1283 632 1251 l 764 1222 q 672 1096 725 1144 q 560 1047 618 1047 z "},"Ʒ":{"ha":765,"x_min":-26,"x_max":765,"o":"m 742 788 l 486 561 q 664 494 600 554 q 728 329 728 435 q 672 139 728 219 q 517 16 615 58 q 300 -26 419 -26 q 105 13 182 -26 q -26 124 28 51 l 117 246 q 200 182 160 201 q 299 163 240 163 q 420 205 372 163 q 468 318 468 247 q 432 396 468 372 q 328 419 396 419 l 186 419 l 206 558 l 454 782 l 124 782 l 149 965 l 765 965 l 742 788 z "},"Ǯ":{"ha":765,"x_min":-26,"x_max":765,"o":"m 742 788 l 486 561 q 664 494 600 554 q 728 329 728 435 q 672 139 728 219 q 517 16 615 58 q 300 -26 419 -26 q 105 13 182 -26 q -26 124 28 51 l 117 246 q 200 182 160 201 q 299 163 240 163 q 420 205 372 163 q 468 318 468 247 q 432 396 468 372 q 328 419 396 419 l 186 419 l 206 558 l 454 782 l 124 782 l 149 965 l 765 965 l 742 788 m 686 1325 l 761 1228 l 542 1039 l 394 1039 l 224 1228 l 319 1325 l 486 1207 l 686 1325 z "},"Ƹ":{"ha":768,"x_min":14,"x_max":782,"o":"m 756 782 l 413 782 l 611 554 l 593 419 l 590 421 l 592 419 l 454 419 q 324 378 372 419 q 276 264 276 338 q 307 189 276 215 q 392 163 338 163 q 503 183 453 163 q 610 249 554 203 l 724 121 q 563 11 651 49 q 358 -26 475 -26 q 104 50 194 -26 q 14 256 14 126 q 58 411 14 343 q 176 519 101 479 q 344 563 251 558 l 142 788 l 165 965 l 782 965 l 756 782 z "},"F":{"ha":663,"x_min":22,"x_max":742,"o":"m 742 965 l 690 783 l 385 783 l 353 551 l 621 551 l 596 369 l 328 369 l 275 0 l 22 0 l 157 965 l 742 965 z "},"Ḟ":{"ha":663,"x_min":22,"x_max":742,"o":"m 742 965 l 690 783 l 385 783 l 353 551 l 621 551 l 596 369 l 328 369 l 275 0 l 22 0 l 157 965 l 742 965 m 468 1042 q 377 1075 411 1042 q 343 1161 343 1108 q 388 1270 343 1226 q 500 1314 433 1314 q 591 1281 557 1314 q 625 1194 625 1247 q 580 1085 625 1129 q 468 1042 535 1042 z "},"Ƒ":{"ha":663,"x_min":-258,"x_max":742,"o":"m 385 783 l 353 551 l 621 551 l 596 369 l 328 369 l 275 0 l 269 -36 q 161 -242 247 -172 q -60 -311 75 -311 q -258 -250 -182 -311 l -158 -101 q -115 -122 -133 -115 q -71 -128 -97 -128 q 15 -47 3 -128 l 22 0 l 157 965 l 742 965 l 690 783 l 385 783 z "},"G":{"ha":885,"x_min":43,"x_max":896,"o":"m 585 990 q 764 956 686 990 q 896 864 842 922 l 757 739 q 673 791 713 775 q 581 807 633 807 q 415 736 478 807 q 328 559 353 665 q 303 339 303 453 q 337 201 303 242 q 442 160 371 160 q 561 186 500 160 l 589 383 l 479 383 l 482 561 l 858 561 l 792 79 q 615 1 711 29 q 429 -26 519 -26 q 139 72 235 -26 q 43 360 43 169 q 99 662 43 518 q 277 898 156 806 q 585 990 399 990 z "},"Ǵ":{"ha":885,"x_min":43,"x_max":896,"o":"m 585 990 q 764 956 686 990 q 896 864 842 922 l 757 739 q 673 791 713 775 q 581 807 633 807 q 415 736 478 807 q 328 559 353 665 q 303 339 303 453 q 337 201 303 242 q 442 160 371 160 q 561 186 500 160 l 589 383 l 479 383 l 482 561 l 858 561 l 792 79 q 615 1 711 29 q 429 -26 519 -26 q 139 72 235 -26 q 43 360 43 169 q 99 662 43 518 q 277 898 156 806 q 585 990 399 990 m 738 1338 l 814 1154 l 463 1033 l 410 1156 l 738 1338 z "},"Ɣ":{"ha":785,"x_min":57,"x_max":896,"o":"m 483 128 q 533 10 517 58 q 549 -93 549 -39 q 484 -255 549 -199 q 303 -311 419 -311 q 154 -266 203 -311 q 106 -140 106 -221 q 138 -10 106 -75 q 235 138 169 54 l 57 965 l 321 965 l 383 303 l 633 965 l 896 965 l 483 128 m 367 -99 q 346 10 367 -51 q 288 -122 288 -71 q 319 -156 288 -156 q 355 -140 343 -156 q 367 -99 367 -125 z "},"Ğ":{"ha":885,"x_min":43,"x_max":896,"o":"m 585 990 q 764 956 686 990 q 896 864 842 922 l 757 739 q 673 791 713 775 q 581 807 633 807 q 415 736 478 807 q 328 559 353 665 q 303 339 303 453 q 337 201 303 242 q 442 160 371 160 q 561 186 500 160 l 589 383 l 479 383 l 482 561 l 858 561 l 792 79 q 615 1 711 29 q 429 -26 519 -26 q 139 72 235 -26 q 43 360 43 169 q 99 662 43 518 q 277 898 156 806 q 585 990 399 990 m 582 1039 q 459 1073 508 1039 q 388 1163 410 1107 q 371 1283 367 1219 l 499 1303 q 529 1235 504 1261 q 597 1208 554 1208 q 674 1235 642 1208 q 725 1306 707 1263 l 857 1279 q 763 1109 835 1179 q 582 1039 690 1039 z "},"Ǧ":{"ha":885,"x_min":43,"x_max":896,"o":"m 585 990 q 764 956 686 990 q 896 864 842 922 l 757 739 q 673 791 713 775 q 581 807 633 807 q 415 736 478 807 q 328 559 353 665 q 303 339 303 453 q 337 201 303 242 q 442 160 371 160 q 561 186 500 160 l 589 383 l 479 383 l 482 561 l 858 561 l 792 79 q 615 1 711 29 q 429 -26 519 -26 q 139 72 235 -26 q 43 360 43 169 q 99 662 43 518 q 277 898 156 806 q 585 990 399 990 m 797 1325 l 872 1228 l 653 1039 l 506 1039 l 335 1228 l 431 1325 l 597 1207 l 797 1325 z "},"Ĝ":{"ha":885,"x_min":43,"x_max":896,"o":"m 585 990 q 764 956 686 990 q 896 864 842 922 l 757 739 q 673 791 713 775 q 581 807 633 807 q 415 736 478 807 q 328 559 353 665 q 303 339 303 453 q 337 201 303 242 q 442 160 371 160 q 561 186 500 160 l 589 383 l 479 383 l 482 561 l 858 561 l 792 79 q 615 1 711 29 q 429 -26 519 -26 q 139 72 235 -26 q 43 360 43 169 q 99 662 43 518 q 277 898 156 806 q 585 990 399 990 m 390 1046 l 314 1144 l 536 1333 l 683 1333 l 851 1144 l 758 1046 l 590 1165 l 390 1046 z "},"Ģ":{"ha":885,"x_min":43,"x_max":896,"o":"m 585 990 q 764 956 686 990 q 896 864 842 922 l 757 739 q 673 791 713 775 q 581 807 633 807 q 415 736 478 807 q 328 559 353 665 q 303 339 303 453 q 337 201 303 242 q 442 160 371 160 q 561 186 500 160 l 589 383 l 479 383 l 482 561 l 858 561 l 792 79 q 615 1 711 29 q 429 -26 519 -26 q 139 72 235 -26 q 43 360 43 169 q 99 662 43 518 q 277 898 156 806 q 585 990 399 990 m 413 -90 q 492 -119 461 -90 q 522 -194 522 -149 q 510 -257 522 -228 q 468 -331 497 -286 l 385 -464 l 267 -464 l 328 -301 q 288 -222 288 -272 q 324 -127 288 -164 q 413 -90 360 -90 z "},"Ġ":{"ha":885,"x_min":43,"x_max":896,"o":"m 585 990 q 764 956 686 990 q 896 864 842 922 l 757 739 q 673 791 713 775 q 581 807 633 807 q 415 736 478 807 q 328 559 353 665 q 303 339 303 453 q 337 201 303 242 q 442 160 371 160 q 561 186 500 160 l 589 383 l 479 383 l 482 561 l 858 561 l 792 79 q 615 1 711 29 q 429 -26 519 -26 q 139 72 235 -26 q 43 360 43 169 q 99 662 43 518 q 277 898 156 806 q 585 990 399 990 m 586 1042 q 495 1075 529 1042 q 461 1161 461 1108 q 506 1270 461 1226 q 618 1314 551 1314 q 709 1281 675 1314 q 743 1194 743 1247 q 698 1085 743 1129 q 586 1042 653 1042 z "},"Ɠ":{"ha":858,"x_min":42,"x_max":1153,"o":"m 967 1190 q 1153 1138 1074 1190 l 1067 988 q 982 1011 1022 1011 q 903 929 913 1011 l 896 864 l 769 750 q 579 807 679 807 q 414 736 476 807 q 326 559 351 665 q 301 339 301 453 q 335 201 301 242 q 440 160 369 160 q 560 186 499 160 l 588 383 l 479 383 l 481 561 l 857 561 l 790 79 q 615 1 711 29 q 428 -26 518 -26 q 138 72 233 -26 q 42 360 42 169 q 101 658 42 513 q 278 897 161 804 q 560 990 396 990 q 699 965 640 990 q 783 1132 715 1074 q 967 1190 850 1190 z "},"Ɂ":{"ha":725,"x_min":79,"x_max":743,"o":"m 221 464 l 292 483 q 434 562 386 511 q 482 697 482 613 q 455 778 482 750 q 374 807 428 807 q 281 788 325 807 q 186 731 238 769 l 79 861 q 235 958 154 926 q 422 990 317 990 q 658 917 572 990 q 743 714 743 843 q 504 403 743 478 l 465 389 l 410 0 l 157 0 l 221 464 z "},"Ǥ":{"ha":935,"x_min":43,"x_max":924,"o":"m 906 247 l 815 247 l 792 79 q 615 1 711 29 q 429 -26 519 -26 q 139 72 235 -26 q 43 360 43 169 q 99 662 43 518 q 277 898 156 806 q 585 990 399 990 q 764 956 686 990 q 896 864 842 922 l 751 735 q 673 790 711 774 q 581 807 635 807 q 415 736 478 807 q 328 559 353 665 q 303 339 303 453 q 337 201 303 242 q 442 160 371 160 q 572 186 511 160 l 581 247 l 454 247 l 474 388 l 599 388 l 606 440 l 485 440 l 485 589 l 863 589 l 835 388 l 924 388 l 906 247 z "},"Ȝ":{"ha":717,"x_min":24,"x_max":711,"o":"m 408 990 q 630 923 549 990 q 711 746 711 856 q 463 496 711 553 q 623 443 565 493 q 681 301 681 393 q 496 6 681 122 q 24 -162 311 -111 l 28 21 q 318 137 219 72 q 417 307 417 201 q 383 381 417 358 q 276 404 350 404 l 174 404 l 225 583 l 303 583 q 413 621 374 583 q 453 722 453 658 q 357 807 453 807 q 164 733 264 807 l 61 861 q 408 990 213 990 z "},"H":{"ha":903,"x_min":22,"x_max":911,"o":"m 275 0 l 22 0 l 157 965 l 410 965 l 358 600 l 607 600 l 658 965 l 911 965 l 776 0 l 524 0 l 578 401 l 332 401 l 275 0 z "},"Ħ":{"ha":932,"x_min":35,"x_max":979,"o":"m 979 829 l 960 690 l 885 690 l 789 0 l 536 0 l 590 401 l 344 401 l 288 0 l 35 0 l 131 690 l 58 690 l 78 829 l 150 829 l 169 965 l 422 965 l 403 829 l 651 829 l 671 965 l 924 965 l 904 829 l 979 829 m 619 600 l 632 690 l 383 690 l 371 600 l 619 600 z "},"Ȟ":{"ha":903,"x_min":22,"x_max":911,"o":"m 275 0 l 22 0 l 157 965 l 410 965 l 358 600 l 607 600 l 658 965 l 911 965 l 776 0 l 524 0 l 578 401 l 332 401 l 275 0 m 764 1325 l 839 1228 l 619 1039 l 472 1039 l 301 1228 l 397 1325 l 564 1207 l 764 1325 z "},"Ĥ":{"ha":903,"x_min":22,"x_max":911,"o":"m 275 0 l 22 0 l 157 965 l 410 965 l 358 600 l 607 600 l 658 965 l 911 965 l 776 0 l 524 0 l 578 401 l 332 401 l 275 0 m 357 1046 l 281 1144 l 503 1333 l 650 1333 l 818 1144 l 725 1046 l 557 1165 l 357 1046 z "},"Ḥ":{"ha":903,"x_min":22,"x_max":911,"o":"m 275 0 l 22 0 l 157 965 l 410 965 l 358 600 l 607 600 l 658 965 l 911 965 l 776 0 l 524 0 l 578 401 l 332 401 l 275 0 m 385 -78 q 476 -111 442 -78 q 510 -197 510 -144 q 465 -306 510 -262 q 353 -350 419 -350 q 262 -317 296 -350 q 228 -231 228 -283 q 273 -122 228 -165 q 385 -78 318 -78 z "},"Ɦ":{"ha":1122,"x_min":54,"x_max":1131,"o":"m 1131 965 l 996 0 l 743 0 l 797 401 l 551 401 l 494 0 l 242 0 l 351 783 l 315 783 q 264 765 282 783 q 246 710 246 746 q 250 667 246 688 q 256 640 254 646 l 89 576 q 54 715 54 649 q 131 898 54 831 q 333 965 207 965 l 629 965 l 578 600 l 826 600 l 878 965 l 1131 965 z "},"Ɥ":{"ha":849,"x_min":50,"x_max":857,"o":"m 857 965 l 722 0 l 469 0 l 518 344 q 419 292 469 308 q 308 276 368 276 q 117 348 183 276 q 50 549 50 419 q 56 621 50 571 l 106 965 l 353 965 l 304 619 q 300 569 300 593 q 325 488 300 514 q 403 463 350 463 q 540 511 485 463 l 604 965 l 857 965 z "},"Ƕ":{"ha":1288,"x_min":22,"x_max":1258,"o":"m 840 -26 q 630 40 703 -26 q 557 210 557 107 q 560 249 557 224 l 579 401 l 332 401 l 275 0 l 22 0 l 157 965 l 410 965 l 358 600 l 608 600 l 660 965 l 913 965 l 814 258 q 811 222 811 233 q 864 154 811 154 q 988 301 954 154 q 1022 622 1022 447 q 1017 740 1022 686 l 1247 740 q 1258 585 1258 667 q 1224 262 1258 394 q 1097 51 1189 129 q 840 -26 1004 -26 z "},"I":{"ha":403,"x_min":22,"x_max":410,"o":"m 410 965 l 275 0 l 22 0 l 157 965 l 410 965 z "},"Ĳ":{"ha":839,"x_min":22,"x_max":850,"o":"m 410 965 l 275 0 l 22 0 l 157 965 l 410 965 m 738 149 q 665 -51 719 28 q 535 -174 610 -129 q 360 -250 460 -218 l 314 -67 q 411 -13 376 -44 q 461 58 446 18 q 485 161 476 99 l 597 965 l 850 965 l 738 149 z "},"Í":{"ha":403,"x_min":22,"x_max":529,"o":"m 410 965 l 275 0 l 22 0 l 157 965 l 410 965 m 453 1338 l 529 1154 l 178 1033 l 125 1156 l 453 1338 z "},"Ĭ":{"ha":403,"x_min":22,"x_max":572,"o":"m 410 965 l 275 0 l 22 0 l 157 965 l 410 965 m 297 1039 q 174 1073 224 1039 q 103 1163 125 1107 q 86 1283 82 1219 l 214 1303 q 244 1235 219 1261 q 313 1208 269 1208 q 390 1235 357 1208 q 440 1306 422 1263 l 572 1279 q 478 1109 550 1179 q 297 1039 406 1039 z "},"Ǐ":{"ha":403,"x_min":22,"x_max":588,"o":"m 410 965 l 275 0 l 22 0 l 157 965 l 410 965 m 513 1325 l 588 1228 l 368 1039 l 221 1039 l 50 1228 l 146 1325 l 313 1207 l 513 1325 z "},"Î":{"ha":403,"x_min":22,"x_max":567,"o":"m 410 965 l 275 0 l 22 0 l 157 965 l 410 965 m 106 1046 l 29 1144 l 251 1333 l 399 1333 l 567 1144 l 474 1046 l 306 1165 l 106 1046 z "},"Ȉ":{"ha":403,"x_min":-11,"x_max":492,"o":"m 410 965 l 275 0 l 22 0 l 157 965 l 410 965 m 157 1382 l 256 1099 l 125 1040 l -11 1301 l 157 1382 m 406 1382 l 492 1096 l 363 1046 l 238 1307 l 406 1382 z "},"Ï":{"ha":403,"x_min":22,"x_max":596,"o":"m 410 965 l 275 0 l 22 0 l 157 965 l 410 965 m 133 1061 q 53 1090 83 1061 q 24 1165 24 1119 q 63 1260 24 1222 q 161 1299 103 1299 q 241 1269 211 1299 q 271 1193 271 1239 q 231 1099 271 1136 q 133 1061 192 1061 m 458 1061 q 378 1090 408 1061 q 349 1165 349 1119 q 388 1260 349 1222 q 486 1299 428 1299 q 566 1269 536 1299 q 596 1193 596 1239 q 556 1099 596 1136 q 458 1061 517 1061 z "},"Ḯ":{"ha":403,"x_min":13,"x_max":608,"o":"m 410 965 l 275 0 l 22 0 l 157 965 l 410 965 m 456 1557 l 572 1428 l 319 1228 l 238 1310 l 456 1557 m 122 1040 q 42 1070 72 1040 q 13 1146 13 1100 q 52 1240 13 1203 q 150 1278 92 1278 q 230 1249 200 1278 q 260 1174 260 1219 q 220 1078 260 1117 q 122 1040 181 1040 m 471 1040 q 391 1070 421 1040 q 361 1146 361 1100 q 401 1240 361 1203 q 499 1278 440 1278 q 578 1249 549 1278 q 608 1174 608 1219 q 569 1078 608 1117 q 471 1040 529 1040 z "},"İ":{"ha":403,"x_min":22,"x_max":458,"o":"m 410 965 l 275 0 l 22 0 l 157 965 l 410 965 m 301 1042 q 210 1075 244 1042 q 176 1161 176 1108 q 222 1270 176 1226 q 333 1314 267 1314 q 424 1281 390 1314 q 458 1194 458 1247 q 413 1085 458 1129 q 301 1042 368 1042 z "},"Ị":{"ha":403,"x_min":-24,"x_max":410,"o":"m 410 965 l 275 0 l 22 0 l 157 965 l 410 965 m 133 -78 q 224 -111 190 -78 q 258 -197 258 -144 q 213 -306 258 -262 q 101 -350 168 -350 q 10 -317 44 -350 q -24 -231 -24 -283 q 22 -122 -24 -165 q 133 -78 67 -78 z "},"Ì":{"ha":403,"x_min":22,"x_max":513,"o":"m 410 965 l 275 0 l 22 0 l 157 965 l 410 965 m 229 1336 l 513 1156 l 450 1036 l 128 1153 l 229 1336 z "},"Ỉ":{"ha":403,"x_min":22,"x_max":510,"o":"m 410 965 l 275 0 l 22 0 l 157 965 l 410 965 m 242 1188 q 349 1244 349 1192 q 300 1279 349 1279 q 217 1261 264 1279 l 190 1360 q 340 1396 258 1396 q 467 1358 424 1396 q 510 1258 510 1319 q 374 1117 510 1144 l 367 1061 l 228 1061 l 242 1188 z "},"Ȋ":{"ha":403,"x_min":22,"x_max":550,"o":"m 410 965 l 275 0 l 22 0 l 157 965 l 410 965 m 53 1079 q 150 1261 76 1189 q 335 1333 224 1333 q 501 1260 446 1333 q 549 1076 556 1186 l 414 1057 q 385 1135 410 1107 q 317 1164 361 1164 q 182 1054 226 1164 l 53 1079 z "},"Ī":{"ha":403,"x_min":22,"x_max":539,"o":"m 410 965 l 275 0 l 22 0 l 157 965 l 410 965 m 515 1081 l 85 1081 l 108 1250 l 539 1250 l 515 1081 z "},"Į":{"ha":403,"x_min":-136,"x_max":410,"o":"m 410 965 l 275 0 l 222 0 q 78 -76 117 -36 q 40 -153 40 -117 q 100 -199 40 -199 q 188 -187 136 -199 l 154 -336 q 56 -347 106 -347 q -83 -307 -29 -347 q -136 -197 -136 -267 q 25 17 -136 -65 l 157 965 l 410 965 z "},"Ɩ":{"ha":540,"x_min":40,"x_max":513,"o":"m 513 33 q 303 -25 426 -25 q 110 33 181 -25 q 40 203 40 92 q 44 256 40 229 l 49 286 l 144 965 l 397 965 l 301 286 l 303 286 l 296 235 q 294 214 294 226 q 351 158 294 158 q 401 165 379 158 q 450 185 422 171 l 513 33 z "},"Ɨ":{"ha":465,"x_min":14,"x_max":489,"o":"m 489 593 l 464 407 l 365 407 l 308 0 l 56 0 l 113 407 l 14 407 l 39 593 l 139 593 l 190 965 l 443 965 l 392 593 l 489 593 z "},"Ĩ":{"ha":403,"x_min":22,"x_max":586,"o":"m 410 965 l 275 0 l 22 0 l 157 965 l 410 965 m 382 1047 q 335 1057 357 1047 q 289 1083 314 1067 q 257 1102 269 1096 q 232 1108 244 1108 q 189 1094 207 1108 q 149 1046 171 1079 l 39 1108 q 131 1234 78 1185 q 244 1283 185 1283 q 296 1274 275 1283 q 344 1246 317 1264 q 371 1228 360 1233 q 394 1222 382 1222 q 435 1237 417 1222 q 476 1283 454 1251 l 586 1222 q 494 1096 547 1144 q 382 1047 440 1047 z "},"J":{"ha":436,"x_min":-89,"x_max":447,"o":"m 335 149 q 262 -51 317 28 q 132 -174 207 -129 q -43 -250 57 -218 l -89 -67 q 8 -13 -26 -44 q 58 58 43 18 q 82 161 74 99 l 194 965 l 447 965 l 335 149 z "},"Ĵ":{"ha":436,"x_min":-89,"x_max":604,"o":"m 335 149 q 262 -51 317 28 q 132 -174 207 -129 q -43 -250 57 -218 l -89 -67 q 8 -13 -26 -44 q 58 58 43 18 q 82 161 74 99 l 194 965 l 447 965 l 335 149 m 143 1046 l 67 1144 l 289 1333 l 436 1333 l 604 1144 l 511 1046 l 343 1165 l 143 1046 z "},"Ʝ":{"ha":507,"x_min":-186,"x_max":515,"o":"m 379 -11 q 506 -65 444 -31 l 453 -161 q 349 -121 408 -137 q 233 -265 310 -218 q 26 -311 156 -311 q -131 -268 -75 -311 q -186 -147 -186 -225 q -119 -12 -186 -60 q 49 35 -53 35 q 133 32 100 35 l 263 965 l 515 965 l 386 32 l 379 -11 m 17 -189 q 82 -165 60 -189 q 115 -82 104 -140 q 46 -78 93 -78 q -15 -95 7 -78 q -37 -140 -37 -112 q -24 -176 -37 -164 q 17 -189 -10 -189 z "},"Ɉ":{"ha":464,"x_min":-89,"x_max":490,"o":"m 465 382 l 367 382 l 335 149 q 262 -51 317 28 q 132 -174 207 -129 q -43 -250 57 -218 l -89 -67 q 8 -13 -26 -44 q 58 58 43 18 q 82 161 74 99 l 113 382 l 15 382 l 40 571 l 139 571 l 194 965 l 447 965 l 393 571 l 490 571 l 465 382 z "},"K":{"ha":882,"x_min":22,"x_max":964,"o":"m 22 0 l 157 965 l 411 965 l 276 0 l 22 0 m 567 0 l 356 514 l 697 965 l 964 965 l 615 521 l 854 0 l 567 0 z "},"Ǩ":{"ha":882,"x_min":22,"x_max":964,"o":"m 22 0 l 157 965 l 411 965 l 276 0 l 22 0 m 567 0 l 356 514 l 697 965 l 964 965 l 615 521 l 854 0 l 567 0 m 764 1325 l 839 1228 l 619 1039 l 472 1039 l 301 1228 l 397 1325 l 564 1207 l 764 1325 z "},"Ķ":{"ha":882,"x_min":22,"x_max":964,"o":"m 22 0 l 157 965 l 411 965 l 276 0 l 22 0 m 567 0 l 356 514 l 697 965 l 964 965 l 615 521 l 854 0 l 567 0 m 386 -90 q 465 -119 435 -90 q 496 -194 496 -149 q 483 -257 496 -228 q 442 -331 471 -286 l 358 -464 l 240 -464 l 301 -301 q 261 -222 261 -272 q 297 -127 261 -164 q 386 -90 333 -90 z "},"Ƙ":{"ha":908,"x_min":22,"x_max":1011,"o":"m 356 514 l 582 825 q 705 954 647 918 q 851 990 763 990 q 943 976 906 990 q 1011 935 981 961 l 929 796 q 876 810 901 810 q 831 796 850 810 q 778 739 811 782 l 617 521 l 854 0 l 567 0 l 356 514 m 22 0 l 157 965 l 411 965 l 276 0 l 22 0 z "},"L":{"ha":708,"x_min":22,"x_max":667,"o":"m 410 965 l 304 200 l 667 200 l 613 0 l 22 0 l 157 965 l 410 965 z "},"Ǉ":{"ha":1111,"x_min":22,"x_max":1122,"o":"m 410 965 l 304 200 l 667 200 l 613 0 l 22 0 l 157 965 l 410 965 m 1010 149 q 937 -51 992 28 q 807 -174 882 -129 q 632 -250 732 -218 l 586 -67 q 683 -13 649 -44 q 733 58 718 18 q 757 161 749 99 l 869 965 l 1122 965 l 1010 149 z "},"Ĺ":{"ha":708,"x_min":22,"x_max":667,"o":"m 410 965 l 304 200 l 667 200 l 613 0 l 22 0 l 157 965 l 410 965 m 453 1338 l 529 1154 l 178 1033 l 125 1156 l 453 1338 z "},"Ƚ":{"ha":736,"x_min":14,"x_max":694,"o":"m 332 200 l 694 200 l 640 0 l 50 0 l 107 410 l 14 410 l 39 599 l 133 599 l 185 965 l 438 965 l 388 599 l 489 599 l 464 410 l 361 410 l 332 200 z "},"Ɬ":{"ha":872,"x_min":21,"x_max":831,"o":"m 831 200 l 776 0 l 186 0 l 235 347 q 75 397 129 350 q 21 519 21 443 q 78 653 21 604 q 229 703 136 703 q 283 697 256 703 l 321 965 l 574 965 l 508 488 q 656 501 579 490 l 657 371 q 489 353 571 356 l 468 200 l 831 200 m 182 531 q 254 483 182 483 l 267 575 q 232 579 257 579 q 196 565 210 579 q 182 531 182 551 z "},"Ľ":{"ha":708,"x_min":22,"x_max":667,"o":"m 410 965 l 304 200 l 667 200 l 613 0 l 22 0 l 157 965 l 410 965 m 486 986 l 661 964 l 553 651 l 431 663 l 486 986 z "},"Ḽ":{"ha":708,"x_min":4,"x_max":667,"o":"m 410 965 l 304 200 l 667 200 l 613 0 l 22 0 l 157 965 l 410 965 m 79 -385 l 4 -285 l 226 -85 l 374 -85 l 542 -285 l 444 -385 l 281 -254 l 79 -385 z "},"Ļ":{"ha":708,"x_min":22,"x_max":667,"o":"m 410 965 l 304 200 l 667 200 l 613 0 l 22 0 l 157 965 l 410 965 m 307 -90 q 386 -119 356 -90 q 417 -194 417 -149 q 404 -257 417 -228 q 363 -331 392 -286 l 279 -464 l 161 -464 l 222 -301 q 182 -222 182 -272 q 218 -127 182 -164 q 307 -90 254 -90 z "},"Ŀ":{"ha":708,"x_min":22,"x_max":714,"o":"m 410 965 l 304 200 l 667 200 l 613 0 l 22 0 l 157 965 l 410 965 m 557 421 q 466 454 500 421 q 432 540 432 488 q 477 649 432 606 q 589 693 522 693 q 680 660 646 693 q 714 574 714 626 q 669 465 714 508 q 557 421 624 421 z "},"Ḷ":{"ha":708,"x_min":22,"x_max":667,"o":"m 410 965 l 304 200 l 667 200 l 613 0 l 22 0 l 157 965 l 410 965 m 303 -78 q 394 -111 360 -78 q 428 -197 428 -144 q 383 -306 428 -262 q 271 -350 338 -350 q 180 -317 214 -350 q 146 -231 146 -283 q 191 -122 146 -165 q 303 -78 236 -78 z "},"ǈ":{"ha":1069,"x_min":22,"x_max":1108,"o":"m 410 965 l 304 200 l 667 200 l 613 0 l 22 0 l 157 965 l 410 965 m 536 -137 q 663 -57 621 -104 q 717 82 704 -10 l 808 740 l 1051 740 l 961 93 q 894 -105 944 -26 q 771 -230 844 -183 q 596 -311 697 -276 l 536 -137 m 951 867 q 860 900 894 867 q 826 986 826 933 q 872 1095 826 1051 q 983 1139 917 1139 q 1074 1106 1040 1139 q 1108 1019 1108 1072 q 1063 910 1108 954 q 951 867 1018 867 z "},"Ł":{"ha":765,"x_min":6,"x_max":724,"o":"m 361 200 l 724 200 l 669 0 l 79 0 l 121 296 l 67 265 l 6 397 l 146 479 l 214 965 l 467 965 l 422 639 l 597 740 l 660 610 l 396 457 l 361 200 z "},"M":{"ha":1078,"x_min":-19,"x_max":1057,"o":"m 993 0 l 744 0 l 782 361 q 842 776 801 557 l 621 99 l 378 99 l 331 774 q 317 554 326 649 q 289 357 307 460 l 229 0 l -19 0 l 185 965 l 492 965 l 526 304 l 733 965 l 1057 965 l 993 0 z "},"Ḿ":{"ha":1078,"x_min":-19,"x_max":1057,"o":"m 993 0 l 744 0 l 782 361 q 842 776 801 557 l 621 99 l 378 99 l 331 774 q 317 554 326 649 q 289 357 307 460 l 229 0 l -19 0 l 185 965 l 492 965 l 526 304 l 733 965 l 1057 965 l 993 0 m 782 1338 l 858 1154 l 507 1033 l 454 1156 l 782 1338 z "},"Ṁ":{"ha":1078,"x_min":-19,"x_max":1057,"o":"m 993 0 l 744 0 l 782 361 q 842 776 801 557 l 621 99 l 378 99 l 331 774 q 317 554 326 649 q 289 357 307 460 l 229 0 l -19 0 l 185 965 l 492 965 l 526 304 l 733 965 l 1057 965 l 993 0 m 631 1042 q 540 1075 574 1042 q 506 1161 506 1108 q 551 1270 506 1226 q 663 1314 596 1314 q 753 1281 719 1314 q 788 1194 788 1247 q 742 1085 788 1129 q 631 1042 697 1042 z "},"Ɯ":{"ha":1243,"x_min":39,"x_max":1251,"o":"m 1251 965 l 1117 0 l 894 0 l 889 89 q 781 1 833 28 q 664 -26 728 -26 q 548 6 594 -26 q 481 97 501 39 q 365 3 425 33 q 236 -26 304 -26 q 90 32 142 -26 q 39 188 39 90 q 43 243 39 214 l 143 965 l 396 965 l 297 251 q 296 228 296 243 q 309 179 296 196 q 347 163 322 163 q 408 182 379 163 q 471 243 436 201 l 571 965 l 824 965 l 725 251 q 724 226 724 243 q 737 179 724 196 q 775 163 750 163 q 836 183 807 163 q 899 244 865 203 l 999 965 l 1251 965 z "},"N":{"ha":899,"x_min":22,"x_max":907,"o":"m 772 0 l 453 0 l 306 753 q 310 604 310 682 q 289 313 310 457 l 244 0 l 22 0 l 157 965 l 472 965 l 624 213 q 618 375 618 289 q 636 629 618 497 l 685 965 l 907 965 l 772 0 z "},"Ǌ":{"ha":1335,"x_min":22,"x_max":1346,"o":"m 772 0 l 453 0 l 306 753 q 310 604 310 682 q 289 313 310 457 l 244 0 l 22 0 l 157 965 l 472 965 l 624 213 q 618 375 618 289 q 636 629 618 497 l 685 965 l 907 965 l 772 0 m 1233 149 q 1160 -51 1215 28 q 1031 -174 1106 -129 q 856 -250 956 -218 l 810 -67 q 907 -13 872 -44 q 957 58 942 18 q 981 161 972 99 l 1093 965 l 1346 965 l 1233 149 z "},"Ń":{"ha":899,"x_min":22,"x_max":907,"o":"m 772 0 l 453 0 l 306 753 q 310 604 310 682 q 289 313 310 457 l 244 0 l 22 0 l 157 965 l 472 965 l 624 213 q 618 375 618 289 q 636 629 618 497 l 685 965 l 907 965 l 772 0 m 706 1338 l 782 1154 l 431 1033 l 378 1156 l 706 1338 z "},"Ň":{"ha":899,"x_min":22,"x_max":907,"o":"m 772 0 l 453 0 l 306 753 q 310 604 310 682 q 289 313 310 457 l 244 0 l 22 0 l 157 965 l 472 965 l 624 213 q 618 375 618 289 q 636 629 618 497 l 685 965 l 907 965 l 772 0 m 765 1325 l 840 1228 l 621 1039 l 474 1039 l 303 1228 l 399 1325 l 565 1207 l 765 1325 z "},"Ṋ":{"ha":899,"x_min":22,"x_max":907,"o":"m 772 0 l 453 0 l 306 753 q 310 604 310 682 q 289 313 310 457 l 244 0 l 22 0 l 157 965 l 472 965 l 624 213 q 618 375 618 289 q 636 629 618 497 l 685 965 l 907 965 l 772 0 m 160 -385 l 85 -285 l 307 -85 l 454 -85 l 622 -285 l 525 -385 l 361 -254 l 160 -385 z "},"Ņ":{"ha":899,"x_min":22,"x_max":907,"o":"m 772 0 l 453 0 l 306 753 q 310 604 310 682 q 289 313 310 457 l 244 0 l 22 0 l 157 965 l 472 965 l 624 213 q 618 375 618 289 q 636 629 618 497 l 685 965 l 907 965 l 772 0 m 388 -90 q 467 -119 436 -90 q 497 -194 497 -149 q 485 -257 497 -228 q 443 -331 472 -286 l 360 -464 l 242 -464 l 303 -301 q 263 -222 263 -272 q 299 -127 263 -164 q 388 -90 335 -90 z "},"Ṅ":{"ha":899,"x_min":22,"x_max":907,"o":"m 772 0 l 453 0 l 306 753 q 310 604 310 682 q 289 313 310 457 l 244 0 l 22 0 l 157 965 l 472 965 l 624 213 q 618 375 618 289 q 636 629 618 497 l 685 965 l 907 965 l 772 0 m 554 1042 q 463 1075 497 1042 q 429 1161 429 1108 q 474 1270 429 1226 q 586 1314 519 1314 q 677 1281 643 1314 q 711 1194 711 1247 q 666 1085 711 1129 q 554 1042 621 1042 z "},"Ṇ":{"ha":899,"x_min":22,"x_max":907,"o":"m 772 0 l 453 0 l 306 753 q 310 604 310 682 q 289 313 310 457 l 244 0 l 22 0 l 157 965 l 472 965 l 624 213 q 618 375 618 289 q 636 629 618 497 l 685 965 l 907 965 l 772 0 m 383 -78 q 474 -111 440 -78 q 508 -197 508 -144 q 463 -306 508 -262 q 351 -350 418 -350 q 260 -317 294 -350 q 226 -231 226 -283 q 272 -122 226 -165 q 383 -78 317 -78 z "},"Ǹ":{"ha":899,"x_min":22,"x_max":907,"o":"m 772 0 l 453 0 l 306 753 q 310 604 310 682 q 289 313 310 457 l 244 0 l 22 0 l 157 965 l 472 965 l 624 213 q 618 375 618 289 q 636 629 618 497 l 685 965 l 907 965 l 772 0 m 482 1336 l 765 1156 l 703 1036 l 381 1153 l 482 1336 z "},"Ŋ":{"ha":899,"x_min":22,"x_max":907,"o":"m 907 965 l 772 0 l 767 -36 q 658 -242 744 -172 q 438 -311 572 -311 q 239 -250 315 -311 l 339 -101 q 382 -122 364 -115 q 426 -128 400 -128 q 513 -47 500 -128 l 519 0 l 453 0 l 306 753 q 310 604 310 682 q 289 313 310 457 l 244 0 l 22 0 l 157 965 l 472 965 l 624 213 q 618 375 618 289 q 636 629 618 497 l 685 965 l 907 965 z "},"Ɲ":{"ha":899,"x_min":-258,"x_max":907,"o":"m 907 965 l 772 0 l 453 0 l 306 753 q 310 604 310 682 q 289 313 310 457 l 244 0 l 239 -37 q 142 -243 218 -175 q -60 -311 65 -311 q -258 -250 -179 -311 l -158 -110 q -115 -130 -133 -124 q -71 -136 -96 -136 q 17 -47 3 -136 l 22 0 l 157 965 l 472 965 l 624 213 q 618 375 618 289 q 636 629 618 497 l 685 965 l 907 965 z "},"ǋ":{"ha":1281,"x_min":22,"x_max":1319,"o":"m 772 0 l 453 0 l 306 753 q 310 604 310 682 q 289 313 310 457 l 244 0 l 22 0 l 157 965 l 472 965 l 624 213 q 618 375 618 289 q 636 629 618 497 l 685 965 l 907 965 l 772 0 m 747 -137 q 874 -57 832 -104 q 928 82 915 -10 l 1019 740 l 1263 740 l 1172 93 q 1106 -105 1156 -26 q 982 -230 1056 -183 q 807 -311 908 -276 l 747 -137 m 1163 867 q 1072 900 1106 867 q 1038 986 1038 933 q 1083 1095 1038 1051 q 1194 1139 1128 1139 q 1285 1106 1251 1139 q 1319 1019 1319 1072 q 1274 910 1319 954 q 1163 867 1229 867 z "},"Ƞ":{"ha":885,"x_min":22,"x_max":869,"o":"m 649 990 q 813 932 757 990 q 869 774 869 874 q 865 724 869 751 l 725 -296 l 472 -296 l 610 699 q 613 729 613 721 q 596 784 613 767 q 544 801 579 801 q 464 781 503 801 q 376 719 425 761 l 275 0 l 22 0 l 157 965 l 379 965 l 385 885 q 511 965 450 940 q 649 990 572 990 z "},"Ñ":{"ha":899,"x_min":22,"x_max":907,"o":"m 772 0 l 453 0 l 306 753 q 310 604 310 682 q 289 313 310 457 l 244 0 l 22 0 l 157 965 l 472 965 l 624 213 q 618 375 618 289 q 636 629 618 497 l 685 965 l 907 965 l 772 0 m 635 1047 q 588 1057 610 1047 q 542 1083 567 1067 q 510 1102 522 1096 q 485 1108 497 1108 q 442 1094 460 1108 q 401 1046 424 1079 l 292 1108 q 384 1234 331 1185 q 497 1283 438 1283 q 549 1274 528 1283 q 597 1246 569 1264 q 624 1228 613 1233 q 647 1222 635 1222 q 688 1237 669 1222 q 729 1283 707 1251 l 839 1222 q 747 1096 800 1144 q 635 1047 693 1047 z "},"O":{"ha":943,"x_min":44,"x_max":932,"o":"m 556 990 q 835 887 738 990 q 932 594 932 783 q 883 306 932 447 q 718 69 833 165 q 419 -26 603 -26 q 142 78 239 -26 q 44 371 44 183 q 94 659 44 518 q 258 895 143 800 q 556 990 372 990 m 538 806 q 397 728 449 806 q 324 548 344 651 q 304 351 304 444 q 338 205 304 250 q 439 160 371 160 q 580 236 528 160 q 651 416 632 313 q 671 615 671 519 q 638 761 671 717 q 538 806 606 806 z "},"Ȣ":{"ha":886,"x_min":24,"x_max":885,"o":"m 856 761 q 694 553 835 618 q 844 340 844 492 q 787 151 844 235 q 627 21 729 68 q 394 -26 525 -26 q 195 13 279 -26 q 67 118 111 51 q 24 268 24 185 q 82 443 24 372 q 244 551 140 514 q 142 731 142 608 q 143 765 142 753 l 171 965 l 425 965 l 393 746 q 390 711 390 721 q 411 651 390 671 q 478 631 432 631 q 565 663 536 631 q 600 750 593 694 l 631 965 l 885 965 l 856 761 m 411 160 q 535 208 489 160 q 581 338 581 257 q 549 424 581 392 q 458 456 518 456 q 335 405 382 456 q 289 274 289 354 q 320 190 289 221 q 411 160 351 160 z "},"Ó":{"ha":943,"x_min":44,"x_max":932,"o":"m 556 990 q 835 887 738 990 q 932 594 932 783 q 883 306 932 447 q 718 69 833 165 q 419 -26 603 -26 q 142 78 239 -26 q 44 371 44 183 q 94 659 44 518 q 258 895 143 800 q 556 990 372 990 m 538 806 q 397 728 449 806 q 324 548 344 651 q 304 351 304 444 q 338 205 304 250 q 439 160 371 160 q 580 236 528 160 q 651 416 632 313 q 671 615 671 519 q 638 761 671 717 q 538 806 606 806 m 725 1338 l 801 1154 l 450 1033 l 397 1156 l 725 1338 z "},"Ŏ":{"ha":943,"x_min":44,"x_max":932,"o":"m 556 990 q 835 887 738 990 q 932 594 932 783 q 883 306 932 447 q 718 69 833 165 q 419 -26 603 -26 q 142 78 239 -26 q 44 371 44 183 q 94 659 44 518 q 258 895 143 800 q 556 990 372 990 m 538 806 q 397 728 449 806 q 324 548 344 651 q 304 351 304 444 q 338 205 304 250 q 439 160 371 160 q 580 236 528 160 q 651 416 632 313 q 671 615 671 519 q 638 761 671 717 q 538 806 606 806 m 569 1039 q 447 1073 496 1039 q 376 1163 397 1107 q 358 1283 354 1219 l 486 1303 q 517 1235 492 1261 q 585 1208 542 1208 q 662 1235 629 1208 q 713 1306 694 1263 l 844 1279 q 750 1109 822 1179 q 569 1039 678 1039 z "},"Ǒ":{"ha":943,"x_min":44,"x_max":932,"o":"m 556 990 q 835 887 738 990 q 932 594 932 783 q 883 306 932 447 q 718 69 833 165 q 419 -26 603 -26 q 142 78 239 -26 q 44 371 44 183 q 94 659 44 518 q 258 895 143 800 q 556 990 372 990 m 538 806 q 397 728 449 806 q 324 548 344 651 q 304 351 304 444 q 338 205 304 250 q 439 160 371 160 q 580 236 528 160 q 651 416 632 313 q 671 615 671 519 q 638 761 671 717 q 538 806 606 806 m 785 1325 l 860 1228 l 640 1039 l 493 1039 l 322 1228 l 418 1325 l 585 1207 l 785 1325 z "},"Ɵ":{"ha":943,"x_min":44,"x_max":932,"o":"m 556 990 q 835 887 738 990 q 932 594 932 783 q 883 306 932 447 q 718 69 833 165 q 419 -26 603 -26 q 142 78 239 -26 q 44 371 44 183 q 94 659 44 518 q 258 895 143 800 q 556 990 372 990 m 542 811 q 394 740 449 811 q 314 557 339 668 l 682 557 q 683 611 683 576 q 649 764 683 717 q 542 811 614 811 m 435 154 q 585 228 529 154 q 664 418 640 303 l 296 418 q 293 356 293 396 q 328 202 293 250 q 435 154 363 154 z "},"Ô":{"ha":943,"x_min":44,"x_max":932,"o":"m 556 990 q 835 887 738 990 q 932 594 932 783 q 883 306 932 447 q 718 69 833 165 q 419 -26 603 -26 q 142 78 239 -26 q 44 371 44 183 q 94 659 44 518 q 258 895 143 800 q 556 990 372 990 m 538 806 q 397 728 449 806 q 324 548 344 651 q 304 351 304 444 q 338 205 304 250 q 439 160 371 160 q 580 236 528 160 q 651 416 632 313 q 671 615 671 519 q 638 761 671 717 q 538 806 606 806 m 378 1046 l 301 1144 l 524 1333 l 671 1333 l 839 1144 l 746 1046 l 578 1165 l 378 1046 z "},"Ố":{"ha":943,"x_min":44,"x_max":1056,"o":"m 939 1549 l 1056 1419 l 803 1219 l 721 1301 l 939 1549 m 376 1003 l 300 1101 l 522 1290 l 669 1290 l 838 1101 l 744 1003 l 576 1122 l 376 1003 m 556 990 q 835 887 738 990 q 932 594 932 783 q 883 306 932 447 q 718 69 833 165 q 419 -26 603 -26 q 142 78 239 -26 q 44 371 44 183 q 94 659 44 518 q 258 895 143 800 q 556 990 372 990 m 538 806 q 397 728 449 806 q 324 548 344 651 q 304 351 304 444 q 338 205 304 250 q 439 160 371 160 q 580 236 528 160 q 651 416 632 313 q 671 615 671 519 q 638 761 671 717 q 538 806 606 806 z "},"Ộ":{"ha":943,"x_min":44,"x_max":932,"o":"m 556 990 q 835 887 738 990 q 932 594 932 783 q 883 306 932 447 q 718 69 833 165 q 419 -26 603 -26 q 142 78 239 -26 q 44 371 44 183 q 94 659 44 518 q 258 895 143 800 q 556 990 372 990 m 538 806 q 397 728 449 806 q 324 548 344 651 q 304 351 304 444 q 338 205 304 250 q 439 160 371 160 q 580 236 528 160 q 651 416 632 313 q 671 615 671 519 q 638 761 671 717 q 538 806 606 806 m 378 1046 l 301 1144 l 524 1333 l 671 1333 l 839 1144 l 746 1046 l 578 1165 l 378 1046 m 406 -78 q 497 -111 463 -78 q 531 -197 531 -144 q 485 -306 531 -262 q 374 -350 440 -350 q 283 -317 317 -350 q 249 -231 249 -283 q 294 -122 249 -165 q 406 -78 339 -78 z "},"Ồ":{"ha":943,"x_min":44,"x_max":932,"o":"m 303 1546 l 454 1294 l 356 1219 l 158 1428 l 303 1546 m 372 1003 l 296 1101 l 518 1290 l 665 1290 l 833 1101 l 740 1003 l 572 1122 l 372 1003 m 556 990 q 835 887 738 990 q 932 594 932 783 q 883 306 932 447 q 718 69 833 165 q 419 -26 603 -26 q 142 78 239 -26 q 44 371 44 183 q 94 659 44 518 q 258 895 143 800 q 556 990 372 990 m 538 806 q 397 728 449 806 q 324 548 344 651 q 304 351 304 444 q 338 205 304 250 q 439 160 371 160 q 580 236 528 160 q 651 416 632 313 q 671 615 671 519 q 638 761 671 717 q 538 806 606 806 z "},"Ổ":{"ha":943,"x_min":44,"x_max":1026,"o":"m 556 990 q 835 887 738 990 q 932 594 932 783 q 883 306 932 447 q 718 69 833 165 q 419 -26 603 -26 q 142 78 239 -26 q 44 371 44 183 q 94 659 44 518 q 258 895 143 800 q 556 990 372 990 m 538 806 q 397 728 449 806 q 324 548 344 651 q 304 351 304 444 q 338 205 304 250 q 439 160 371 160 q 580 236 528 160 q 651 416 632 313 q 671 615 671 519 q 638 761 671 717 q 538 806 606 806 m 371 1003 l 294 1101 l 517 1290 l 664 1290 l 832 1101 l 739 1003 l 571 1122 l 371 1003 m 758 1331 q 865 1388 865 1335 q 817 1422 865 1422 q 733 1404 781 1422 l 707 1503 q 857 1539 775 1539 q 983 1501 940 1539 q 1026 1401 1026 1463 q 890 1260 1026 1288 l 883 1204 l 744 1204 l 758 1331 z "},"Ỗ":{"ha":943,"x_min":44,"x_max":932,"o":"m 679 1326 q 635 1335 654 1326 q 586 1360 615 1343 q 558 1375 572 1368 q 531 1382 543 1382 q 489 1369 507 1382 q 449 1325 471 1356 l 342 1382 q 431 1498 379 1453 q 543 1543 483 1543 q 593 1535 574 1543 q 642 1508 613 1526 q 690 1488 674 1488 q 731 1501 713 1488 q 771 1543 750 1514 l 879 1488 q 790 1371 842 1415 q 679 1326 738 1326 m 369 1003 l 293 1101 l 515 1290 l 663 1290 l 831 1101 l 738 1003 l 569 1122 l 369 1003 m 556 990 q 835 887 738 990 q 932 594 932 783 q 883 306 932 447 q 718 69 833 165 q 419 -26 603 -26 q 142 78 239 -26 q 44 371 44 183 q 94 659 44 518 q 258 895 143 800 q 556 990 372 990 m 538 806 q 397 728 449 806 q 324 548 344 651 q 304 351 304 444 q 338 205 304 250 q 439 160 371 160 q 580 236 528 160 q 651 416 632 313 q 671 615 671 519 q 638 761 671 717 q 538 806 606 806 z "},"Ȍ":{"ha":943,"x_min":44,"x_max":932,"o":"m 556 990 q 835 887 738 990 q 932 594 932 783 q 883 306 932 447 q 718 69 833 165 q 419 -26 603 -26 q 142 78 239 -26 q 44 371 44 183 q 94 659 44 518 q 258 895 143 800 q 556 990 372 990 m 538 806 q 397 728 449 806 q 324 548 344 651 q 304 351 304 444 q 338 205 304 250 q 439 160 371 160 q 580 236 528 160 q 651 416 632 313 q 671 615 671 519 q 638 761 671 717 q 538 806 606 806 m 429 1382 l 528 1099 l 397 1040 l 261 1301 l 429 1382 m 678 1382 l 764 1096 l 635 1046 l 510 1307 l 678 1382 z "},"Ö":{"ha":943,"x_min":44,"x_max":932,"o":"m 556 990 q 835 887 738 990 q 932 594 932 783 q 883 306 932 447 q 718 69 833 165 q 419 -26 603 -26 q 142 78 239 -26 q 44 371 44 183 q 94 659 44 518 q 258 895 143 800 q 556 990 372 990 m 538 806 q 397 728 449 806 q 324 548 344 651 q 304 351 304 444 q 338 205 304 250 q 439 160 371 160 q 580 236 528 160 q 651 416 632 313 q 671 615 671 519 q 638 761 671 717 q 538 806 606 806 m 406 1061 q 326 1090 356 1061 q 296 1165 296 1119 q 335 1260 296 1222 q 433 1299 375 1299 q 513 1269 483 1299 q 543 1193 543 1239 q 503 1099 543 1136 q 406 1061 464 1061 m 731 1061 q 651 1090 681 1061 q 621 1165 621 1119 q 660 1260 621 1222 q 758 1299 700 1299 q 838 1269 808 1299 q 868 1193 868 1239 q 828 1099 868 1136 q 731 1061 789 1061 z "},"Ȫ":{"ha":943,"x_min":44,"x_max":932,"o":"m 556 990 q 835 887 738 990 q 932 594 932 783 q 883 306 932 447 q 718 69 833 165 q 419 -26 603 -26 q 142 78 239 -26 q 44 371 44 183 q 94 659 44 518 q 258 895 143 800 q 556 990 372 990 m 538 806 q 397 728 449 806 q 324 548 344 651 q 304 351 304 444 q 338 205 304 250 q 439 160 371 160 q 580 236 528 160 q 651 416 632 313 q 671 615 671 519 q 638 761 671 717 q 538 806 606 806 m 400 1036 q 320 1065 350 1036 q 290 1140 290 1094 q 330 1235 290 1197 q 428 1274 369 1274 q 508 1244 478 1274 q 538 1168 538 1214 q 498 1074 538 1111 q 400 1036 458 1036 m 725 1036 q 645 1065 675 1036 q 615 1140 615 1094 q 655 1235 615 1197 q 753 1274 694 1274 q 833 1244 803 1274 q 863 1168 863 1214 q 823 1074 863 1111 q 725 1036 783 1036 m 811 1322 l 381 1322 l 404 1492 l 835 1492 l 811 1322 z "},"Ȯ":{"ha":943,"x_min":44,"x_max":932,"o":"m 556 990 q 835 887 738 990 q 932 594 932 783 q 883 306 932 447 q 718 69 833 165 q 419 -26 603 -26 q 142 78 239 -26 q 44 371 44 183 q 94 659 44 518 q 258 895 143 800 q 556 990 372 990 m 538 806 q 397 728 449 806 q 324 548 344 651 q 304 351 304 444 q 338 205 304 250 q 439 160 371 160 q 580 236 528 160 q 651 416 632 313 q 671 615 671 519 q 638 761 671 717 q 538 806 606 806 m 574 1042 q 483 1075 517 1042 q 449 1161 449 1108 q 494 1270 449 1226 q 606 1314 539 1314 q 697 1281 663 1314 q 731 1194 731 1247 q 685 1085 731 1129 q 574 1042 640 1042 z "},"Ȱ":{"ha":943,"x_min":44,"x_max":932,"o":"m 556 990 q 835 887 738 990 q 932 594 932 783 q 883 306 932 447 q 718 69 833 165 q 419 -26 603 -26 q 142 78 239 -26 q 44 371 44 183 q 94 659 44 518 q 258 895 143 800 q 556 990 372 990 m 538 806 q 397 728 449 806 q 324 548 344 651 q 304 351 304 444 q 338 205 304 250 q 439 160 371 160 q 580 236 528 160 q 651 416 632 313 q 671 615 671 519 q 638 761 671 717 q 538 806 606 806 m 563 1019 q 472 1053 506 1019 q 438 1139 438 1086 q 483 1248 438 1204 q 594 1292 528 1292 q 685 1258 651 1292 q 719 1172 719 1225 q 674 1063 719 1107 q 563 1019 629 1019 m 822 1324 l 392 1324 l 415 1493 l 846 1493 l 822 1324 z "},"Ọ":{"ha":943,"x_min":44,"x_max":932,"o":"m 556 990 q 835 887 738 990 q 932 594 932 783 q 883 306 932 447 q 718 69 833 165 q 419 -26 603 -26 q 142 78 239 -26 q 44 371 44 183 q 94 659 44 518 q 258 895 143 800 q 556 990 372 990 m 538 806 q 397 728 449 806 q 324 548 344 651 q 304 351 304 444 q 338 205 304 250 q 439 160 371 160 q 580 236 528 160 q 651 416 632 313 q 671 615 671 519 q 638 761 671 717 q 538 806 606 806 m 406 -78 q 497 -111 463 -78 q 531 -197 531 -144 q 485 -306 531 -262 q 374 -350 440 -350 q 283 -317 317 -350 q 249 -231 249 -283 q 294 -122 249 -165 q 406 -78 339 -78 z "},"Ò":{"ha":943,"x_min":44,"x_max":932,"o":"m 556 990 q 835 887 738 990 q 932 594 932 783 q 883 306 932 447 q 718 69 833 165 q 419 -26 603 -26 q 142 78 239 -26 q 44 371 44 183 q 94 659 44 518 q 258 895 143 800 q 556 990 372 990 m 538 806 q 397 728 449 806 q 324 548 344 651 q 304 351 304 444 q 338 205 304 250 q 439 160 371 160 q 580 236 528 160 q 651 416 632 313 q 671 615 671 519 q 638 761 671 717 q 538 806 606 806 m 501 1336 l 785 1156 l 722 1036 l 400 1153 l 501 1336 z "},"Ỏ":{"ha":943,"x_min":44,"x_max":932,"o":"m 556 990 q 835 887 738 990 q 932 594 932 783 q 883 306 932 447 q 718 69 833 165 q 419 -26 603 -26 q 142 78 239 -26 q 44 371 44 183 q 94 659 44 518 q 258 895 143 800 q 556 990 372 990 m 538 806 q 397 728 449 806 q 324 548 344 651 q 304 351 304 444 q 338 205 304 250 q 439 160 371 160 q 580 236 528 160 q 651 416 632 313 q 671 615 671 519 q 638 761 671 717 q 538 806 606 806 m 514 1188 q 621 1244 621 1192 q 572 1279 621 1279 q 489 1261 536 1279 l 463 1360 q 613 1396 531 1396 q 739 1358 696 1396 q 782 1258 782 1319 q 646 1117 782 1144 l 639 1061 l 500 1061 l 514 1188 z "},"Ơ":{"ha":983,"x_min":44,"x_max":1081,"o":"m 1081 990 q 1035 841 1081 897 q 904 769 990 785 q 932 594 932 693 q 883 306 932 447 q 718 69 833 165 q 419 -26 603 -26 q 142 78 239 -26 q 44 371 44 183 q 94 659 44 518 q 258 895 143 800 q 556 990 372 990 q 840 881 742 990 q 901 912 882 886 q 921 986 921 938 q 913 1054 921 1015 l 1068 1072 q 1081 990 1081 1038 m 439 160 q 580 236 528 160 q 651 416 632 313 q 671 615 671 519 q 638 761 671 717 q 538 806 606 806 q 397 728 449 806 q 324 548 344 651 q 304 351 304 444 q 338 205 304 250 q 439 160 371 160 z "},"Ớ":{"ha":983,"x_min":44,"x_max":1081,"o":"m 801 1154 l 450 1033 l 397 1156 l 725 1338 l 801 1154 m 1081 990 q 1035 841 1081 897 q 904 769 990 785 q 932 594 932 693 q 883 306 932 447 q 718 69 833 165 q 419 -26 603 -26 q 142 78 239 -26 q 44 371 44 183 q 94 659 44 518 q 258 895 143 800 q 556 990 372 990 q 840 881 742 990 q 901 912 882 886 q 921 986 921 938 q 913 1054 921 1015 l 1068 1072 q 1081 990 1081 1038 m 439 160 q 580 236 528 160 q 651 416 632 313 q 671 615 671 519 q 638 761 671 717 q 538 806 606 806 q 397 728 449 806 q 324 548 344 651 q 304 351 304 444 q 338 205 304 250 q 439 160 371 160 z "},"Ợ":{"ha":983,"x_min":44,"x_max":1081,"o":"m 1081 990 q 1035 841 1081 897 q 904 769 990 785 q 932 594 932 693 q 883 306 932 447 q 718 69 833 165 q 419 -26 603 -26 q 142 78 239 -26 q 44 371 44 183 q 94 659 44 518 q 258 895 143 800 q 556 990 372 990 q 840 881 742 990 q 901 912 882 886 q 921 986 921 938 q 913 1054 921 1015 l 1068 1072 q 1081 990 1081 1038 m 439 160 q 580 236 528 160 q 651 416 632 313 q 671 615 671 519 q 638 761 671 717 q 538 806 606 806 q 397 728 449 806 q 324 548 344 651 q 304 351 304 444 q 338 205 304 250 q 439 160 371 160 m 406 -78 q 497 -111 463 -78 q 531 -197 531 -144 q 485 -306 531 -262 q 374 -350 440 -350 q 283 -317 317 -350 q 249 -231 249 -283 q 294 -122 249 -165 q 406 -78 339 -78 z "},"Ờ":{"ha":983,"x_min":44,"x_max":1081,"o":"m 785 1156 l 722 1036 l 400 1153 l 501 1336 l 785 1156 m 1081 990 q 1035 841 1081 897 q 904 769 990 785 q 932 594 932 693 q 883 306 932 447 q 718 69 833 165 q 419 -26 603 -26 q 142 78 239 -26 q 44 371 44 183 q 94 659 44 518 q 258 895 143 800 q 556 990 372 990 q 840 881 742 990 q 901 912 882 886 q 921 986 921 938 q 913 1054 921 1015 l 1068 1072 q 1081 990 1081 1038 m 439 160 q 580 236 528 160 q 651 416 632 313 q 671 615 671 519 q 638 761 671 717 q 538 806 606 806 q 397 728 449 806 q 324 548 344 651 q 304 351 304 444 q 338 205 304 250 q 439 160 371 160 z "},"Ở":{"ha":983,"x_min":44,"x_max":1081,"o":"m 572 1279 q 489 1261 536 1279 l 463 1360 q 613 1396 531 1396 q 739 1358 696 1396 q 782 1258 782 1319 q 646 1117 782 1144 l 639 1061 l 500 1061 l 514 1188 q 621 1244 621 1192 q 572 1279 621 1279 m 1081 990 q 1035 841 1081 897 q 904 769 990 785 q 932 594 932 693 q 883 306 932 447 q 718 69 833 165 q 419 -26 603 -26 q 142 78 239 -26 q 44 371 44 183 q 94 659 44 518 q 258 895 143 800 q 556 990 372 990 q 840 881 742 990 q 901 912 882 886 q 921 986 921 938 q 913 1054 921 1015 l 1068 1072 q 1081 990 1081 1038 m 439 160 q 580 236 528 160 q 651 416 632 313 q 671 615 671 519 q 638 761 671 717 q 538 806 606 806 q 397 728 449 806 q 324 548 344 651 q 304 351 304 444 q 338 205 304 250 q 439 160 371 160 z "},"Ỡ":{"ha":983,"x_min":44,"x_max":1081,"o":"m 504 1108 q 461 1094 479 1108 q 421 1046 443 1079 l 311 1108 q 403 1234 350 1185 q 517 1283 457 1283 q 568 1274 547 1283 q 617 1246 589 1264 q 643 1228 632 1233 q 667 1222 654 1222 q 708 1237 689 1222 q 749 1283 726 1251 l 858 1222 q 766 1096 819 1144 q 654 1047 713 1047 q 608 1057 629 1047 q 561 1083 586 1067 q 529 1102 542 1096 q 504 1108 517 1108 m 1081 990 q 1035 841 1081 897 q 904 769 990 785 q 932 594 932 693 q 883 306 932 447 q 718 69 833 165 q 419 -26 603 -26 q 142 78 239 -26 q 44 371 44 183 q 94 659 44 518 q 258 895 143 800 q 556 990 372 990 q 840 881 742 990 q 901 912 882 886 q 921 986 921 938 q 913 1054 921 1015 l 1068 1072 q 1081 990 1081 1038 m 439 160 q 580 236 528 160 q 651 416 632 313 q 671 615 671 519 q 638 761 671 717 q 538 806 606 806 q 397 728 449 806 q 324 548 344 651 q 304 351 304 444 q 338 205 304 250 q 439 160 371 160 z "},"Ő":{"ha":943,"x_min":44,"x_max":932,"o":"m 556 990 q 835 887 738 990 q 932 594 932 783 q 883 306 932 447 q 718 69 833 165 q 419 -26 603 -26 q 142 78 239 -26 q 44 371 44 183 q 94 659 44 518 q 258 895 143 800 q 556 990 372 990 m 538 806 q 397 728 449 806 q 324 548 344 651 q 304 351 304 444 q 338 205 304 250 q 439 160 371 160 q 580 236 528 160 q 651 416 632 313 q 671 615 671 519 q 638 761 671 717 q 538 806 606 806 m 535 1382 l 683 1307 l 488 1046 l 369 1096 l 535 1382 m 785 1382 l 931 1301 l 724 1040 l 608 1099 l 785 1382 z "},"Ƣ":{"ha":1326,"x_min":44,"x_max":1303,"o":"m 1042 992 q 1235 933 1167 992 q 1303 765 1303 875 q 1299 710 1303 739 l 1158 -296 l 906 -296 l 1049 721 q 1051 749 1051 740 q 988 814 1051 814 q 940 808 961 814 q 893 792 919 803 q 932 594 932 706 q 883 306 932 447 q 718 69 833 165 q 419 -26 603 -26 q 142 78 239 -26 q 44 371 44 183 q 94 659 44 518 q 258 895 143 800 q 556 990 372 990 q 796 917 701 990 q 1042 992 903 992 m 439 160 q 580 236 528 160 q 651 416 632 313 q 671 615 671 519 q 638 761 671 717 q 538 806 606 806 q 397 728 449 806 q 324 548 344 651 q 304 351 304 444 q 338 205 304 250 q 439 160 371 160 z "},"Ȏ":{"ha":943,"x_min":44,"x_max":932,"o":"m 556 990 q 835 887 738 990 q 932 594 932 783 q 883 306 932 447 q 718 69 833 165 q 419 -26 603 -26 q 142 78 239 -26 q 44 371 44 183 q 94 659 44 518 q 258 895 143 800 q 556 990 372 990 m 538 806 q 397 728 449 806 q 324 548 344 651 q 304 351 304 444 q 338 205 304 250 q 439 160 371 160 q 580 236 528 160 q 651 416 632 313 q 671 615 671 519 q 638 761 671 717 q 538 806 606 806 m 325 1079 q 422 1261 349 1189 q 607 1333 496 1333 q 773 1260 718 1333 q 821 1076 828 1186 l 686 1057 q 658 1135 682 1107 q 589 1164 633 1164 q 454 1054 499 1164 l 325 1079 z "},"Ō":{"ha":943,"x_min":44,"x_max":932,"o":"m 556 990 q 835 887 738 990 q 932 594 932 783 q 883 306 932 447 q 718 69 833 165 q 419 -26 603 -26 q 142 78 239 -26 q 44 371 44 183 q 94 659 44 518 q 258 895 143 800 q 556 990 372 990 m 538 806 q 397 728 449 806 q 324 548 344 651 q 304 351 304 444 q 338 205 304 250 q 439 160 371 160 q 580 236 528 160 q 651 416 632 313 q 671 615 671 519 q 638 761 671 717 q 538 806 606 806 m 788 1081 l 357 1081 l 381 1250 l 811 1250 l 788 1081 z "},"Ṓ":{"ha":943,"x_min":44,"x_max":932,"o":"m 556 990 q 835 887 738 990 q 932 594 932 783 q 883 306 932 447 q 718 69 833 165 q 419 -26 603 -26 q 142 78 239 -26 q 44 371 44 183 q 94 659 44 518 q 258 895 143 800 q 556 990 372 990 m 538 806 q 397 728 449 806 q 324 548 344 651 q 304 351 304 444 q 338 205 304 250 q 439 160 371 160 q 580 236 528 160 q 651 416 632 313 q 671 615 671 519 q 638 761 671 717 q 538 806 606 806 m 792 1058 l 361 1058 l 385 1228 l 815 1228 l 792 1058 m 731 1558 l 807 1375 l 456 1254 l 403 1376 l 731 1558 z "},"Ṑ":{"ha":943,"x_min":44,"x_max":932,"o":"m 556 990 q 835 887 738 990 q 932 594 932 783 q 883 306 932 447 q 718 69 833 165 q 419 -26 603 -26 q 142 78 239 -26 q 44 371 44 183 q 94 659 44 518 q 258 895 143 800 q 556 990 372 990 m 538 806 q 397 728 449 806 q 324 548 344 651 q 304 351 304 444 q 338 205 304 250 q 439 160 371 160 q 580 236 528 160 q 651 416 632 313 q 671 615 671 519 q 638 761 671 717 q 538 806 606 806 m 786 1058 l 356 1058 l 379 1228 l 810 1228 l 786 1058 m 519 1557 l 803 1376 l 740 1257 l 418 1374 l 519 1557 z "},"Ꞷ":{"ha":1226,"x_min":54,"x_max":1192,"o":"m 331 -26 q 123 50 192 -26 q 54 288 54 126 q 106 630 54 456 q 249 965 158 804 l 482 965 q 354 611 401 779 q 307 283 307 443 q 324 188 307 217 q 378 160 340 160 q 476 275 461 160 l 517 554 l 765 554 l 725 271 q 721 226 721 246 q 735 176 721 193 q 779 160 749 160 q 903 312 865 160 q 940 640 940 464 q 931 792 940 724 q 900 965 921 861 l 1142 965 q 1178 808 1165 885 q 1192 636 1192 731 q 1100 158 1192 343 q 800 -26 1008 -26 q 582 150 608 -26 q 480 17 546 60 q 331 -26 414 -26 z "},"Ǫ":{"ha":943,"x_min":44,"x_max":932,"o":"m 564 -8 q 404 -153 404 -68 q 464 -199 404 -199 q 551 -187 500 -199 l 518 -336 q 419 -347 469 -347 q 281 -307 335 -347 q 228 -197 228 -267 q 329 -18 228 -92 q 118 108 192 7 q 44 371 44 208 q 94 659 44 518 q 258 895 143 800 q 556 990 372 990 q 835 887 738 990 q 932 594 932 783 q 896 346 932 469 q 777 125 860 222 q 564 -8 694 28 m 538 806 q 397 728 449 806 q 324 548 344 651 q 304 351 304 444 q 338 205 304 250 q 439 160 371 160 q 580 236 528 160 q 651 416 632 313 q 671 615 671 519 q 638 761 671 717 q 538 806 606 806 z "},"Ǭ":{"ha":943,"x_min":44,"x_max":932,"o":"m 811 1250 l 788 1081 l 357 1081 l 381 1250 l 811 1250 m 564 -8 q 404 -153 404 -68 q 464 -199 404 -199 q 551 -187 500 -199 l 518 -336 q 419 -347 469 -347 q 281 -307 335 -347 q 228 -197 228 -267 q 329 -18 228 -92 q 118 108 192 7 q 44 371 44 208 q 94 659 44 518 q 258 895 143 800 q 556 990 372 990 q 835 887 738 990 q 932 594 932 783 q 896 346 932 469 q 777 125 860 222 q 564 -8 694 28 m 538 806 q 397 728 449 806 q 324 548 344 651 q 304 351 304 444 q 338 205 304 250 q 439 160 371 160 q 580 236 528 160 q 651 416 632 313 q 671 615 671 519 q 638 761 671 717 q 538 806 606 806 z "},"Ɔ":{"ha":789,"x_min":-35,"x_max":775,"o":"m 407 990 q 676 885 578 990 q 775 589 775 779 q 713 279 775 419 q 535 56 651 139 q 260 -26 418 -26 q 90 10 164 -26 q -35 106 17 47 l 93 247 q 176 190 136 210 q 268 171 217 171 q 407 233 351 171 q 488 391 463 294 q 514 594 514 488 q 372 803 514 803 q 279 785 324 803 q 188 733 235 768 l 83 882 q 232 963 154 936 q 407 990 310 990 z "},"Ø":{"ha":943,"x_min":44,"x_max":932,"o":"m 790 925 q 896 792 860 875 q 932 594 932 708 q 883 306 932 447 q 718 69 833 165 q 419 -26 603 -26 q 357 -22 386 -26 l 283 -190 l 101 -139 l 183 42 q 80 175 115 92 q 44 371 44 258 q 94 659 44 518 q 258 895 143 800 q 556 990 372 990 q 617 988 578 990 l 692 1153 l 872 1103 l 790 925 m 538 806 q 395 728 449 806 q 320 544 342 650 q 299 344 299 439 q 313 228 299 272 l 564 804 q 538 806 556 806 m 439 160 q 581 237 528 160 q 654 419 633 314 q 675 624 675 525 q 663 735 675 696 l 413 160 l 439 160 z "},"Ǿ":{"ha":943,"x_min":44,"x_max":932,"o":"m 790 925 q 896 792 860 875 q 932 594 932 708 q 883 306 932 447 q 718 69 833 165 q 419 -26 603 -26 q 357 -22 386 -26 l 283 -190 l 101 -139 l 183 42 q 80 175 115 92 q 44 371 44 258 q 94 659 44 518 q 258 895 143 800 q 556 990 372 990 q 617 988 578 990 l 692 1153 l 872 1103 l 790 925 m 538 806 q 395 728 449 806 q 320 544 342 650 q 299 344 299 439 q 313 228 299 272 l 564 804 q 538 806 556 806 m 439 160 q 581 237 528 160 q 654 419 633 314 q 675 624 675 525 q 663 735 675 696 l 413 160 l 439 160 m 731 1392 l 807 1208 l 456 1088 l 403 1210 l 731 1392 z "},"Õ":{"ha":943,"x_min":44,"x_max":932,"o":"m 556 990 q 835 887 738 990 q 932 594 932 783 q 883 306 932 447 q 718 69 833 165 q 419 -26 603 -26 q 142 78 239 -26 q 44 371 44 183 q 94 659 44 518 q 258 895 143 800 q 556 990 372 990 m 538 806 q 397 728 449 806 q 324 548 344 651 q 304 351 304 444 q 338 205 304 250 q 439 160 371 160 q 580 236 528 160 q 651 416 632 313 q 671 615 671 519 q 638 761 671 717 q 538 806 606 806 m 654 1047 q 608 1057 629 1047 q 561 1083 586 1067 q 529 1102 542 1096 q 504 1108 517 1108 q 461 1094 479 1108 q 421 1046 443 1079 l 311 1108 q 403 1234 350 1185 q 517 1283 457 1283 q 568 1274 547 1283 q 617 1246 589 1264 q 643 1228 632 1233 q 667 1222 654 1222 q 708 1237 689 1222 q 749 1283 726 1251 l 858 1222 q 766 1096 819 1144 q 654 1047 713 1047 z "},"Ṍ":{"ha":943,"x_min":44,"x_max":932,"o":"m 556 990 q 835 887 738 990 q 932 594 932 783 q 883 306 932 447 q 718 69 833 165 q 419 -26 603 -26 q 142 78 239 -26 q 44 371 44 183 q 94 659 44 518 q 258 895 143 800 q 556 990 372 990 m 538 806 q 397 728 449 806 q 324 548 344 651 q 304 351 304 444 q 338 205 304 250 q 439 160 371 160 q 580 236 528 160 q 651 416 632 313 q 671 615 671 519 q 638 761 671 717 q 538 806 606 806 m 646 1047 q 599 1057 621 1047 q 553 1083 578 1067 q 521 1102 533 1096 q 496 1108 508 1108 q 453 1094 471 1108 q 413 1046 435 1079 l 303 1108 q 395 1234 342 1185 q 508 1283 449 1283 q 560 1274 539 1283 q 608 1246 581 1264 q 635 1228 624 1233 q 658 1222 646 1222 q 699 1237 681 1222 q 740 1283 718 1251 l 850 1222 q 758 1096 811 1144 q 646 1047 704 1047 m 719 1601 l 796 1418 l 444 1297 l 392 1419 l 719 1601 z "},"Ȭ":{"ha":943,"x_min":44,"x_max":932,"o":"m 806 1324 l 375 1324 l 399 1493 l 829 1493 l 806 1324 m 646 1047 q 599 1057 621 1047 q 553 1083 578 1067 q 521 1102 533 1096 q 496 1108 508 1108 q 453 1094 471 1108 q 413 1046 435 1079 l 303 1108 q 395 1234 342 1185 q 508 1283 449 1283 q 560 1274 539 1283 q 608 1246 581 1264 q 635 1228 624 1233 q 658 1222 646 1222 q 699 1237 681 1222 q 740 1283 718 1251 l 850 1222 q 758 1096 811 1144 q 646 1047 704 1047 m 556 990 q 835 887 738 990 q 932 594 932 783 q 883 306 932 447 q 718 69 833 165 q 419 -26 603 -26 q 142 78 239 -26 q 44 371 44 183 q 94 659 44 518 q 258 895 143 800 q 556 990 372 990 m 538 806 q 397 728 449 806 q 324 548 344 651 q 304 351 304 444 q 338 205 304 250 q 439 160 371 160 q 580 236 528 160 q 651 416 632 313 q 671 615 671 519 q 638 761 671 717 q 538 806 606 806 z "},"Œ":{"ha":1236,"x_min":44,"x_max":1283,"o":"m 853 783 q 897 579 894 699 l 1163 579 l 1139 401 l 881 401 q 776 182 851 271 l 1171 182 l 1146 0 l 540 0 q 396 -26 474 -26 q 137 78 229 -26 q 44 369 44 182 q 94 655 44 513 q 252 894 143 797 q 532 990 361 990 q 671 965 610 990 l 1283 965 l 1232 783 l 853 783 m 304 342 q 334 203 304 246 q 424 160 364 160 q 591 300 540 160 q 642 628 642 440 q 611 763 642 721 q 521 806 581 806 q 353 667 403 806 q 304 342 304 528 z "},"P":{"ha":826,"x_min":22,"x_max":846,"o":"m 482 965 q 750 895 654 965 q 846 690 846 825 q 802 510 846 596 q 663 367 758 424 q 418 311 567 311 l 318 311 l 275 0 l 22 0 l 157 965 l 482 965 m 417 494 q 547 550 508 494 q 585 676 585 606 q 553 757 585 731 q 456 783 521 783 l 385 783 l 344 494 l 417 494 z "},"Ṕ":{"ha":826,"x_min":22,"x_max":846,"o":"m 482 965 q 750 895 654 965 q 846 690 846 825 q 802 510 846 596 q 663 367 758 424 q 418 311 567 311 l 318 311 l 275 0 l 22 0 l 157 965 l 482 965 m 417 494 q 547 550 508 494 q 585 676 585 606 q 553 757 585 731 q 456 783 521 783 l 385 783 l 344 494 l 417 494 m 667 1338 l 743 1154 l 392 1033 l 339 1156 l 667 1338 z "},"Ṗ":{"ha":826,"x_min":22,"x_max":846,"o":"m 482 965 q 750 895 654 965 q 846 690 846 825 q 802 510 846 596 q 663 367 758 424 q 418 311 567 311 l 318 311 l 275 0 l 22 0 l 157 965 l 482 965 m 417 494 q 547 550 508 494 q 585 676 585 606 q 553 757 585 731 q 456 783 521 783 l 385 783 l 344 494 l 417 494 m 515 1042 q 424 1075 458 1042 q 390 1161 390 1108 q 435 1270 390 1226 q 547 1314 481 1314 q 638 1281 604 1314 q 672 1194 672 1247 q 627 1085 672 1129 q 515 1042 582 1042 z "},"Ƥ":{"ha":1046,"x_min":54,"x_max":1065,"o":"m 701 965 q 969 895 874 965 q 1065 690 1065 825 q 1022 510 1065 596 q 882 367 978 424 q 638 311 786 311 l 538 311 l 494 0 l 242 0 l 351 783 l 315 783 q 264 765 282 783 q 246 710 246 746 q 250 667 246 688 q 256 640 254 646 l 89 576 q 54 715 54 649 q 131 898 54 831 q 333 965 207 965 l 701 965 m 636 494 q 766 550 728 494 q 804 676 804 606 q 772 757 804 731 q 675 783 740 783 l 604 783 l 564 494 l 636 494 z "},"Þ":{"ha":826,"x_min":22,"x_max":825,"o":"m 460 818 q 730 747 635 818 q 825 536 825 676 q 785 358 825 444 q 648 212 744 271 q 396 153 551 153 l 296 153 l 275 0 l 22 0 l 157 965 l 410 965 l 389 818 l 460 818 m 394 336 q 525 396 486 336 q 564 529 564 456 q 435 638 564 638 l 364 638 l 322 336 l 394 336 z "},"Q":{"ha":943,"x_min":44,"x_max":932,"o":"m 932 594 q 867 281 932 429 q 658 61 803 133 q 819 35 757 57 q 932 -29 881 14 l 757 -226 q 617 -80 694 -133 q 419 -26 540 -26 q 142 78 239 -26 q 44 371 44 183 q 94 659 44 518 q 258 895 143 800 q 556 990 372 990 q 835 887 738 990 q 932 594 932 783 m 304 344 q 338 203 304 247 q 439 160 371 160 q 580 237 528 160 q 651 419 632 314 q 671 624 671 524 q 638 763 671 719 q 538 806 606 806 q 397 728 449 806 q 324 546 344 651 q 304 344 304 440 z "},"Ɋ":{"ha":926,"x_min":42,"x_max":1007,"o":"m 1007 -253 q 797 -311 921 -311 q 605 -253 675 -311 q 535 -83 535 -194 q 539 -31 535 -58 l 543 0 l 550 51 q 347 -26 468 -26 q 124 76 206 -26 q 42 356 42 179 q 97 665 42 519 q 253 901 151 811 q 490 990 356 990 q 603 968 557 990 q 689 907 650 946 l 706 965 l 931 965 l 796 0 l 797 0 l 790 -51 q 789 -72 789 -60 q 846 -128 789 -128 q 895 -122 874 -128 q 944 -101 917 -115 l 1007 -253 m 431 154 q 572 213 510 154 l 649 750 q 596 791 625 776 q 526 806 567 806 q 401 736 451 806 q 326 561 350 667 q 301 344 301 456 q 335 198 301 242 q 431 154 368 154 z "},"R":{"ha":847,"x_min":22,"x_max":847,"o":"m 847 704 q 802 529 847 604 q 635 397 757 454 l 811 0 l 536 0 l 400 356 l 325 356 l 275 0 l 22 0 l 157 965 l 488 965 q 755 895 663 965 q 847 704 847 825 m 349 531 l 435 531 q 550 577 514 531 q 586 689 586 624 q 554 763 586 739 q 457 786 522 786 l 385 786 l 349 531 z "},"Ŕ":{"ha":847,"x_min":22,"x_max":847,"o":"m 847 704 q 802 529 847 604 q 635 397 757 454 l 811 0 l 536 0 l 400 356 l 325 356 l 275 0 l 22 0 l 157 965 l 488 965 q 755 895 663 965 q 847 704 847 825 m 349 531 l 435 531 q 550 577 514 531 q 586 689 586 624 q 554 763 586 739 q 457 786 522 786 l 385 786 l 349 531 m 676 1338 l 753 1154 l 401 1033 l 349 1156 l 676 1338 z "},"Ř":{"ha":847,"x_min":22,"x_max":847,"o":"m 847 704 q 802 529 847 604 q 635 397 757 454 l 811 0 l 536 0 l 400 356 l 325 356 l 275 0 l 22 0 l 157 965 l 488 965 q 755 895 663 965 q 847 704 847 825 m 349 531 l 435 531 q 550 577 514 531 q 586 689 586 624 q 554 763 586 739 q 457 786 522 786 l 385 786 l 349 531 m 736 1325 l 811 1228 l 592 1039 l 444 1039 l 274 1228 l 369 1325 l 536 1207 l 736 1325 z "},"Ŗ":{"ha":847,"x_min":22,"x_max":847,"o":"m 847 704 q 802 529 847 604 q 635 397 757 454 l 811 0 l 536 0 l 400 356 l 325 356 l 275 0 l 22 0 l 157 965 l 488 965 q 755 895 663 965 q 847 704 847 825 m 349 531 l 435 531 q 550 577 514 531 q 586 689 586 624 q 554 763 586 739 q 457 786 522 786 l 385 786 l 349 531 m 364 -90 q 443 -119 413 -90 q 474 -194 474 -149 q 461 -257 474 -228 q 419 -331 449 -286 l 336 -464 l 218 -464 l 279 -301 q 239 -222 239 -272 q 275 -127 239 -164 q 364 -90 311 -90 z "},"Ȑ":{"ha":847,"x_min":22,"x_max":847,"o":"m 847 704 q 802 529 847 604 q 635 397 757 454 l 811 0 l 536 0 l 400 356 l 325 356 l 275 0 l 22 0 l 157 965 l 488 965 q 755 895 663 965 q 847 704 847 825 m 349 531 l 435 531 q 550 577 514 531 q 586 689 586 624 q 554 763 586 739 q 457 786 522 786 l 385 786 l 349 531 m 381 1382 l 479 1099 l 349 1040 l 213 1301 l 381 1382 m 629 1382 l 715 1096 l 586 1046 l 461 1307 l 629 1382 z "},"Ṛ":{"ha":847,"x_min":22,"x_max":847,"o":"m 847 704 q 802 529 847 604 q 635 397 757 454 l 811 0 l 536 0 l 400 356 l 325 356 l 275 0 l 22 0 l 157 965 l 488 965 q 755 895 663 965 q 847 704 847 825 m 349 531 l 435 531 q 550 577 514 531 q 586 689 586 624 q 554 763 586 739 q 457 786 522 786 l 385 786 l 349 531 m 360 -78 q 451 -111 417 -78 q 485 -197 485 -144 q 440 -306 485 -262 q 328 -350 394 -350 q 237 -317 271 -350 q 203 -231 203 -283 q 248 -122 203 -165 q 360 -78 293 -78 z "},"Ȓ":{"ha":847,"x_min":22,"x_max":847,"o":"m 847 704 q 802 529 847 604 q 635 397 757 454 l 811 0 l 536 0 l 400 356 l 325 356 l 275 0 l 22 0 l 157 965 l 488 965 q 755 895 663 965 q 847 704 847 825 m 349 531 l 435 531 q 550 577 514 531 q 586 689 586 624 q 554 763 586 739 q 457 786 522 786 l 385 786 l 349 531 m 276 1079 q 374 1261 300 1189 q 558 1333 447 1333 q 724 1260 669 1333 q 772 1076 779 1186 l 638 1057 q 609 1135 633 1107 q 540 1164 585 1164 q 406 1054 450 1164 l 276 1079 z "},"Ɍ":{"ha":861,"x_min":8,"x_max":863,"o":"m 863 704 q 817 529 863 604 q 650 397 772 454 l 826 0 l 551 0 l 415 356 l 340 356 l 290 0 l 38 0 l 88 356 l 8 356 l 33 531 l 111 531 l 172 965 l 503 965 q 770 895 678 965 q 863 704 863 825 m 400 786 l 364 531 l 450 531 q 565 577 529 531 q 601 689 601 624 q 569 763 601 739 q 472 786 538 786 l 400 786 z "},"Ɽ":{"ha":847,"x_min":14,"x_max":847,"o":"m 847 704 q 802 529 847 604 q 635 397 757 454 l 811 0 l 536 0 l 400 356 l 325 356 l 275 0 l 276 0 l 269 -51 q 268 -72 268 -60 q 325 -128 268 -128 q 374 -122 353 -128 q 424 -101 396 -115 l 486 -253 q 276 -311 400 -311 q 84 -253 154 -311 q 14 -83 14 -194 q 18 -31 14 -58 l 22 0 l 157 965 l 488 965 q 755 895 663 965 q 847 704 847 825 m 349 531 l 435 531 q 550 577 514 531 q 586 689 586 624 q 554 763 586 739 q 457 786 522 786 l 385 786 l 349 531 z "},"S":{"ha":790,"x_min":-29,"x_max":808,"o":"m 475 990 q 808 861 679 990 l 678 728 q 586 787 633 768 q 483 806 539 806 q 389 781 424 806 q 354 713 354 756 q 386 653 354 675 q 510 600 418 631 q 695 493 635 558 q 756 324 756 428 q 713 155 756 235 q 576 24 671 75 q 333 -26 482 -26 q -29 118 113 -26 l 115 263 q 339 168 207 168 q 449 197 410 168 q 489 279 489 226 q 457 349 489 321 q 344 406 425 378 q 147 518 207 451 q 88 681 88 585 q 130 832 88 761 q 260 947 172 903 q 475 990 347 990 z "},"Ś":{"ha":790,"x_min":-29,"x_max":808,"o":"m 475 990 q 808 861 679 990 l 678 728 q 586 787 633 768 q 483 806 539 806 q 389 781 424 806 q 354 713 354 756 q 386 653 354 675 q 510 600 418 631 q 695 493 635 558 q 756 324 756 428 q 713 155 756 235 q 576 24 671 75 q 333 -26 482 -26 q -29 118 113 -26 l 115 263 q 339 168 207 168 q 449 197 410 168 q 489 279 489 226 q 457 349 489 321 q 344 406 425 378 q 147 518 207 451 q 88 681 88 585 q 130 832 88 761 q 260 947 172 903 q 475 990 347 990 m 664 1338 l 740 1154 l 389 1033 l 336 1156 l 664 1338 z "},"Ꞌ":{"ha":340,"x_min":97,"x_max":368,"o":"m 97 458 l 139 965 l 368 965 l 267 458 l 97 458 z "},"Š":{"ha":790,"x_min":-29,"x_max":808,"o":"m 475 990 q 808 861 679 990 l 678 728 q 586 787 633 768 q 483 806 539 806 q 389 781 424 806 q 354 713 354 756 q 386 653 354 675 q 510 600 418 631 q 695 493 635 558 q 756 324 756 428 q 713 155 756 235 q 576 24 671 75 q 333 -26 482 -26 q -29 118 113 -26 l 115 263 q 339 168 207 168 q 449 197 410 168 q 489 279 489 226 q 457 349 489 321 q 344 406 425 378 q 147 518 207 451 q 88 681 88 585 q 130 832 88 761 q 260 947 172 903 q 475 990 347 990 m 724 1325 l 799 1228 l 579 1039 l 432 1039 l 261 1228 l 357 1325 l 524 1207 l 724 1325 z "},"Ş":{"ha":790,"x_min":-29,"x_max":808,"o":"m 510 600 q 695 493 635 558 q 756 324 756 428 q 721 169 756 243 q 608 43 686 96 q 410 -22 531 -10 l 403 -62 q 500 -105 467 -71 q 533 -193 533 -139 q 510 -276 533 -235 q 433 -346 486 -318 q 299 -374 381 -374 q 140 -326 206 -374 l 208 -219 q 292 -242 249 -242 q 361 -200 361 -242 q 333 -169 361 -178 q 240 -161 306 -161 l 275 -24 q -29 118 92 -6 l 115 263 q 339 168 207 168 q 449 197 410 168 q 489 279 489 226 q 457 349 489 321 q 344 406 425 378 q 147 518 207 451 q 88 681 88 585 q 130 832 88 761 q 260 947 172 903 q 475 990 347 990 q 808 861 679 990 l 678 728 q 586 787 633 768 q 483 806 539 806 q 389 781 424 806 q 354 713 354 756 q 386 653 354 675 q 510 600 418 631 z "},"Ŝ":{"ha":790,"x_min":-29,"x_max":808,"o":"m 475 990 q 808 861 679 990 l 678 728 q 586 787 633 768 q 483 806 539 806 q 389 781 424 806 q 354 713 354 756 q 386 653 354 675 q 510 600 418 631 q 695 493 635 558 q 756 324 756 428 q 713 155 756 235 q 576 24 671 75 q 333 -26 482 -26 q -29 118 113 -26 l 115 263 q 339 168 207 168 q 449 197 410 168 q 489 279 489 226 q 457 349 489 321 q 344 406 425 378 q 147 518 207 451 q 88 681 88 585 q 130 832 88 761 q 260 947 172 903 q 475 990 347 990 m 317 1046 l 240 1144 l 463 1333 l 610 1333 l 778 1144 l 685 1046 l 517 1165 l 317 1046 z "},"Ș":{"ha":790,"x_min":-29,"x_max":808,"o":"m 475 990 q 808 861 679 990 l 678 728 q 586 787 633 768 q 483 806 539 806 q 389 781 424 806 q 354 713 354 756 q 386 653 354 675 q 510 600 418 631 q 695 493 635 558 q 756 324 756 428 q 713 155 756 235 q 576 24 671 75 q 333 -26 482 -26 q -29 118 113 -26 l 115 263 q 339 168 207 168 q 449 197 410 168 q 489 279 489 226 q 457 349 489 321 q 344 406 425 378 q 147 518 207 451 q 88 681 88 585 q 130 832 88 761 q 260 947 172 903 q 475 990 347 990 m 331 -90 q 410 -119 379 -90 q 440 -194 440 -149 q 428 -257 440 -228 q 386 -331 415 -286 l 303 -464 l 185 -464 l 246 -301 q 206 -222 206 -272 q 242 -127 206 -164 q 331 -90 278 -90 z "},"Ṡ":{"ha":790,"x_min":-29,"x_max":808,"o":"m 475 990 q 808 861 679 990 l 678 728 q 586 787 633 768 q 483 806 539 806 q 389 781 424 806 q 354 713 354 756 q 386 653 354 675 q 510 600 418 631 q 695 493 635 558 q 756 324 756 428 q 713 155 756 235 q 576 24 671 75 q 333 -26 482 -26 q -29 118 113 -26 l 115 263 q 339 168 207 168 q 449 197 410 168 q 489 279 489 226 q 457 349 489 321 q 344 406 425 378 q 147 518 207 451 q 88 681 88 585 q 130 832 88 761 q 260 947 172 903 q 475 990 347 990 m 513 1042 q 422 1075 456 1042 q 388 1161 388 1108 q 433 1270 388 1226 q 544 1314 478 1314 q 635 1281 601 1314 q 669 1194 669 1247 q 624 1085 669 1129 q 513 1042 579 1042 z "},"Ṣ":{"ha":790,"x_min":-29,"x_max":808,"o":"m 475 990 q 808 861 679 990 l 678 728 q 586 787 633 768 q 483 806 539 806 q 389 781 424 806 q 354 713 354 756 q 386 653 354 675 q 510 600 418 631 q 695 493 635 558 q 756 324 756 428 q 713 155 756 235 q 576 24 671 75 q 333 -26 482 -26 q -29 118 113 -26 l 115 263 q 339 168 207 168 q 449 197 410 168 q 489 279 489 226 q 457 349 489 321 q 344 406 425 378 q 147 518 207 451 q 88 681 88 585 q 130 832 88 761 q 260 947 172 903 q 475 990 347 990 m 326 -78 q 417 -111 383 -78 q 451 -197 451 -144 q 406 -306 451 -262 q 294 -350 361 -350 q 203 -317 238 -350 q 169 -231 169 -283 q 215 -122 169 -165 q 326 -78 260 -78 z "},"ẞ":{"ha":917,"x_min":22,"x_max":903,"o":"m 503 990 q 714 960 619 990 q 903 879 808 931 l 889 774 l 671 549 q 882 317 882 503 q 832 138 882 215 q 696 17 782 60 q 504 -26 610 -26 q 324 14 397 -26 l 415 179 q 490 165 444 165 q 583 206 549 165 q 617 307 617 246 q 574 396 617 365 q 432 432 531 426 l 449 557 l 657 781 q 503 806 572 806 q 413 775 444 806 q 371 678 381 744 l 275 0 l 22 0 l 117 674 q 235 908 138 825 q 503 990 333 990 z "},"Ə":{"ha":871,"x_min":28,"x_max":858,"o":"m 493 990 q 762 892 665 990 q 858 608 858 794 q 805 283 858 426 q 644 57 751 140 q 381 -26 536 -26 q 117 72 207 -26 q 28 347 28 171 q 58 572 28 461 l 606 571 q 608 631 608 615 q 571 764 608 722 q 460 806 533 806 q 345 783 396 806 q 243 724 294 761 l 144 868 q 309 960 225 931 q 493 990 393 990 m 388 160 q 510 215 461 160 q 582 397 560 271 l 269 396 q 264 317 264 357 q 295 197 264 233 q 388 160 326 160 z "},"T":{"ha":744,"x_min":65,"x_max":833,"o":"m 833 965 l 779 769 l 556 769 l 447 0 l 194 0 l 303 769 l 65 769 l 92 965 l 833 965 z "},"Ŧ":{"ha":744,"x_min":65,"x_max":833,"o":"m 779 769 l 556 769 l 524 543 l 675 543 l 657 404 l 504 404 l 447 0 l 194 0 l 251 404 l 100 404 l 118 543 l 271 543 l 303 769 l 65 769 l 92 965 l 833 965 l 779 769 z "},"Ť":{"ha":744,"x_min":65,"x_max":833,"o":"m 833 965 l 779 769 l 556 769 l 447 0 l 194 0 l 303 769 l 65 769 l 92 965 l 833 965 m 686 1325 l 761 1228 l 542 1039 l 394 1039 l 224 1228 l 319 1325 l 486 1207 l 686 1325 z "},"Ţ":{"ha":744,"x_min":65,"x_max":833,"o":"m 447 0 l 438 -62 q 533 -104 500 -71 q 565 -193 565 -137 q 542 -275 565 -233 q 466 -345 518 -317 q 331 -374 414 -374 q 172 -326 238 -374 l 240 -219 q 322 -242 281 -242 q 393 -200 393 -242 q 366 -169 393 -178 q 272 -161 339 -161 l 313 0 l 194 0 l 303 769 l 65 769 l 92 965 l 833 965 l 779 769 l 556 769 l 447 0 z "},"Ṱ":{"ha":744,"x_min":7,"x_max":833,"o":"m 833 965 l 779 769 l 556 769 l 447 0 l 194 0 l 303 769 l 65 769 l 92 965 l 833 965 m 82 -385 l 7 -285 l 229 -85 l 376 -85 l 544 -285 l 447 -385 l 283 -254 l 82 -385 z "},"Ț":{"ha":744,"x_min":65,"x_max":833,"o":"m 833 965 l 779 769 l 556 769 l 447 0 l 194 0 l 303 769 l 65 769 l 92 965 l 833 965 m 310 -90 q 389 -119 358 -90 q 419 -194 419 -149 q 407 -257 419 -228 q 365 -331 394 -286 l 282 -464 l 164 -464 l 225 -301 q 185 -222 185 -272 q 221 -127 185 -164 q 310 -90 257 -90 z "},"Ⱦ":{"ha":744,"x_min":67,"x_max":833,"o":"m 782 781 l 664 781 l 500 492 l 431 0 l 221 0 l 161 -106 l 96 -72 l 236 174 l 322 781 l 67 781 l 92 965 l 686 965 l 735 1051 l 799 1019 l 768 965 l 833 965 l 782 781 m 526 686 l 581 781 l 540 781 l 526 686 z "},"Ṫ":{"ha":744,"x_min":65,"x_max":833,"o":"m 833 965 l 779 769 l 556 769 l 447 0 l 194 0 l 303 769 l 65 769 l 92 965 l 833 965 m 475 1042 q 384 1075 418 1042 q 350 1161 350 1108 q 395 1270 350 1226 q 507 1314 440 1314 q 598 1281 564 1314 q 632 1194 632 1247 q 587 1085 632 1129 q 475 1042 542 1042 z "},"Ṭ":{"ha":744,"x_min":65,"x_max":833,"o":"m 833 965 l 779 769 l 556 769 l 447 0 l 194 0 l 303 769 l 65 769 l 92 965 l 833 965 m 306 -78 q 397 -111 363 -78 q 431 -197 431 -144 q 385 -306 431 -262 q 274 -350 340 -350 q 183 -317 217 -350 q 149 -231 149 -283 q 194 -122 149 -165 q 306 -78 239 -78 z "},"Ƭ":{"ha":828,"x_min":54,"x_max":917,"o":"m 863 769 l 639 769 l 531 0 l 278 0 l 386 769 l 308 769 q 262 753 278 769 q 246 706 246 736 q 256 640 246 689 l 89 576 q 54 715 54 649 q 128 898 54 831 q 318 965 201 965 l 917 965 l 863 769 z "},"Ṯ":{"ha":744,"x_min":65,"x_max":833,"o":"m 833 965 l 779 769 l 556 769 l 447 0 l 194 0 l 303 769 l 65 769 l 92 965 l 833 965 m 101 -104 l 532 -104 l 508 -274 l 78 -274 l 101 -104 z "},"Ƽ":{"ha":751,"x_min":-25,"x_max":749,"o":"m 281 -26 q 100 15 176 -26 q -25 124 24 56 l 124 243 q 196 181 153 203 q 292 158 239 158 q 420 219 381 158 q 460 361 460 279 q 434 445 460 418 q 364 472 408 472 q 308 464 335 472 q 244 436 281 456 l 81 439 l 154 965 l 749 965 l 699 790 l 364 790 l 338 608 q 479 639 408 639 q 647 569 583 639 q 711 378 711 500 q 669 190 711 282 q 530 35 626 97 q 281 -26 433 -26 z "},"Ƅ":{"ha":843,"x_min":43,"x_max":826,"o":"m 482 643 q 737 574 647 643 q 826 375 826 506 q 783 194 826 279 q 644 55 739 110 q 403 0 549 0 l 46 0 l 140 668 l 43 743 q 225 965 142 829 l 435 965 l 389 643 l 482 643 m 399 183 q 523 236 486 183 q 560 356 560 289 q 529 439 560 410 q 436 468 499 468 l 365 468 l 325 183 l 399 183 z "},"Ƨ":{"ha":778,"x_min":11,"x_max":799,"o":"m 489 990 q 715 924 631 990 q 799 744 799 857 q 713 536 799 613 q 458 407 628 460 q 313 341 356 378 q 271 253 271 304 q 299 189 271 213 q 383 165 326 165 q 625 258 501 165 l 735 114 q 564 13 663 51 q 346 -26 465 -26 q 166 8 242 -26 q 51 102 90 42 q 11 243 11 163 q 92 461 11 381 q 332 593 172 542 q 458 636 414 617 q 520 679 501 656 q 539 736 539 703 q 444 806 539 806 q 329 785 383 806 q 219 725 275 765 l 122 864 q 489 990 278 990 z "},"Ʈ":{"ha":744,"x_min":65,"x_max":833,"o":"m 556 769 l 447 0 l 449 0 l 442 -51 q 440 -72 440 -60 q 497 -128 440 -128 q 547 -122 525 -128 q 596 -101 568 -115 l 658 -253 q 449 -311 572 -311 q 256 -253 326 -311 q 186 -83 186 -194 q 190 -31 186 -58 l 194 0 l 303 769 l 65 769 l 92 965 l 833 965 l 779 769 l 556 769 z "},"U":{"ha":883,"x_min":50,"x_max":907,"o":"m 818 322 q 751 143 804 222 q 606 19 697 64 q 390 -26 514 -26 q 135 51 221 -26 q 50 261 50 128 q 54 326 50 293 l 143 965 l 396 965 l 307 331 q 303 275 303 300 q 328 190 303 217 q 408 163 354 163 q 515 205 478 163 q 565 335 553 247 l 654 965 l 907 965 l 818 322 z "},"Ú":{"ha":883,"x_min":50,"x_max":907,"o":"m 818 322 q 751 143 804 222 q 606 19 697 64 q 390 -26 514 -26 q 135 51 221 -26 q 50 261 50 128 q 54 326 50 293 l 143 965 l 396 965 l 307 331 q 303 275 303 300 q 328 190 303 217 q 408 163 354 163 q 515 205 478 163 q 565 335 553 247 l 654 965 l 907 965 l 818 322 m 694 1338 l 771 1154 l 419 1033 l 367 1156 l 694 1338 z "},"Ʉ":{"ha":942,"x_min":60,"x_max":988,"o":"m 969 690 l 896 690 l 844 322 q 777 143 831 222 q 632 19 724 64 q 417 -26 540 -26 q 162 51 247 -26 q 76 261 76 128 q 81 326 76 293 l 131 690 l 60 690 l 78 829 l 150 829 l 169 965 l 422 965 l 403 829 l 661 829 l 681 965 l 933 965 l 914 829 l 988 829 l 969 690 m 642 690 l 383 690 l 333 331 q 329 275 329 300 q 355 190 329 217 q 435 163 381 163 q 542 205 504 163 q 592 335 579 247 l 642 690 z "},"Ŭ":{"ha":883,"x_min":50,"x_max":907,"o":"m 818 322 q 751 143 804 222 q 606 19 697 64 q 390 -26 514 -26 q 135 51 221 -26 q 50 261 50 128 q 54 326 50 293 l 143 965 l 396 965 l 307 331 q 303 275 303 300 q 328 190 303 217 q 408 163 354 163 q 515 205 478 163 q 565 335 553 247 l 654 965 l 907 965 l 818 322 m 539 1039 q 416 1073 465 1039 q 345 1163 367 1107 q 328 1283 324 1219 l 456 1303 q 486 1235 461 1261 q 554 1208 511 1208 q 631 1235 599 1208 q 682 1306 664 1263 l 814 1279 q 719 1109 792 1179 q 539 1039 647 1039 z "},"Ǔ":{"ha":883,"x_min":50,"x_max":907,"o":"m 818 322 q 751 143 804 222 q 606 19 697 64 q 390 -26 514 -26 q 135 51 221 -26 q 50 261 50 128 q 54 326 50 293 l 143 965 l 396 965 l 307 331 q 303 275 303 300 q 328 190 303 217 q 408 163 354 163 q 515 205 478 163 q 565 335 553 247 l 654 965 l 907 965 l 818 322 m 754 1325 l 829 1228 l 610 1039 l 463 1039 l 292 1228 l 388 1325 l 554 1207 l 754 1325 z "},"Û":{"ha":883,"x_min":50,"x_max":907,"o":"m 818 322 q 751 143 804 222 q 606 19 697 64 q 390 -26 514 -26 q 135 51 221 -26 q 50 261 50 128 q 54 326 50 293 l 143 965 l 396 965 l 307 331 q 303 275 303 300 q 328 190 303 217 q 408 163 354 163 q 515 205 478 163 q 565 335 553 247 l 654 965 l 907 965 l 818 322 m 347 1046 l 271 1144 l 493 1333 l 640 1333 l 808 1144 l 715 1046 l 547 1165 l 347 1046 z "},"Ȕ":{"ha":883,"x_min":50,"x_max":907,"o":"m 818 322 q 751 143 804 222 q 606 19 697 64 q 390 -26 514 -26 q 135 51 221 -26 q 50 261 50 128 q 54 326 50 293 l 143 965 l 396 965 l 307 331 q 303 275 303 300 q 328 190 303 217 q 408 163 354 163 q 515 205 478 163 q 565 335 553 247 l 654 965 l 907 965 l 818 322 m 399 1382 l 497 1099 l 367 1040 l 231 1301 l 399 1382 m 647 1382 l 733 1096 l 604 1046 l 479 1307 l 647 1382 z "},"Ü":{"ha":883,"x_min":50,"x_max":907,"o":"m 818 322 q 751 143 804 222 q 606 19 697 64 q 390 -26 514 -26 q 135 51 221 -26 q 50 261 50 128 q 54 326 50 293 l 143 965 l 396 965 l 307 331 q 303 275 303 300 q 328 190 303 217 q 408 163 354 163 q 515 205 478 163 q 565 335 553 247 l 654 965 l 907 965 l 818 322 m 375 1061 q 295 1090 325 1061 q 265 1165 265 1119 q 305 1260 265 1222 q 403 1299 344 1299 q 483 1269 453 1299 q 513 1193 513 1239 q 473 1099 513 1136 q 375 1061 433 1061 m 700 1061 q 620 1090 650 1061 q 590 1165 590 1119 q 630 1260 590 1222 q 728 1299 669 1299 q 808 1269 778 1299 q 838 1193 838 1239 q 798 1099 838 1136 q 700 1061 758 1061 z "},"Ǘ":{"ha":883,"x_min":50,"x_max":907,"o":"m 818 322 q 751 143 804 222 q 606 19 697 64 q 390 -26 514 -26 q 135 51 221 -26 q 50 261 50 128 q 54 326 50 293 l 143 965 l 396 965 l 307 331 q 303 275 303 300 q 328 190 303 217 q 408 163 354 163 q 515 205 478 163 q 565 335 553 247 l 654 965 l 907 965 l 818 322 m 697 1557 l 814 1428 l 561 1228 l 479 1310 l 697 1557 m 364 1040 q 284 1070 314 1040 q 254 1146 254 1100 q 294 1240 254 1203 q 392 1278 333 1278 q 472 1249 442 1278 q 501 1174 501 1219 q 462 1078 501 1117 q 364 1040 422 1040 m 713 1040 q 633 1070 663 1040 q 603 1146 603 1100 q 642 1240 603 1203 q 740 1278 682 1278 q 820 1249 790 1278 q 850 1174 850 1219 q 810 1078 850 1117 q 713 1040 771 1040 z "},"Ǚ":{"ha":883,"x_min":50,"x_max":907,"o":"m 818 322 q 751 143 804 222 q 606 19 697 64 q 390 -26 514 -26 q 135 51 221 -26 q 50 261 50 128 q 54 326 50 293 l 143 965 l 396 965 l 307 331 q 303 275 303 300 q 328 190 303 217 q 408 163 354 163 q 515 205 478 163 q 565 335 553 247 l 654 965 l 907 965 l 818 322 m 778 1560 l 853 1463 l 633 1274 l 486 1274 l 315 1463 l 411 1560 l 578 1442 l 778 1560 m 361 1040 q 281 1070 311 1040 q 251 1146 251 1100 q 290 1240 251 1203 q 388 1278 329 1278 q 468 1249 438 1278 q 499 1174 499 1219 q 459 1078 499 1117 q 361 1040 419 1040 m 708 1040 q 628 1070 658 1040 q 599 1146 599 1100 q 638 1240 599 1203 q 736 1278 678 1278 q 816 1249 786 1278 q 846 1174 846 1219 q 806 1078 846 1117 q 708 1040 767 1040 z "},"Ǜ":{"ha":883,"x_min":50,"x_max":907,"o":"m 818 322 q 751 143 804 222 q 606 19 697 64 q 390 -26 514 -26 q 135 51 221 -26 q 50 261 50 128 q 54 326 50 293 l 143 965 l 396 965 l 307 331 q 303 275 303 300 q 328 190 303 217 q 408 163 354 163 q 515 205 478 163 q 565 335 553 247 l 654 965 l 907 965 l 818 322 m 499 1554 l 650 1303 l 551 1228 l 354 1436 l 499 1554 m 360 1040 q 280 1070 310 1040 q 250 1146 250 1100 q 290 1240 250 1203 q 388 1278 329 1278 q 467 1249 438 1278 q 497 1174 497 1219 q 458 1078 497 1117 q 360 1040 418 1040 m 708 1040 q 628 1070 658 1040 q 599 1146 599 1100 q 638 1240 599 1203 q 736 1278 678 1278 q 816 1249 786 1278 q 846 1174 846 1219 q 806 1078 846 1117 q 708 1040 767 1040 z "},"Ǖ":{"ha":883,"x_min":50,"x_max":907,"o":"m 818 322 q 751 143 804 222 q 606 19 697 64 q 390 -26 514 -26 q 135 51 221 -26 q 50 261 50 128 q 54 326 50 293 l 143 965 l 396 965 l 307 331 q 303 275 303 300 q 328 190 303 217 q 408 163 354 163 q 515 205 478 163 q 565 335 553 247 l 654 965 l 907 965 l 818 322 m 369 1036 q 290 1065 319 1036 q 260 1140 260 1094 q 299 1235 260 1197 q 397 1274 339 1274 q 477 1244 447 1274 q 507 1168 507 1214 q 467 1074 507 1111 q 369 1036 428 1036 m 694 1036 q 615 1065 644 1036 q 585 1140 585 1094 q 624 1235 585 1197 q 722 1274 664 1274 q 802 1244 772 1274 q 832 1168 832 1214 q 792 1074 832 1111 q 694 1036 753 1036 m 781 1322 l 350 1322 l 374 1492 l 804 1492 l 781 1322 z "},"Ụ":{"ha":883,"x_min":50,"x_max":907,"o":"m 818 322 q 751 143 804 222 q 606 19 697 64 q 390 -26 514 -26 q 135 51 221 -26 q 50 261 50 128 q 54 326 50 293 l 143 965 l 396 965 l 307 331 q 303 275 303 300 q 328 190 303 217 q 408 163 354 163 q 515 205 478 163 q 565 335 553 247 l 654 965 l 907 965 l 818 322 m 375 -78 q 466 -111 432 -78 q 500 -197 500 -144 q 455 -306 500 -262 q 343 -350 410 -350 q 252 -317 286 -350 q 218 -231 218 -283 q 263 -122 218 -165 q 375 -78 308 -78 z "},"Ù":{"ha":883,"x_min":50,"x_max":907,"o":"m 818 322 q 751 143 804 222 q 606 19 697 64 q 390 -26 514 -26 q 135 51 221 -26 q 50 261 50 128 q 54 326 50 293 l 143 965 l 396 965 l 307 331 q 303 275 303 300 q 328 190 303 217 q 408 163 354 163 q 515 205 478 163 q 565 335 553 247 l 654 965 l 907 965 l 818 322 m 471 1336 l 754 1156 l 692 1036 l 369 1153 l 471 1336 z "},"Ủ":{"ha":883,"x_min":50,"x_max":907,"o":"m 818 322 q 751 143 804 222 q 606 19 697 64 q 390 -26 514 -26 q 135 51 221 -26 q 50 261 50 128 q 54 326 50 293 l 143 965 l 396 965 l 307 331 q 303 275 303 300 q 328 190 303 217 q 408 163 354 163 q 515 205 478 163 q 565 335 553 247 l 654 965 l 907 965 l 818 322 m 483 1188 q 590 1244 590 1192 q 542 1279 590 1279 q 458 1261 506 1279 l 432 1360 q 582 1396 500 1396 q 708 1358 665 1396 q 751 1258 751 1319 q 615 1117 751 1144 l 608 1061 l 469 1061 l 483 1188 z "},"Ư":{"ha":1006,"x_min":50,"x_max":1118,"o":"m 1118 990 q 1056 823 1118 881 q 879 764 993 765 l 818 322 q 751 143 804 222 q 606 19 697 64 q 390 -26 514 -26 q 135 51 221 -26 q 50 261 50 128 q 54 326 50 293 l 143 965 l 396 965 l 307 331 q 303 275 303 300 q 328 190 303 217 q 408 163 354 163 q 515 205 478 163 q 565 335 553 247 l 654 965 l 907 965 l 896 883 q 944 918 929 893 q 958 986 958 943 q 950 1054 958 1015 l 1106 1072 q 1118 990 1118 1038 z "},"Ứ":{"ha":1006,"x_min":50,"x_max":1118,"o":"m 771 1154 l 419 1033 l 367 1156 l 694 1338 l 771 1154 m 1118 990 q 1056 823 1118 881 q 879 764 993 765 l 818 322 q 751 143 804 222 q 606 19 697 64 q 390 -26 514 -26 q 135 51 221 -26 q 50 261 50 128 q 54 326 50 293 l 143 965 l 396 965 l 307 331 q 303 275 303 300 q 328 190 303 217 q 408 163 354 163 q 515 205 478 163 q 565 335 553 247 l 654 965 l 907 965 l 896 883 q 944 918 929 893 q 958 986 958 943 q 950 1054 958 1015 l 1106 1072 q 1118 990 1118 1038 z "},"Ự":{"ha":1006,"x_min":50,"x_max":1118,"o":"m 1118 990 q 1056 823 1118 881 q 879 764 993 765 l 818 322 q 751 143 804 222 q 606 19 697 64 q 390 -26 514 -26 q 135 51 221 -26 q 50 261 50 128 q 54 326 50 293 l 143 965 l 396 965 l 307 331 q 303 275 303 300 q 328 190 303 217 q 408 163 354 163 q 515 205 478 163 q 565 335 553 247 l 654 965 l 907 965 l 896 883 q 944 918 929 893 q 958 986 958 943 q 950 1054 958 1015 l 1106 1072 q 1118 990 1118 1038 m 375 -78 q 466 -111 432 -78 q 500 -197 500 -144 q 455 -306 500 -262 q 343 -350 410 -350 q 252 -317 286 -350 q 218 -231 218 -283 q 263 -122 218 -165 q 375 -78 308 -78 z "},"Ừ":{"ha":1006,"x_min":50,"x_max":1118,"o":"m 754 1156 l 692 1036 l 369 1153 l 471 1336 l 754 1156 m 1118 990 q 1056 823 1118 881 q 879 764 993 765 l 818 322 q 751 143 804 222 q 606 19 697 64 q 390 -26 514 -26 q 135 51 221 -26 q 50 261 50 128 q 54 326 50 293 l 143 965 l 396 965 l 307 331 q 303 275 303 300 q 328 190 303 217 q 408 163 354 163 q 515 205 478 163 q 565 335 553 247 l 654 965 l 907 965 l 896 883 q 944 918 929 893 q 958 986 958 943 q 950 1054 958 1015 l 1106 1072 q 1118 990 1118 1038 z "},"Ử":{"ha":1006,"x_min":50,"x_max":1118,"o":"m 542 1279 q 458 1261 506 1279 l 432 1360 q 582 1396 500 1396 q 708 1358 665 1396 q 751 1258 751 1319 q 615 1117 751 1144 l 608 1061 l 469 1061 l 483 1188 q 590 1244 590 1192 q 542 1279 590 1279 m 1118 990 q 1056 823 1118 881 q 879 764 993 765 l 818 322 q 751 143 804 222 q 606 19 697 64 q 390 -26 514 -26 q 135 51 221 -26 q 50 261 50 128 q 54 326 50 293 l 143 965 l 396 965 l 307 331 q 303 275 303 300 q 328 190 303 217 q 408 163 354 163 q 515 205 478 163 q 565 335 553 247 l 654 965 l 907 965 l 896 883 q 944 918 929 893 q 958 986 958 943 q 950 1054 958 1015 l 1106 1072 q 1118 990 1118 1038 z "},"Ữ":{"ha":1006,"x_min":50,"x_max":1118,"o":"m 474 1108 q 431 1094 449 1108 q 390 1046 413 1079 l 281 1108 q 373 1234 319 1185 q 486 1283 426 1283 q 538 1274 517 1283 q 586 1246 558 1264 q 613 1228 601 1233 q 636 1222 624 1222 q 677 1237 658 1222 q 718 1283 696 1251 l 828 1222 q 735 1096 789 1144 q 624 1047 682 1047 q 577 1057 599 1047 q 531 1083 556 1067 q 499 1102 511 1096 q 474 1108 486 1108 m 1118 990 q 1056 823 1118 881 q 879 764 993 765 l 818 322 q 751 143 804 222 q 606 19 697 64 q 390 -26 514 -26 q 135 51 221 -26 q 50 261 50 128 q 54 326 50 293 l 143 965 l 396 965 l 307 331 q 303 275 303 300 q 328 190 303 217 q 408 163 354 163 q 515 205 478 163 q 565 335 553 247 l 654 965 l 907 965 l 896 883 q 944 918 929 893 q 958 986 958 943 q 950 1054 958 1015 l 1106 1072 q 1118 990 1118 1038 z "},"Ű":{"ha":883,"x_min":50,"x_max":907,"o":"m 818 322 q 751 143 804 222 q 606 19 697 64 q 390 -26 514 -26 q 135 51 221 -26 q 50 261 50 128 q 54 326 50 293 l 143 965 l 396 965 l 307 331 q 303 275 303 300 q 328 190 303 217 q 408 163 354 163 q 515 205 478 163 q 565 335 553 247 l 654 965 l 907 965 l 818 322 m 504 1382 l 653 1307 l 457 1046 l 339 1096 l 504 1382 m 754 1382 l 900 1301 l 693 1040 l 578 1099 l 754 1382 z "},"Ȗ":{"ha":883,"x_min":50,"x_max":907,"o":"m 818 322 q 751 143 804 222 q 606 19 697 64 q 390 -26 514 -26 q 135 51 221 -26 q 50 261 50 128 q 54 326 50 293 l 143 965 l 396 965 l 307 331 q 303 275 303 300 q 328 190 303 217 q 408 163 354 163 q 515 205 478 163 q 565 335 553 247 l 654 965 l 907 965 l 818 322 m 294 1079 q 392 1261 318 1189 q 576 1333 465 1333 q 742 1260 688 1333 q 790 1076 797 1186 l 656 1057 q 627 1135 651 1107 q 558 1164 603 1164 q 424 1054 468 1164 l 294 1079 z "},"Ū":{"ha":883,"x_min":50,"x_max":907,"o":"m 818 322 q 751 143 804 222 q 606 19 697 64 q 390 -26 514 -26 q 135 51 221 -26 q 50 261 50 128 q 54 326 50 293 l 143 965 l 396 965 l 307 331 q 303 275 303 300 q 328 190 303 217 q 408 163 354 163 q 515 205 478 163 q 565 335 553 247 l 654 965 l 907 965 l 818 322 m 757 1081 l 326 1081 l 350 1250 l 781 1250 l 757 1081 z "},"Ų":{"ha":883,"x_min":50,"x_max":907,"o":"m 907 965 l 818 322 q 728 114 801 201 q 533 -8 656 26 q 376 -140 389 -61 q 440 -199 371 -199 q 526 -187 478 -199 l 494 -336 q 394 -347 447 -347 q 252 -307 307 -347 q 197 -196 197 -267 q 232 -94 197 -137 q 326 -24 267 -51 q 119 67 189 -8 q 50 261 50 142 q 54 326 50 293 l 143 965 l 396 965 l 307 331 q 303 275 303 300 q 328 190 303 217 q 408 163 354 163 q 515 205 478 163 q 565 335 553 247 l 654 965 l 907 965 z "},"Ʊ":{"ha":944,"x_min":38,"x_max":961,"o":"m 419 -26 q 214 22 300 -26 q 83 153 128 69 q 38 343 38 238 q 100 599 38 485 q 283 786 163 713 l 124 786 l 149 965 l 485 965 l 463 793 q 342 582 383 703 q 301 342 301 461 q 335 205 301 250 q 439 160 369 160 q 609 274 556 160 q 663 546 663 388 q 648 691 663 635 q 603 797 633 747 l 625 965 l 961 965 l 936 782 l 782 782 q 919 497 919 682 q 857 228 919 347 q 681 41 794 108 q 419 -26 568 -26 z "},"Ů":{"ha":883,"x_min":50,"x_max":907,"o":"m 818 322 q 751 143 804 222 q 606 19 697 64 q 390 -26 514 -26 q 135 51 221 -26 q 50 261 50 128 q 54 326 50 293 l 143 965 l 396 965 l 307 331 q 303 275 303 300 q 328 190 303 217 q 408 163 354 163 q 515 205 478 163 q 565 335 553 247 l 654 965 l 907 965 l 818 322 m 583 1393 q 715 1344 668 1393 q 761 1218 761 1296 q 733 1115 761 1164 q 653 1037 706 1067 q 535 1007 601 1007 q 406 1056 453 1007 q 358 1181 358 1104 q 387 1283 358 1235 q 467 1363 415 1332 q 583 1393 518 1393 m 572 1269 q 517 1244 538 1269 q 497 1186 497 1218 q 510 1146 497 1160 q 547 1132 524 1132 q 602 1156 582 1132 q 622 1213 622 1181 q 609 1255 622 1240 q 572 1269 596 1269 z "},"Ũ":{"ha":883,"x_min":50,"x_max":907,"o":"m 818 322 q 751 143 804 222 q 606 19 697 64 q 390 -26 514 -26 q 135 51 221 -26 q 50 261 50 128 q 54 326 50 293 l 143 965 l 396 965 l 307 331 q 303 275 303 300 q 328 190 303 217 q 408 163 354 163 q 515 205 478 163 q 565 335 553 247 l 654 965 l 907 965 l 818 322 m 624 1047 q 577 1057 599 1047 q 531 1083 556 1067 q 499 1102 511 1096 q 474 1108 486 1108 q 431 1094 449 1108 q 390 1046 413 1079 l 281 1108 q 373 1234 319 1185 q 486 1283 426 1283 q 538 1274 517 1283 q 586 1246 558 1264 q 613 1228 601 1233 q 636 1222 624 1222 q 677 1237 658 1222 q 718 1283 696 1251 l 828 1222 q 735 1096 789 1144 q 624 1047 682 1047 z "},"Ṹ":{"ha":883,"x_min":50,"x_max":907,"o":"m 818 322 q 751 143 804 222 q 606 19 697 64 q 390 -26 514 -26 q 135 51 221 -26 q 50 261 50 128 q 54 326 50 293 l 143 965 l 396 965 l 307 331 q 303 275 303 300 q 328 190 303 217 q 408 163 354 163 q 515 205 478 163 q 565 335 553 247 l 654 965 l 907 965 l 818 322 m 615 1047 q 569 1057 590 1047 q 522 1083 547 1067 q 490 1102 503 1096 q 465 1108 478 1108 q 422 1094 440 1108 q 382 1046 404 1079 l 272 1108 q 365 1234 311 1185 q 478 1283 418 1283 q 529 1274 508 1283 q 578 1246 550 1264 q 604 1228 593 1233 q 628 1222 615 1222 q 669 1237 650 1222 q 710 1283 688 1251 l 819 1222 q 727 1096 781 1144 q 615 1047 674 1047 m 689 1601 l 765 1418 l 414 1297 l 361 1419 l 689 1601 z "},"V":{"ha":783,"x_min":57,"x_max":893,"o":"m 893 965 l 507 0 l 186 0 l 57 965 l 321 965 l 374 189 l 632 965 l 893 965 z "},"Ʋ":{"ha":872,"x_min":47,"x_max":881,"o":"m 681 990 q 881 797 881 990 q 875 731 881 778 l 829 399 q 679 83 801 193 q 365 -26 557 -26 q 131 50 215 -26 q 47 251 47 126 q 50 300 47 283 l 144 965 l 397 965 l 304 296 q 301 258 301 268 q 389 163 301 163 q 508 219 458 163 q 575 397 557 275 l 625 760 l 626 775 q 597 807 626 807 q 564 801 589 807 l 546 967 q 681 990 610 990 z "},"Ʌ":{"ha":813,"x_min":-79,"x_max":786,"o":"m 642 965 l 786 0 l 525 0 l 464 782 l 190 0 l -79 0 l 336 965 l 642 965 z "},"W":{"ha":1169,"x_min":92,"x_max":1244,"o":"m 1244 965 l 961 0 l 633 0 l 632 714 l 422 0 l 101 0 l 92 965 l 342 965 l 311 190 l 535 965 l 801 965 l 796 190 l 1000 965 l 1244 965 z "},"Ẃ":{"ha":1169,"x_min":92,"x_max":1244,"o":"m 1244 965 l 961 0 l 633 0 l 632 714 l 422 0 l 101 0 l 92 965 l 342 965 l 311 190 l 535 965 l 801 965 l 796 190 l 1000 965 l 1244 965 m 840 1338 l 917 1154 l 565 1033 l 513 1156 l 840 1338 z "},"Ŵ":{"ha":1169,"x_min":92,"x_max":1244,"o":"m 1244 965 l 961 0 l 633 0 l 632 714 l 422 0 l 101 0 l 92 965 l 342 965 l 311 190 l 535 965 l 801 965 l 796 190 l 1000 965 l 1244 965 m 493 1046 l 417 1144 l 639 1333 l 786 1333 l 954 1144 l 861 1046 l 693 1165 l 493 1046 z "},"Ẅ":{"ha":1169,"x_min":92,"x_max":1244,"o":"m 1244 965 l 961 0 l 633 0 l 632 714 l 422 0 l 101 0 l 92 965 l 342 965 l 311 190 l 535 965 l 801 965 l 796 190 l 1000 965 l 1244 965 m 521 1061 q 441 1090 471 1061 q 411 1165 411 1119 q 451 1260 411 1222 q 549 1299 490 1299 q 628 1269 599 1299 q 658 1193 658 1239 q 619 1099 658 1136 q 521 1061 579 1061 m 846 1061 q 766 1090 796 1061 q 736 1165 736 1119 q 776 1260 736 1222 q 874 1299 815 1299 q 953 1269 924 1299 q 983 1193 983 1239 q 944 1099 983 1136 q 846 1061 904 1061 z "},"Ẁ":{"ha":1169,"x_min":92,"x_max":1244,"o":"m 1244 965 l 961 0 l 633 0 l 632 714 l 422 0 l 101 0 l 92 965 l 342 965 l 311 190 l 535 965 l 801 965 l 796 190 l 1000 965 l 1244 965 m 617 1336 l 900 1156 l 838 1036 l 515 1153 l 617 1336 z "},"Ⱳ":{"ha":1249,"x_min":92,"x_max":1375,"o":"m 422 0 l 632 714 l 633 0 l 956 0 l 1153 740 q 1183 795 1164 779 q 1229 811 1201 811 q 1290 793 1263 811 l 1375 939 q 1201 990 1301 990 q 1031 936 1094 990 q 935 747 967 882 l 796 190 l 801 965 l 535 965 l 311 190 l 342 965 l 92 965 l 101 0 l 422 0 z "},"Ƿ":{"ha":826,"x_min":22,"x_max":856,"o":"m 624 990 q 791 927 726 990 q 856 756 856 864 q 799 556 856 638 q 649 419 743 474 q 419 317 556 364 l 314 281 l 275 0 l 22 0 l 157 965 l 410 965 l 401 910 q 503 969 446 949 q 624 990 560 990 m 381 475 q 592 725 592 575 q 571 788 592 767 q 513 808 550 808 q 381 758 444 808 l 339 456 l 381 475 z "},"X":{"ha":810,"x_min":-62,"x_max":881,"o":"m 881 965 l 571 519 l 767 0 l 496 0 l 399 360 l 208 0 l -62 0 l 268 513 l 92 965 l 361 965 l 438 661 l 610 965 l 881 965 z "},"Y":{"ha":828,"x_min":68,"x_max":928,"o":"m 928 965 l 540 358 l 489 0 l 236 0 l 286 357 l 68 965 l 339 965 l 440 556 l 657 965 l 928 965 z "},"Ý":{"ha":828,"x_min":68,"x_max":928,"o":"m 928 965 l 540 358 l 489 0 l 236 0 l 286 357 l 68 965 l 339 965 l 440 556 l 657 965 l 928 965 m 668 1338 l 744 1154 l 393 1033 l 340 1156 l 668 1338 z "},"Ŷ":{"ha":828,"x_min":68,"x_max":928,"o":"m 928 965 l 540 358 l 489 0 l 236 0 l 286 357 l 68 965 l 339 965 l 440 556 l 657 965 l 928 965 m 321 1046 l 244 1144 l 467 1333 l 614 1333 l 782 1144 l 689 1046 l 521 1165 l 321 1046 z "},"Ÿ":{"ha":828,"x_min":68,"x_max":928,"o":"m 928 965 l 540 358 l 489 0 l 236 0 l 286 357 l 68 965 l 339 965 l 440 556 l 657 965 l 928 965 m 349 1061 q 269 1090 299 1061 q 239 1165 239 1119 q 278 1260 239 1222 q 376 1299 318 1299 q 456 1269 426 1299 q 486 1193 486 1239 q 447 1099 486 1136 q 349 1061 407 1061 m 674 1061 q 594 1090 624 1061 q 564 1165 564 1119 q 603 1260 564 1222 q 701 1299 643 1299 q 781 1269 751 1299 q 811 1193 811 1239 q 772 1099 811 1136 q 674 1061 732 1061 z "},"Ỵ":{"ha":828,"x_min":68,"x_max":928,"o":"m 928 965 l 540 358 l 489 0 l 236 0 l 286 357 l 68 965 l 339 965 l 440 556 l 657 965 l 928 965 m 347 -78 q 438 -111 404 -78 q 472 -197 472 -144 q 427 -306 472 -262 q 315 -350 382 -350 q 224 -317 258 -350 q 190 -231 190 -283 q 235 -122 190 -165 q 347 -78 281 -78 z "},"Ỳ":{"ha":828,"x_min":68,"x_max":928,"o":"m 928 965 l 540 358 l 489 0 l 236 0 l 286 357 l 68 965 l 339 965 l 440 556 l 657 965 l 928 965 m 444 1336 l 728 1156 l 665 1036 l 343 1153 l 444 1336 z "},"Ƴ":{"ha":875,"x_min":68,"x_max":1001,"o":"m 286 357 l 68 965 l 339 965 l 440 556 l 556 785 q 669 944 610 899 q 831 990 729 990 q 927 977 886 990 q 1001 939 968 964 l 918 793 q 856 811 889 811 q 809 797 828 811 q 767 740 790 782 l 540 358 l 489 0 l 236 0 l 286 357 z "},"Ỷ":{"ha":828,"x_min":68,"x_max":928,"o":"m 928 965 l 540 358 l 489 0 l 236 0 l 286 357 l 68 965 l 339 965 l 440 556 l 657 965 l 928 965 m 457 1188 q 564 1244 564 1192 q 515 1279 564 1279 q 432 1261 479 1279 l 406 1360 q 556 1396 474 1396 q 682 1358 639 1396 q 725 1258 725 1319 q 589 1117 725 1144 l 582 1061 l 443 1061 l 457 1188 z "},"Ȳ":{"ha":828,"x_min":68,"x_max":928,"o":"m 928 965 l 540 358 l 489 0 l 236 0 l 286 357 l 68 965 l 339 965 l 440 556 l 657 965 l 928 965 m 731 1081 l 300 1081 l 324 1250 l 754 1250 l 731 1081 z "},"Ʀ":{"ha":847,"x_min":22,"x_max":825,"o":"m 825 561 q 780 378 825 456 q 613 243 735 301 l 790 -156 l 519 -156 l 379 200 l 303 200 l 275 0 l 22 0 l 157 965 l 410 965 l 388 808 l 465 808 q 825 561 825 808 m 328 375 l 414 375 q 530 423 496 375 q 564 536 564 471 q 436 631 564 631 l 363 631 l 328 375 z "},"Ɏ":{"ha":831,"x_min":36,"x_max":929,"o":"m 861 858 l 914 858 l 896 721 l 774 721 l 542 358 l 492 0 l 239 0 l 289 357 l 157 721 l 36 721 l 54 858 l 108 858 l 69 965 l 318 965 l 349 858 l 621 858 l 681 965 l 929 965 l 861 858 m 440 533 l 544 721 l 388 721 l 440 533 z "},"Ỹ":{"ha":828,"x_min":68,"x_max":928,"o":"m 928 965 l 540 358 l 489 0 l 236 0 l 286 357 l 68 965 l 339 965 l 440 556 l 657 965 l 928 965 m 597 1047 q 551 1057 572 1047 q 504 1083 529 1067 q 472 1102 485 1096 q 447 1108 460 1108 q 404 1094 422 1108 q 364 1046 386 1079 l 254 1108 q 347 1234 293 1185 q 460 1283 400 1283 q 511 1274 490 1283 q 560 1246 532 1264 q 586 1228 575 1233 q 610 1222 597 1222 q 651 1237 632 1222 q 692 1283 669 1251 l 801 1222 q 709 1096 763 1144 q 597 1047 656 1047 z "},"Z":{"ha":750,"x_min":-33,"x_max":796,"o":"m -33 0 l -8 190 l 476 768 l 115 768 l 142 965 l 796 965 l 769 772 l 292 203 l 699 203 l 646 0 l -33 0 z "},"Ź":{"ha":750,"x_min":-33,"x_max":796,"o":"m -33 0 l -8 190 l 476 768 l 115 768 l 142 965 l 796 965 l 769 772 l 292 203 l 699 203 l 646 0 l -33 0 m 631 1338 l 707 1154 l 356 1033 l 303 1156 l 631 1338 z "},"Ž":{"ha":750,"x_min":-33,"x_max":796,"o":"m -33 0 l -8 190 l 476 768 l 115 768 l 142 965 l 796 965 l 769 772 l 292 203 l 699 203 l 646 0 l -33 0 m 690 1325 l 765 1228 l 546 1039 l 399 1039 l 228 1228 l 324 1325 l 490 1207 l 690 1325 z "},"Ż":{"ha":750,"x_min":-33,"x_max":796,"o":"m -33 0 l -8 190 l 476 768 l 115 768 l 142 965 l 796 965 l 769 772 l 292 203 l 699 203 l 646 0 l -33 0 m 479 1042 q 388 1075 422 1042 q 354 1161 354 1108 q 399 1270 354 1226 q 511 1314 444 1314 q 602 1281 568 1314 q 636 1194 636 1247 q 591 1085 636 1129 q 479 1042 546 1042 z "},"Ẓ":{"ha":750,"x_min":-33,"x_max":796,"o":"m -33 0 l -8 190 l 476 768 l 115 768 l 142 965 l 796 965 l 769 772 l 292 203 l 699 203 l 646 0 l -33 0 m 290 -78 q 381 -111 347 -78 q 415 -197 415 -144 q 370 -306 415 -262 q 258 -350 325 -350 q 167 -317 201 -350 q 133 -231 133 -283 q 178 -122 133 -165 q 290 -78 224 -78 z "},"Ȥ":{"ha":739,"x_min":-33,"x_max":796,"o":"m 769 772 l 297 203 l 686 203 l 656 0 l 649 -44 q 545 -244 626 -176 q 333 -311 464 -311 q 135 -250 211 -311 l 231 -106 q 276 -126 256 -119 q 322 -133 296 -133 q 408 -47 394 -133 l 415 0 l -33 0 l -8 190 l 476 768 l 115 768 l 142 965 l 796 965 l 769 772 z "},"Ƶ":{"ha":750,"x_min":-33,"x_max":796,"o":"m 796 965 l 769 772 l 585 560 l 675 560 l 653 404 l 449 404 l 274 203 l 699 203 l 646 0 l -33 0 l -8 190 l 179 404 l 75 404 l 97 560 l 315 560 l 499 768 l 115 768 l 142 965 l 796 965 z "},"ʙ":{"ha":743,"x_min":19,"x_max":721,"o":"m 542 407 q 704 254 704 386 q 606 63 704 126 q 342 0 507 0 l 19 0 l 121 733 q 424 765 296 765 q 642 719 564 765 q 721 585 721 672 q 676 471 721 517 q 542 407 631 425 m 381 453 q 450 480 424 453 q 476 553 476 507 q 407 613 476 613 q 350 608 379 613 l 328 453 l 381 453 m 347 158 q 428 188 399 158 q 458 271 458 217 q 381 331 458 331 l 310 331 l 285 158 l 347 158 z "},"ɢ":{"ha":765,"x_min":26,"x_max":751,"o":"m 469 765 q 632 738 565 765 q 751 660 699 710 l 621 536 q 472 593 551 593 q 324 502 372 593 q 276 281 276 411 q 301 179 276 208 q 376 150 326 150 q 465 165 419 150 l 481 281 l 401 281 l 400 439 l 731 439 l 679 68 q 530 1 613 25 q 354 -24 447 -24 q 108 53 190 -24 q 26 281 26 131 q 82 531 26 421 q 238 703 138 642 q 469 765 339 765 z "},"ʛ":{"ha":778,"x_min":25,"x_max":1019,"o":"m 832 1057 q 1019 1004 943 1057 l 933 854 q 850 878 890 878 q 796 858 815 878 q 771 796 776 838 l 751 660 l 635 550 q 472 593 549 593 q 324 503 372 593 q 276 281 276 413 q 301 179 276 208 q 376 150 326 150 q 465 165 419 150 l 481 281 l 400 281 l 400 439 l 731 439 l 679 68 q 530 1 613 25 q 354 -24 447 -24 q 108 53 190 -24 q 25 281 25 131 q 83 530 25 419 q 235 703 140 640 q 443 765 331 765 q 554 750 501 765 l 563 817 q 647 995 579 933 q 832 1057 714 1057 z "},"ʜ":{"ha":796,"x_min":19,"x_max":776,"o":"m 431 0 l 471 285 l 303 285 l 263 0 l 19 0 l 122 740 l 365 740 l 328 465 l 496 465 l 533 740 l 776 740 l 674 0 l 431 0 z "},"ɪ":{"ha":457,"x_min":-37,"x_max":494,"o":"m 471 569 l 378 569 l 322 171 l 414 171 l 390 0 l -37 0 l -12 171 l 78 171 l 135 569 l 43 569 l 67 740 l 494 740 l 471 569 z "},"ʟ":{"ha":625,"x_min":19,"x_max":586,"o":"m 365 740 l 289 188 l 586 188 l 533 0 l 19 0 l 122 740 l 365 740 z "},"ɴ":{"ha":797,"x_min":19,"x_max":779,"o":"m 676 0 l 388 0 l 269 528 l 271 494 q 274 403 274 439 q 258 182 274 299 l 233 0 l 19 0 l 122 740 l 407 740 l 529 213 q 525 347 525 286 q 539 547 525 443 l 565 740 l 779 740 l 676 0 z "},"ɶ":{"ha":1054,"x_min":28,"x_max":1081,"o":"m 718 572 q 754 456 746 517 l 983 456 l 960 293 l 739 293 q 671 169 717 222 l 994 169 l 971 0 l 483 0 q 342 -26 415 -26 q 111 58 194 -26 q 28 292 28 143 q 69 517 28 410 q 205 695 111 625 q 446 765 299 765 q 585 740 517 765 l 1081 740 l 1032 572 l 718 572 m 364 154 q 485 254 451 154 q 518 468 518 354 q 497 558 518 529 q 431 586 475 586 q 310 488 343 586 q 276 278 276 390 q 297 183 276 213 q 364 154 318 154 z "},"ʀ":{"ha":746,"x_min":19,"x_max":696,"o":"m 696 524 q 546 286 696 360 l 681 0 l 432 0 l 336 247 l 286 247 l 251 0 l 19 0 l 122 740 l 403 740 q 621 686 546 740 q 696 524 696 632 m 308 407 l 350 407 q 430 435 403 407 q 457 510 457 464 q 438 558 457 544 q 376 572 418 572 l 331 572 l 308 407 z "},"ʁ":{"ha":744,"x_min":19,"x_max":783,"o":"m 569 451 q 663 279 663 399 q 566 70 663 140 q 301 0 469 0 l 19 0 l 122 740 l 354 740 l 319 493 l 369 493 l 535 740 l 783 740 l 569 451 m 315 168 q 422 267 422 168 q 403 318 422 303 q 343 333 383 333 l 297 333 l 274 168 l 315 168 z "},"ʏ":{"ha":708,"x_min":38,"x_max":776,"o":"m 776 740 l 463 265 l 424 0 l 181 0 l 219 264 l 38 740 l 294 740 l 361 432 l 515 740 l 776 740 z "},"a":{"ha":796,"x_min":25,"x_max":774,"o":"m 458 765 q 620 745 539 765 q 774 683 701 725 l 707 225 q 704 193 704 200 q 712 158 704 171 q 740 138 719 146 l 671 -21 q 555 14 604 -17 q 488 101 506 44 q 267 -26 399 -26 q 88 53 151 -26 q 25 272 25 133 q 69 503 25 390 q 211 690 114 615 q 458 765 308 765 m 450 593 q 319 494 361 593 q 276 272 276 396 q 295 180 276 206 q 347 154 314 154 q 471 247 414 154 l 519 582 q 450 593 482 593 z "},"á":{"ha":796,"x_min":25,"x_max":774,"o":"m 458 765 q 620 745 539 765 q 774 683 701 725 l 707 225 q 704 193 704 200 q 712 158 704 171 q 740 138 719 146 l 671 -21 q 555 14 604 -17 q 488 101 506 44 q 267 -26 399 -26 q 88 53 151 -26 q 25 272 25 133 q 69 503 25 390 q 211 690 114 615 q 458 765 308 765 m 450 593 q 319 494 361 593 q 276 272 276 396 q 295 180 276 206 q 347 154 314 154 q 471 247 414 154 l 519 582 q 450 593 482 593 m 642 1175 l 718 992 l 367 858 l 313 982 l 642 1175 z "},"ă":{"ha":796,"x_min":25,"x_max":774,"o":"m 458 765 q 620 745 539 765 q 774 683 701 725 l 707 225 q 704 193 704 200 q 712 158 704 171 q 740 138 719 146 l 671 -21 q 555 14 604 -17 q 488 101 506 44 q 267 -26 399 -26 q 88 53 151 -26 q 25 272 25 133 q 69 503 25 390 q 211 690 114 615 q 458 765 308 765 m 450 593 q 319 494 361 593 q 276 272 276 396 q 295 180 276 206 q 347 154 314 154 q 471 247 414 154 l 519 582 q 450 593 482 593 m 490 874 q 326 947 379 874 q 279 1132 272 1021 l 411 1151 q 438 1072 414 1100 q 507 1043 463 1043 q 587 1073 553 1043 q 639 1154 621 1103 l 765 1128 q 672 946 743 1018 q 490 874 600 874 z "},"ắ":{"ha":796,"x_min":25,"x_max":775,"o":"m 654 1396 l 771 1267 l 518 1067 l 436 1149 l 654 1396 m 500 836 q 377 870 426 836 q 306 960 328 904 q 289 1081 285 1017 l 417 1100 q 447 1032 422 1058 q 515 1006 472 1006 q 592 1033 560 1006 q 643 1103 625 1060 l 775 1076 q 681 906 753 976 q 500 836 608 836 m 458 765 q 620 745 539 765 q 774 683 701 725 l 707 225 q 704 193 704 200 q 712 158 704 171 q 740 138 719 146 l 671 -21 q 555 14 604 -17 q 488 101 506 44 q 267 -26 399 -26 q 88 53 151 -26 q 25 272 25 133 q 69 503 25 390 q 211 690 114 615 q 458 765 308 765 m 450 593 q 319 494 361 593 q 276 272 276 396 q 295 180 276 206 q 347 154 314 154 q 471 247 414 154 l 519 582 q 450 593 482 593 z "},"ặ":{"ha":796,"x_min":25,"x_max":774,"o":"m 458 765 q 620 745 539 765 q 774 683 701 725 l 707 225 q 704 193 704 200 q 712 158 704 171 q 740 138 719 146 l 671 -21 q 555 14 604 -17 q 488 101 506 44 q 267 -26 399 -26 q 88 53 151 -26 q 25 272 25 133 q 69 503 25 390 q 211 690 114 615 q 458 765 308 765 m 450 593 q 319 494 361 593 q 276 272 276 396 q 295 180 276 206 q 347 154 314 154 q 471 247 414 154 l 519 582 q 450 593 482 593 m 490 874 q 326 947 379 874 q 279 1132 272 1021 l 411 1151 q 438 1072 414 1100 q 507 1043 463 1043 q 587 1073 553 1043 q 639 1154 621 1103 l 765 1128 q 672 946 743 1018 q 490 874 600 874 m 369 -78 q 460 -111 426 -78 q 494 -197 494 -144 q 449 -306 494 -262 q 338 -350 404 -350 q 247 -317 281 -350 q 213 -231 213 -283 q 258 -122 213 -165 q 369 -78 303 -78 z "},"ằ":{"ha":796,"x_min":25,"x_max":775,"o":"m 464 1393 l 615 1142 l 517 1067 l 319 1275 l 464 1393 m 500 836 q 377 870 426 836 q 306 960 328 904 q 289 1081 285 1017 l 417 1100 q 447 1032 422 1058 q 515 1006 472 1006 q 592 1033 560 1006 q 643 1103 625 1060 l 775 1076 q 681 906 753 976 q 500 836 608 836 m 458 765 q 620 745 539 765 q 774 683 701 725 l 707 225 q 704 193 704 200 q 712 158 704 171 q 740 138 719 146 l 671 -21 q 555 14 604 -17 q 488 101 506 44 q 267 -26 399 -26 q 88 53 151 -26 q 25 272 25 133 q 69 503 25 390 q 211 690 114 615 q 458 765 308 765 m 450 593 q 319 494 361 593 q 276 272 276 396 q 295 180 276 206 q 347 154 314 154 q 471 247 414 154 l 519 582 q 450 593 482 593 z "},"ẳ":{"ha":796,"x_min":25,"x_max":775,"o":"m 458 765 q 620 745 539 765 q 774 683 701 725 l 707 225 q 704 193 704 200 q 712 158 704 171 q 740 138 719 146 l 671 -21 q 555 14 604 -17 q 488 101 506 44 q 267 -26 399 -26 q 88 53 151 -26 q 25 272 25 133 q 69 503 25 390 q 211 690 114 615 q 458 765 308 765 m 450 593 q 319 494 361 593 q 276 272 276 396 q 295 180 276 206 q 347 154 314 154 q 471 247 414 154 l 519 582 q 450 593 482 593 m 500 836 q 377 870 426 836 q 306 960 328 904 q 289 1081 285 1017 l 417 1100 q 447 1032 422 1058 q 515 1006 472 1006 q 592 1033 560 1006 q 643 1103 625 1060 l 775 1076 q 681 906 753 976 q 500 836 608 836 m 472 1213 q 553 1228 526 1215 q 579 1269 579 1242 q 532 1304 579 1304 q 449 1286 493 1304 l 421 1385 q 572 1421 490 1421 q 697 1383 654 1421 q 740 1283 740 1344 q 604 1143 740 1168 l 594 1072 l 456 1072 l 472 1213 z "},"ẵ":{"ha":796,"x_min":25,"x_max":829,"o":"m 629 1126 q 585 1135 604 1126 q 536 1160 565 1143 q 508 1175 522 1168 q 481 1182 493 1182 q 439 1169 457 1182 q 399 1125 421 1156 l 292 1182 q 381 1298 329 1253 q 493 1343 433 1343 q 543 1335 524 1343 q 592 1308 563 1326 q 640 1288 624 1288 q 681 1301 663 1288 q 721 1343 700 1314 l 829 1288 q 740 1171 792 1215 q 629 1126 688 1126 m 508 836 q 385 870 435 836 q 315 960 336 904 q 297 1081 293 1017 l 425 1100 q 456 1032 431 1058 q 524 1006 481 1006 q 601 1033 568 1006 q 651 1103 633 1060 l 783 1076 q 689 906 761 976 q 508 836 617 836 m 458 765 q 620 745 539 765 q 774 683 701 725 l 707 225 q 704 193 704 200 q 712 158 704 171 q 740 138 719 146 l 671 -21 q 555 14 604 -17 q 488 101 506 44 q 267 -26 399 -26 q 88 53 151 -26 q 25 272 25 133 q 69 503 25 390 q 211 690 114 615 q 458 765 308 765 m 450 593 q 319 494 361 593 q 276 272 276 396 q 295 180 276 206 q 347 154 314 154 q 471 247 414 154 l 519 582 q 450 593 482 593 z "},"ǎ":{"ha":796,"x_min":25,"x_max":789,"o":"m 458 765 q 620 745 539 765 q 774 683 701 725 l 707 225 q 704 193 704 200 q 712 158 704 171 q 740 138 719 146 l 671 -21 q 555 14 604 -17 q 488 101 506 44 q 267 -26 399 -26 q 88 53 151 -26 q 25 272 25 133 q 69 503 25 390 q 211 690 114 615 q 458 765 308 765 m 450 593 q 319 494 361 593 q 276 272 276 396 q 295 180 276 206 q 347 154 314 154 q 471 247 414 154 l 519 582 q 450 593 482 593 m 711 1142 l 789 1043 l 567 843 l 419 843 l 251 1043 l 343 1142 l 508 1011 l 711 1142 z "},"â":{"ha":796,"x_min":25,"x_max":775,"o":"m 458 765 q 620 745 539 765 q 774 683 701 725 l 707 225 q 704 193 704 200 q 712 158 704 171 q 740 138 719 146 l 671 -21 q 555 14 604 -17 q 488 101 506 44 q 267 -26 399 -26 q 88 53 151 -26 q 25 272 25 133 q 69 503 25 390 q 211 690 114 615 q 458 765 308 765 m 450 593 q 319 494 361 593 q 276 272 276 396 q 295 180 276 206 q 347 154 314 154 q 471 247 414 154 l 519 582 q 450 593 482 593 m 313 856 l 238 954 l 460 1154 l 607 1154 l 775 954 l 678 856 l 514 986 l 313 856 z "},"ấ":{"ha":796,"x_min":25,"x_max":982,"o":"m 865 1356 l 982 1226 l 729 1026 l 647 1108 l 865 1356 m 303 810 l 226 908 l 449 1097 l 596 1097 l 764 908 l 671 810 l 503 929 l 303 810 m 458 765 q 620 745 539 765 q 774 683 701 725 l 707 225 q 704 193 704 200 q 712 158 704 171 q 740 138 719 146 l 671 -21 q 555 14 604 -17 q 488 101 506 44 q 267 -26 399 -26 q 88 53 151 -26 q 25 272 25 133 q 69 503 25 390 q 211 690 114 615 q 458 765 308 765 m 450 593 q 319 494 361 593 q 276 272 276 396 q 295 180 276 206 q 347 154 314 154 q 471 247 414 154 l 519 582 q 450 593 482 593 z "},"ậ":{"ha":796,"x_min":25,"x_max":775,"o":"m 458 765 q 620 745 539 765 q 774 683 701 725 l 707 225 q 704 193 704 200 q 712 158 704 171 q 740 138 719 146 l 671 -21 q 555 14 604 -17 q 488 101 506 44 q 267 -26 399 -26 q 88 53 151 -26 q 25 272 25 133 q 69 503 25 390 q 211 690 114 615 q 458 765 308 765 m 450 593 q 319 494 361 593 q 276 272 276 396 q 295 180 276 206 q 347 154 314 154 q 471 247 414 154 l 519 582 q 450 593 482 593 m 313 856 l 238 954 l 460 1154 l 607 1154 l 775 954 l 678 856 l 514 986 l 313 856 m 369 -78 q 460 -111 426 -78 q 494 -197 494 -144 q 449 -306 494 -262 q 338 -350 404 -350 q 247 -317 281 -350 q 213 -231 213 -283 q 258 -122 213 -165 q 369 -78 303 -78 z "},"ầ":{"ha":796,"x_min":25,"x_max":774,"o":"m 235 1353 l 386 1101 l 288 1026 l 90 1235 l 235 1353 m 304 810 l 228 908 l 450 1097 l 597 1097 l 765 908 l 672 810 l 504 929 l 304 810 m 458 765 q 620 745 539 765 q 774 683 701 725 l 707 225 q 704 193 704 200 q 712 158 704 171 q 740 138 719 146 l 671 -21 q 555 14 604 -17 q 488 101 506 44 q 267 -26 399 -26 q 88 53 151 -26 q 25 272 25 133 q 69 503 25 390 q 211 690 114 615 q 458 765 308 765 m 450 593 q 319 494 361 593 q 276 272 276 396 q 295 180 276 206 q 347 154 314 154 q 471 247 414 154 l 519 582 q 450 593 482 593 z "},"ẩ":{"ha":796,"x_min":25,"x_max":949,"o":"m 458 765 q 620 745 539 765 q 774 683 701 725 l 707 225 q 704 193 704 200 q 712 158 704 171 q 740 138 719 146 l 671 -21 q 555 14 604 -17 q 488 101 506 44 q 267 -26 399 -26 q 88 53 151 -26 q 25 272 25 133 q 69 503 25 390 q 211 690 114 615 q 458 765 308 765 m 450 593 q 319 494 361 593 q 276 272 276 396 q 295 180 276 206 q 347 154 314 154 q 471 247 414 154 l 519 582 q 450 593 482 593 m 296 810 l 219 908 l 442 1097 l 589 1097 l 757 908 l 664 810 l 496 929 l 296 810 m 681 1203 q 761 1219 735 1206 q 788 1260 788 1232 q 740 1294 788 1294 q 657 1276 701 1294 l 629 1375 q 781 1411 699 1411 q 906 1373 863 1411 q 949 1274 949 1335 q 813 1133 949 1158 l 803 1063 l 664 1063 l 681 1203 z "},"ẫ":{"ha":796,"x_min":25,"x_max":814,"o":"m 614 1129 q 569 1138 589 1129 q 521 1163 550 1146 q 492 1178 507 1171 q 465 1185 478 1185 q 424 1172 442 1185 q 383 1128 406 1158 l 276 1185 q 366 1301 314 1256 q 478 1346 418 1346 q 528 1338 508 1346 q 576 1311 547 1329 q 625 1290 607 1290 q 666 1303 647 1290 q 706 1346 685 1317 l 814 1290 q 724 1174 776 1218 q 614 1129 672 1129 m 299 807 l 222 906 l 444 1094 l 592 1094 l 760 906 l 667 807 l 499 926 l 299 807 m 458 765 q 620 745 539 765 q 774 683 701 725 l 707 225 q 704 193 704 200 q 712 158 704 171 q 740 138 719 146 l 671 -21 q 555 14 604 -17 q 488 101 506 44 q 267 -26 399 -26 q 88 53 151 -26 q 25 272 25 133 q 69 503 25 390 q 211 690 114 615 q 458 765 308 765 m 450 593 q 319 494 361 593 q 276 272 276 396 q 295 180 276 206 q 347 154 314 154 q 471 247 414 154 l 519 582 q 450 593 482 593 z "},"ȁ":{"ha":796,"x_min":25,"x_max":774,"o":"m 458 765 q 620 745 539 765 q 774 683 701 725 l 707 225 q 704 193 704 200 q 712 158 704 171 q 740 138 719 146 l 671 -21 q 555 14 604 -17 q 488 101 506 44 q 267 -26 399 -26 q 88 53 151 -26 q 25 272 25 133 q 69 503 25 390 q 211 690 114 615 q 458 765 308 765 m 450 593 q 319 494 361 593 q 276 272 276 396 q 295 180 276 206 q 347 154 314 154 q 471 247 414 154 l 519 582 q 450 593 482 593 m 364 1207 l 463 924 l 332 865 l 196 1126 l 364 1207 m 613 1207 l 699 921 l 569 871 l 444 1132 l 613 1207 z "},"ä":{"ha":796,"x_min":25,"x_max":803,"o":"m 458 765 q 620 745 539 765 q 774 683 701 725 l 707 225 q 704 193 704 200 q 712 158 704 171 q 740 138 719 146 l 671 -21 q 555 14 604 -17 q 488 101 506 44 q 267 -26 399 -26 q 88 53 151 -26 q 25 272 25 133 q 69 503 25 390 q 211 690 114 615 q 458 765 308 765 m 450 593 q 319 494 361 593 q 276 272 276 396 q 295 180 276 206 q 347 154 314 154 q 471 247 414 154 l 519 582 q 450 593 482 593 m 340 886 q 260 915 290 886 q 231 990 231 944 q 270 1085 231 1047 q 368 1124 310 1124 q 448 1094 418 1124 q 478 1018 478 1064 q 438 924 478 961 q 340 886 399 886 m 665 886 q 585 915 615 886 q 556 990 556 944 q 595 1085 556 1047 q 693 1124 635 1124 q 773 1094 743 1124 q 803 1018 803 1064 q 763 924 803 961 q 665 886 724 886 z "},"ǟ":{"ha":796,"x_min":25,"x_max":796,"o":"m 458 765 q 620 745 539 765 q 774 683 701 725 l 707 225 q 704 193 704 200 q 712 158 704 171 q 740 138 719 146 l 671 -21 q 555 14 604 -17 q 488 101 506 44 q 267 -26 399 -26 q 88 53 151 -26 q 25 272 25 133 q 69 503 25 390 q 211 690 114 615 q 458 765 308 765 m 450 593 q 319 494 361 593 q 276 272 276 396 q 295 180 276 206 q 347 154 314 154 q 471 247 414 154 l 519 582 q 450 593 482 593 m 333 828 q 253 857 283 828 q 224 932 224 886 q 263 1027 224 989 q 361 1065 303 1065 q 441 1035 411 1065 q 471 960 471 1006 q 431 865 471 903 q 333 828 392 828 m 658 828 q 578 857 608 828 q 549 932 549 886 q 588 1027 549 989 q 686 1065 628 1065 q 766 1035 736 1065 q 796 960 796 1006 q 756 865 796 903 q 658 828 717 828 m 746 1118 l 315 1118 l 339 1288 l 769 1288 l 746 1118 z "},"ȧ":{"ha":796,"x_min":25,"x_max":774,"o":"m 458 765 q 620 745 539 765 q 774 683 701 725 l 707 225 q 704 193 704 200 q 712 158 704 171 q 740 138 719 146 l 671 -21 q 555 14 604 -17 q 488 101 506 44 q 267 -26 399 -26 q 88 53 151 -26 q 25 272 25 133 q 69 503 25 390 q 211 690 114 615 q 458 765 308 765 m 450 593 q 319 494 361 593 q 276 272 276 396 q 295 180 276 206 q 347 154 314 154 q 471 247 414 154 l 519 582 q 450 593 482 593 m 500 867 q 409 900 443 867 q 375 986 375 933 q 420 1095 375 1051 q 532 1139 465 1139 q 623 1106 589 1139 q 657 1019 657 1072 q 612 910 657 954 q 500 867 567 867 z "},"ạ":{"ha":796,"x_min":25,"x_max":774,"o":"m 458 765 q 620 745 539 765 q 774 683 701 725 l 707 225 q 704 193 704 200 q 712 158 704 171 q 740 138 719 146 l 671 -21 q 555 14 604 -17 q 488 101 506 44 q 267 -26 399 -26 q 88 53 151 -26 q 25 272 25 133 q 69 503 25 390 q 211 690 114 615 q 458 765 308 765 m 450 593 q 319 494 361 593 q 276 272 276 396 q 295 180 276 206 q 347 154 314 154 q 471 247 414 154 l 519 582 q 450 593 482 593 m 369 -78 q 460 -111 426 -78 q 494 -197 494 -144 q 449 -306 494 -262 q 338 -350 404 -350 q 247 -317 281 -350 q 213 -231 213 -283 q 258 -122 213 -165 q 369 -78 303 -78 z "},"ǡ":{"ha":796,"x_min":25,"x_max":774,"o":"m 458 765 q 620 745 539 765 q 774 683 701 725 l 707 225 q 704 193 704 200 q 712 158 704 171 q 740 138 719 146 l 671 -21 q 555 14 604 -17 q 488 101 506 44 q 267 -26 399 -26 q 88 53 151 -26 q 25 272 25 133 q 69 503 25 390 q 211 690 114 615 q 458 765 308 765 m 450 593 q 319 494 361 593 q 276 272 276 396 q 295 180 276 206 q 347 154 314 154 q 471 247 414 154 l 519 582 q 450 593 482 593 m 490 819 q 399 853 433 819 q 365 939 365 886 q 410 1048 365 1004 q 522 1092 456 1092 q 613 1058 579 1092 q 647 972 647 1025 q 602 863 647 907 q 490 819 557 819 m 744 1132 l 314 1132 l 338 1301 l 768 1301 l 744 1132 z "},"à":{"ha":796,"x_min":25,"x_max":774,"o":"m 458 765 q 620 745 539 765 q 774 683 701 725 l 707 225 q 704 193 704 200 q 712 158 704 171 q 740 138 719 146 l 671 -21 q 555 14 604 -17 q 488 101 506 44 q 267 -26 399 -26 q 88 53 151 -26 q 25 272 25 133 q 69 503 25 390 q 211 690 114 615 q 458 765 308 765 m 450 593 q 319 494 361 593 q 276 272 276 396 q 295 180 276 206 q 347 154 314 154 q 471 247 414 154 l 519 582 q 450 593 482 593 m 436 1175 l 724 979 l 656 861 l 333 992 l 436 1175 z "},"ả":{"ha":796,"x_min":25,"x_max":774,"o":"m 458 765 q 620 745 539 765 q 774 683 701 725 l 707 225 q 704 193 704 200 q 712 158 704 171 q 740 138 719 146 l 671 -21 q 555 14 604 -17 q 488 101 506 44 q 267 -26 399 -26 q 88 53 151 -26 q 25 272 25 133 q 69 503 25 390 q 211 690 114 615 q 458 765 308 765 m 450 593 q 319 494 361 593 q 276 272 276 396 q 295 180 276 206 q 347 154 314 154 q 471 247 414 154 l 519 582 q 450 593 482 593 m 440 978 q 521 994 494 981 q 547 1035 547 1007 q 500 1069 547 1069 q 417 1051 461 1069 l 389 1150 q 540 1186 458 1186 q 665 1148 622 1186 q 708 1049 708 1110 q 572 908 708 933 l 563 838 l 424 838 l 440 978 z "},"ȃ":{"ha":796,"x_min":25,"x_max":774,"o":"m 458 765 q 620 745 539 765 q 774 683 701 725 l 707 225 q 704 193 704 200 q 712 158 704 171 q 740 138 719 146 l 671 -21 q 555 14 604 -17 q 488 101 506 44 q 267 -26 399 -26 q 88 53 151 -26 q 25 272 25 133 q 69 503 25 390 q 211 690 114 615 q 458 765 308 765 m 450 593 q 319 494 361 593 q 276 272 276 396 q 295 180 276 206 q 347 154 314 154 q 471 247 414 154 l 519 582 q 450 593 482 593 m 249 854 q 346 1036 272 964 q 531 1108 419 1108 q 697 1035 642 1108 q 744 851 751 961 l 610 832 q 581 910 606 882 q 513 939 557 939 q 378 829 422 939 l 249 854 z "},"ɑ":{"ha":796,"x_min":25,"x_max":782,"o":"m 707 225 q 704 193 704 200 q 712 158 704 171 q 740 138 719 146 l 671 -21 q 555 14 604 -17 q 488 101 506 44 q 269 -26 401 -26 q 88 53 150 -26 q 25 272 25 133 q 72 510 25 396 q 206 694 119 624 q 404 765 292 765 q 575 668 526 765 l 610 740 l 782 740 l 707 225 m 513 531 q 424 593 482 593 q 313 498 350 593 q 276 274 276 403 q 295 180 276 206 q 349 154 314 154 q 471 247 414 154 l 513 531 z "},"ɒ":{"ha":796,"x_min":14,"x_max":771,"o":"m 526 767 q 708 687 646 767 q 771 468 771 607 q 724 231 771 344 q 590 46 676 117 q 392 -25 504 -25 q 221 72 269 -25 l 186 0 l 14 0 l 89 515 q 92 547 92 540 q 84 582 92 569 q 56 603 76 594 l 125 761 q 241 726 192 757 q 308 639 290 696 q 526 767 394 767 m 372 147 q 483 242 446 147 q 519 467 519 338 q 501 560 519 535 q 447 586 482 586 q 325 493 382 586 l 283 210 q 372 147 314 147 z "},"ā":{"ha":796,"x_min":25,"x_max":774,"o":"m 458 765 q 620 745 539 765 q 774 683 701 725 l 707 225 q 704 193 704 200 q 712 158 704 171 q 740 138 719 146 l 671 -21 q 555 14 604 -17 q 488 101 506 44 q 267 -26 399 -26 q 88 53 151 -26 q 25 272 25 133 q 69 503 25 390 q 211 690 114 615 q 458 765 308 765 m 450 593 q 319 494 361 593 q 276 272 276 396 q 295 180 276 206 q 347 154 314 154 q 471 247 414 154 l 519 582 q 450 593 482 593 m 718 906 l 288 906 l 311 1075 l 742 1075 l 718 906 z "},"ą":{"ha":796,"x_min":25,"x_max":774,"o":"m 707 225 q 704 193 704 200 q 712 158 704 171 q 740 138 719 146 l 671 -21 q 527 -97 565 -57 q 489 -174 489 -137 q 549 -219 489 -219 q 636 -208 585 -219 l 603 -357 q 504 -368 554 -368 q 366 -328 419 -368 q 313 -218 313 -287 q 539 25 313 -60 q 488 101 501 56 q 267 -26 399 -26 q 88 53 151 -26 q 25 272 25 133 q 69 503 25 390 q 211 690 114 615 q 458 765 308 765 q 620 745 539 765 q 774 683 701 725 l 707 225 m 519 582 q 450 593 482 593 q 319 494 361 593 q 276 272 276 396 q 295 180 276 206 q 347 154 314 154 q 471 247 414 154 l 519 582 z "},"å":{"ha":796,"x_min":25,"x_max":774,"o":"m 458 765 q 620 745 539 765 q 774 683 701 725 l 707 225 q 704 193 704 200 q 712 158 704 171 q 740 138 719 146 l 671 -21 q 555 14 604 -17 q 488 101 506 44 q 267 -26 399 -26 q 88 53 151 -26 q 25 272 25 133 q 69 503 25 390 q 211 690 114 615 q 458 765 308 765 m 450 593 q 319 494 361 593 q 276 272 276 396 q 295 180 276 206 q 347 154 314 154 q 471 247 414 154 l 519 582 q 450 593 482 593 m 542 1218 q 673 1169 626 1218 q 719 1043 719 1121 q 692 940 719 989 q 612 862 664 892 q 493 832 560 832 q 364 881 411 832 q 317 1006 317 929 q 345 1108 317 1060 q 425 1188 374 1157 q 542 1218 476 1218 m 531 1094 q 476 1069 496 1094 q 456 1011 456 1043 q 469 971 456 985 q 506 957 482 957 q 560 981 540 957 q 581 1038 581 1006 q 567 1080 581 1065 q 531 1094 554 1094 z "},"ǻ":{"ha":796,"x_min":25,"x_max":774,"o":"m 458 765 q 620 745 539 765 q 774 683 701 725 l 707 225 q 704 193 704 200 q 712 158 704 171 q 740 138 719 146 l 671 -21 q 555 14 604 -17 q 488 101 506 44 q 267 -26 399 -26 q 88 53 151 -26 q 25 272 25 133 q 69 503 25 390 q 211 690 114 615 q 458 765 308 765 m 450 593 q 319 494 361 593 q 276 272 276 396 q 295 180 276 206 q 347 154 314 154 q 471 247 414 154 l 519 582 q 450 593 482 593 m 536 1185 q 667 1136 621 1185 q 714 1010 714 1088 q 686 907 714 956 q 606 828 658 858 q 488 799 554 799 q 358 847 406 799 q 311 972 311 896 q 340 1075 311 1026 q 419 1154 368 1124 q 536 1185 471 1185 m 525 1061 q 470 1035 490 1061 q 450 978 450 1010 q 463 938 450 951 q 500 924 476 924 q 555 948 535 924 q 575 1004 575 972 q 562 1047 575 1032 q 525 1061 549 1061 m 667 1486 l 743 1303 l 392 1182 l 339 1304 l 667 1486 z "},"ⱥ":{"ha":796,"x_min":25,"x_max":774,"o":"m 707 225 q 704 193 704 200 q 712 158 704 171 q 740 138 719 146 l 671 -21 q 555 14 604 -17 q 488 101 506 44 q 274 -26 403 -25 l 242 -106 l 163 -85 l 190 -15 q 67 83 110 8 q 25 272 25 158 q 69 503 25 390 q 211 690 114 615 q 458 765 308 765 q 508 764 492 765 l 538 836 l 615 817 l 589 751 q 774 683 690 731 l 707 225 m 264 272 q 275 190 264 221 l 443 604 q 307 500 350 599 q 264 272 264 401 m 533 593 l 525 596 l 343 143 q 415 167 379 143 q 479 235 450 190 l 533 593 z "},"ã":{"ha":796,"x_min":25,"x_max":789,"o":"m 458 765 q 620 745 539 765 q 774 683 701 725 l 707 225 q 704 193 704 200 q 712 158 704 171 q 740 138 719 146 l 671 -21 q 555 14 604 -17 q 488 101 506 44 q 267 -26 399 -26 q 88 53 151 -26 q 25 272 25 133 q 69 503 25 390 q 211 690 114 615 q 458 765 308 765 m 450 593 q 319 494 361 593 q 276 272 276 396 q 295 180 276 206 q 347 154 314 154 q 471 247 414 154 l 519 582 q 450 593 482 593 m 585 872 q 538 882 560 872 q 492 908 517 892 q 460 927 472 921 q 435 933 447 933 q 392 919 410 933 q 351 871 374 904 l 242 933 q 334 1059 281 1010 q 447 1108 388 1108 q 499 1099 478 1108 q 547 1071 519 1089 q 574 1053 563 1058 q 597 1047 585 1047 q 638 1062 619 1047 q 679 1108 657 1076 l 789 1047 q 697 921 750 969 q 585 872 643 872 z "},"ɐ":{"ha":744,"x_min":46,"x_max":742,"o":"m 292 254 q 289 221 289 229 q 309 167 289 182 q 381 151 329 151 q 574 188 461 151 l 617 29 q 476 -12 550 3 q 331 -26 401 -26 q 117 26 189 -26 q 46 188 46 78 q 50 244 46 215 l 89 514 q 92 544 92 536 q 83 581 92 568 q 56 603 75 594 l 125 761 q 235 731 194 756 q 297 657 276 707 q 401 740 342 714 q 528 765 461 765 q 685 710 628 765 q 742 558 742 654 q 637 351 742 421 q 360 281 532 281 l 296 281 l 292 254 m 438 590 q 378 574 406 590 q 331 531 350 558 l 314 413 l 351 413 q 460 442 422 413 q 497 531 497 472 q 482 574 497 558 q 438 590 467 590 z "},"æ":{"ha":1164,"x_min":4,"x_max":1161,"o":"m 401 765 q 538 742 486 765 q 625 671 589 718 q 735 740 668 714 q 875 765 801 765 q 1085 707 1010 765 q 1161 558 1161 649 q 688 268 1161 313 q 723 178 692 203 q 810 153 754 153 q 899 169 856 153 q 996 221 942 185 l 1082 76 q 778 -26 938 -26 q 611 5 681 -26 q 504 94 542 36 q 378 1 444 29 q 233 -26 311 -26 q 67 29 129 -26 q 4 176 4 85 q 93 374 4 294 q 396 453 182 453 l 468 453 q 492 518 475 478 q 451 568 485 550 q 367 586 417 586 q 168 550 276 586 l 131 711 q 401 765 271 765 m 849 606 q 750 550 788 606 q 699 411 713 494 q 829 440 781 417 q 897 490 878 463 q 917 543 917 518 q 849 606 917 606 m 399 314 q 297 288 333 314 q 261 213 261 263 q 325 150 261 150 q 388 168 358 150 q 453 222 417 186 q 449 314 446 257 l 399 314 z "},"ǽ":{"ha":1164,"x_min":4,"x_max":1161,"o":"m 401 765 q 538 742 486 765 q 625 671 589 718 q 735 740 668 714 q 875 765 801 765 q 1085 707 1010 765 q 1161 558 1161 649 q 688 268 1161 313 q 723 178 692 203 q 810 153 754 153 q 899 169 856 153 q 996 221 942 185 l 1082 76 q 778 -26 938 -26 q 611 5 681 -26 q 504 94 542 36 q 378 1 444 29 q 233 -26 311 -26 q 67 29 129 -26 q 4 176 4 85 q 93 374 4 294 q 396 453 182 453 l 468 453 q 492 518 475 478 q 451 568 485 550 q 367 586 417 586 q 168 550 276 586 l 131 711 q 401 765 271 765 m 849 606 q 750 550 788 606 q 699 411 713 494 q 829 440 781 417 q 897 490 878 463 q 917 543 917 518 q 849 606 917 606 m 399 314 q 297 288 333 314 q 261 213 261 263 q 325 150 261 150 q 388 168 358 150 q 453 222 417 186 q 449 314 446 257 l 399 314 m 799 1175 l 875 992 l 524 858 l 469 982 l 799 1175 z "},"ǣ":{"ha":1164,"x_min":4,"x_max":1161,"o":"m 401 765 q 538 742 486 765 q 625 671 589 718 q 735 740 668 714 q 875 765 801 765 q 1085 707 1010 765 q 1161 558 1161 649 q 688 268 1161 313 q 723 178 692 203 q 810 153 754 153 q 899 169 856 153 q 996 221 942 185 l 1082 76 q 778 -26 938 -26 q 611 5 681 -26 q 504 94 542 36 q 378 1 444 29 q 233 -26 311 -26 q 67 29 129 -26 q 4 176 4 85 q 93 374 4 294 q 396 453 182 453 l 468 453 q 492 518 475 478 q 451 568 485 550 q 367 586 417 586 q 168 550 276 586 l 131 711 q 401 765 271 765 m 849 606 q 750 550 788 606 q 699 411 713 494 q 829 440 781 417 q 897 490 878 463 q 917 543 917 518 q 849 606 917 606 m 399 314 q 297 288 333 314 q 261 213 261 263 q 325 150 261 150 q 388 168 358 150 q 453 222 417 186 q 449 314 446 257 l 399 314 m 875 906 l 444 906 l 468 1075 l 899 1075 l 875 906 z "},"b":{"ha":808,"x_min":24,"x_max":782,"o":"m 556 765 q 724 691 667 765 q 782 478 782 617 q 743 240 782 354 q 606 50 704 126 q 339 -26 507 -26 q 24 40 182 -26 l 163 1032 l 408 1057 l 356 681 q 448 742 394 719 q 556 765 501 765 m 457 586 q 332 507 390 586 l 285 168 q 367 153 328 153 q 461 202 424 153 q 515 324 499 251 q 532 469 532 397 q 512 560 532 535 q 457 586 492 586 z "},"ḃ":{"ha":808,"x_min":24,"x_max":782,"o":"m 556 765 q 724 691 667 765 q 782 478 782 617 q 743 240 782 354 q 606 50 704 126 q 339 -26 507 -26 q 24 40 182 -26 l 163 1032 l 408 1057 l 356 681 q 448 742 394 719 q 556 765 501 765 m 457 586 q 332 507 390 586 l 285 168 q 367 153 328 153 q 461 202 424 153 q 515 324 499 251 q 532 469 532 397 q 512 560 532 535 q 457 586 492 586 m 556 1108 q 465 1142 499 1108 q 431 1228 431 1175 q 476 1337 431 1293 q 588 1381 521 1381 q 678 1347 644 1381 q 713 1261 713 1314 q 667 1152 713 1196 q 556 1108 622 1108 z "},"ḅ":{"ha":808,"x_min":24,"x_max":782,"o":"m 556 765 q 724 691 667 765 q 782 478 782 617 q 743 240 782 354 q 606 50 704 126 q 339 -26 507 -26 q 24 40 182 -26 l 163 1032 l 408 1057 l 356 681 q 448 742 394 719 q 556 765 501 765 m 457 586 q 332 507 390 586 l 285 168 q 367 153 328 153 q 461 202 424 153 q 515 324 499 251 q 532 469 532 397 q 512 560 532 535 q 457 586 492 586 m 338 -78 q 428 -111 394 -78 q 463 -197 463 -144 q 417 -306 463 -262 q 306 -350 372 -350 q 215 -317 249 -350 q 181 -231 181 -283 q 226 -122 181 -165 q 338 -78 271 -78 z "},"ꞵ":{"ha":831,"x_min":-26,"x_max":796,"o":"m 125 763 q 244 979 144 901 q 489 1057 343 1057 q 649 1026 581 1057 q 752 942 717 996 q 788 821 788 888 q 736 661 788 735 q 568 563 685 588 q 728 503 661 557 q 796 339 796 449 q 758 174 796 258 q 642 31 721 89 q 443 -26 563 -26 q 257 33 326 -26 l 213 -279 l -26 -312 l 125 763 m 389 163 q 513 219 474 163 q 553 350 553 276 q 418 471 553 471 l 368 471 l 404 635 l 426 635 q 517 688 488 635 q 547 800 547 740 q 528 864 547 842 q 471 886 508 886 q 397 855 425 886 q 358 761 368 824 l 279 190 q 389 163 322 163 z "},"ɓ":{"ha":808,"x_min":24,"x_max":782,"o":"m 553 765 q 724 691 667 765 q 782 478 782 617 q 743 240 782 354 q 606 50 704 126 q 339 -26 507 -26 q 24 40 182 -26 l 122 739 l 121 739 l 129 796 q 230 984 146 911 q 454 1057 314 1057 q 565 1043 511 1057 q 657 1007 619 1029 l 572 851 q 468 878 526 878 q 402 856 425 878 q 371 781 379 833 l 365 739 l 357 681 q 449 742 394 719 q 553 765 503 765 m 367 153 q 461 202 424 153 q 515 324 499 251 q 532 469 532 397 q 512 560 532 535 q 456 586 492 586 q 332 507 390 586 l 285 168 q 367 153 328 153 z "},"ʭ":{"ha":518,"x_min":-6,"x_max":529,"o":"m 497 554 l 356 554 l 371 668 l 229 668 l 213 554 l 71 554 l 103 790 l 529 790 l 497 554 m 421 -1 l 279 -1 l 294 113 l 153 113 l 136 -1 l -6 -1 l 26 235 l 453 235 l 421 -1 z "},"ʘ":{"ha":1093,"x_min":46,"x_max":1079,"o":"m 631 990 q 869 940 768 990 q 1025 794 971 889 q 1079 569 1079 699 q 1006 265 1079 400 q 799 51 932 129 q 496 -26 667 -26 q 257 26 358 -26 q 101 174 156 78 q 46 399 46 269 q 120 704 46 569 q 328 915 194 839 q 631 990 461 990 m 614 822 q 431 764 504 822 q 322 607 357 706 q 285 386 286 508 q 344 203 285 263 q 513 143 403 143 q 696 201 622 143 q 805 356 769 258 q 840 575 840 454 q 780 761 840 700 q 614 822 719 822 m 553 368 q 477 396 506 368 q 449 468 449 424 q 487 559 449 522 q 579 596 525 596 q 656 568 626 596 q 685 496 685 540 q 647 405 685 442 q 553 368 608 368 z "},"ʬ":{"ha":651,"x_min":47,"x_max":685,"o":"m 685 928 l 551 556 l 403 556 l 396 825 l 310 556 l 163 556 l 125 928 l 233 928 l 250 638 l 342 928 l 479 928 l 488 636 l 579 928 l 685 928 m 607 372 l 474 0 l 325 0 l 318 269 l 232 0 l 85 0 l 47 372 l 156 372 l 172 82 l 264 372 l 401 372 l 410 81 l 501 372 l 607 372 z "},"ƀ":{"ha":825,"x_min":39,"x_max":797,"o":"m 571 765 q 740 691 682 765 q 797 478 797 617 q 758 240 797 354 q 621 50 719 126 q 354 -26 522 -26 q 39 40 197 -26 l 149 824 l 71 824 l 90 961 l 168 961 l 178 1032 l 424 1057 l 410 961 l 594 961 l 556 824 l 390 824 l 371 681 q 463 742 410 719 q 571 765 517 765 m 382 153 q 476 202 439 153 q 531 324 514 251 q 547 469 547 397 q 527 560 547 535 q 472 586 507 586 q 347 507 406 586 l 300 168 q 382 153 343 153 z "},"ƃ":{"ha":811,"x_min":24,"x_max":782,"o":"m 557 743 q 725 668 668 743 q 782 453 782 593 q 743 233 782 342 q 605 49 704 125 q 339 -26 506 -26 q 24 40 182 -26 l 163 1032 l 706 1032 l 654 857 l 381 857 l 379 858 l 351 657 q 447 720 392 697 q 557 743 501 743 m 367 153 q 460 201 424 153 q 515 317 497 249 q 532 444 532 385 q 512 538 532 513 q 456 564 492 564 q 329 483 386 564 l 285 168 q 367 153 328 153 z "},"c":{"ha":653,"x_min":26,"x_max":696,"o":"m 453 765 q 696 667 600 765 l 578 526 q 454 578 522 578 q 321 490 360 578 q 282 290 282 403 q 309 195 282 222 q 388 168 336 168 q 453 180 422 168 q 526 218 485 192 l 615 61 q 354 -26 494 -26 q 113 61 200 -26 q 26 297 26 149 q 72 511 26 403 q 213 692 117 619 q 453 765 308 765 z "},"ć":{"ha":653,"x_min":26,"x_max":696,"o":"m 453 765 q 696 667 600 765 l 578 526 q 454 578 522 578 q 321 490 360 578 q 282 290 282 403 q 309 195 282 222 q 388 168 336 168 q 453 180 422 168 q 526 218 485 192 l 615 61 q 354 -26 494 -26 q 113 61 200 -26 q 26 297 26 149 q 72 511 26 403 q 213 692 117 619 q 453 765 308 765 m 611 1175 l 688 992 l 336 858 l 282 982 l 611 1175 z "},"č":{"ha":653,"x_min":26,"x_max":758,"o":"m 453 765 q 696 667 600 765 l 578 526 q 454 578 522 578 q 321 490 360 578 q 282 290 282 403 q 309 195 282 222 q 388 168 336 168 q 453 180 422 168 q 526 218 485 192 l 615 61 q 354 -26 494 -26 q 113 61 200 -26 q 26 297 26 149 q 72 511 26 403 q 213 692 117 619 q 453 765 308 765 m 681 1142 l 758 1043 l 536 843 l 389 843 l 221 1043 l 313 1142 l 478 1011 l 681 1142 z "},"ç":{"ha":653,"x_min":26,"x_max":696,"o":"m 615 61 q 392 -25 510 -15 l 385 -62 q 482 -105 449 -71 q 515 -193 515 -139 q 492 -276 515 -235 q 415 -346 468 -318 q 281 -374 363 -374 q 122 -326 188 -374 l 190 -219 q 274 -242 231 -242 q 343 -200 343 -242 q 315 -169 343 -178 q 222 -161 288 -161 l 258 -17 q 87 92 147 10 q 26 297 26 174 q 72 511 26 403 q 213 692 117 619 q 453 765 308 765 q 696 667 600 765 l 578 526 q 454 578 522 578 q 321 490 360 578 q 282 290 282 403 q 309 195 282 222 q 388 168 336 168 q 453 180 422 168 q 526 218 485 192 l 615 61 z "},"ĉ":{"ha":653,"x_min":26,"x_max":744,"o":"m 453 765 q 696 667 600 765 l 578 526 q 454 578 522 578 q 321 490 360 578 q 282 290 282 403 q 309 195 282 222 q 388 168 336 168 q 453 180 422 168 q 526 218 485 192 l 615 61 q 354 -26 494 -26 q 113 61 200 -26 q 26 297 26 149 q 72 511 26 403 q 213 692 117 619 q 453 765 308 765 m 282 856 l 207 954 l 429 1154 l 576 1154 l 744 954 l 647 856 l 483 986 l 282 856 z "},"ɕ":{"ha":696,"x_min":28,"x_max":696,"o":"m 501 363 q 619 322 575 363 q 664 208 664 282 q 581 35 664 96 q 371 -26 499 -26 q 274 -17 319 -26 l 214 -121 l 108 -76 l 167 25 q 63 133 99 63 q 28 300 28 203 q 73 513 28 406 q 214 693 118 621 q 453 765 310 765 q 696 667 601 765 l 578 526 q 454 578 525 578 q 322 490 361 578 q 282 290 282 403 q 289 225 282 253 q 382 331 331 299 q 501 363 433 363 m 419 147 q 481 163 458 147 q 503 208 503 178 q 472 236 503 236 q 421 216 446 236 q 369 153 396 196 q 419 147 390 147 z "},"ċ":{"ha":653,"x_min":26,"x_max":696,"o":"m 453 765 q 696 667 600 765 l 578 526 q 454 578 522 578 q 321 490 360 578 q 282 290 282 403 q 309 195 282 222 q 388 168 336 168 q 453 180 422 168 q 526 218 485 192 l 615 61 q 354 -26 494 -26 q 113 61 200 -26 q 26 297 26 149 q 72 511 26 403 q 213 692 117 619 q 453 765 308 765 m 469 867 q 378 900 413 867 q 344 986 344 933 q 390 1095 344 1051 q 501 1139 435 1139 q 592 1106 558 1139 q 626 1019 626 1072 q 581 910 626 954 q 469 867 536 867 z "},"ƈ":{"ha":653,"x_min":26,"x_max":961,"o":"m 774 1057 q 961 1004 885 1057 l 876 854 q 792 878 833 878 q 738 858 757 878 q 713 796 719 838 l 696 667 l 593 543 q 454 578 521 578 q 321 490 360 578 q 282 290 282 403 q 309 195 282 222 q 388 168 336 168 q 453 180 422 168 q 526 218 485 192 l 615 61 q 354 -26 494 -26 q 113 61 200 -26 q 26 297 26 149 q 72 509 26 400 q 206 692 117 618 q 417 765 294 765 q 496 754 456 765 l 506 817 q 589 995 522 933 q 774 1057 656 1057 z "},"ʗ":{"ha":664,"x_min":13,"x_max":710,"o":"m 482 765 q 710 669 622 765 l 594 533 q 481 578 542 578 q 358 497 407 578 q 288 300 310 417 q 265 74 265 183 q 291 -74 265 -31 q 367 -118 317 -118 q 431 -106 400 -118 q 499 -68 461 -94 l 586 -224 q 335 -311 467 -311 q 97 -209 179 -311 q 13 78 14 -107 q 67 415 13 257 q 228 669 122 572 q 482 765 335 765 z "},"ȼ":{"ha":653,"x_min":26,"x_max":696,"o":"m 388 168 q 453 180 422 168 q 526 218 485 192 l 615 61 q 354 -26 494 -26 q 297 -24 333 -26 l 264 -106 l 185 -85 l 218 -4 q 76 108 126 29 q 26 297 26 186 q 72 511 26 403 q 213 692 117 619 q 453 765 308 765 q 528 758 489 765 l 560 836 l 639 817 l 604 732 q 696 667 656 710 l 578 526 q 533 558 557 546 l 375 168 l 388 168 m 282 290 q 303 204 282 233 l 454 578 q 321 490 360 578 q 282 290 282 403 z "},"d":{"ha":813,"x_min":25,"x_max":836,"o":"m 836 1032 l 692 0 l 475 0 l 476 100 q 257 -26 388 -26 q 84 52 143 -26 q 25 274 25 131 q 64 499 25 385 q 183 689 103 613 q 383 765 264 765 q 475 748 433 765 q 546 700 517 731 l 594 1057 l 836 1032 m 438 588 q 343 537 379 588 q 292 414 307 486 q 276 274 276 342 q 294 180 276 206 q 344 154 313 154 q 486 279 410 154 l 524 546 q 438 588 488 588 z "},"ð":{"ha":797,"x_min":22,"x_max":767,"o":"m 571 931 q 720 750 674 851 q 767 519 767 649 q 716 240 767 364 q 569 44 665 115 q 342 -26 474 -26 q 177 9 250 -26 q 63 112 104 44 q 22 272 22 179 q 61 459 22 368 q 177 609 100 550 q 360 668 254 668 q 454 653 414 668 q 531 608 494 638 q 494 713 518 668 q 425 799 471 757 l 346 728 l 203 799 l 283 874 q 174 899 240 886 l 240 1056 q 429 1007 344 1039 l 547 1118 l 657 1010 l 571 931 m 360 153 q 445 190 414 153 q 492 289 476 226 q 519 454 507 351 q 411 497 478 497 q 303 427 336 497 q 271 264 271 357 q 360 153 271 153 z "},"ȸ":{"ha":1183,"x_min":25,"x_max":1158,"o":"m 951 765 q 1105 691 1051 765 q 1158 481 1158 617 q 1116 235 1157 351 q 999 46 1075 118 q 821 -26 922 -26 q 727 2 768 -26 q 661 88 686 31 l 636 0 l 447 0 l 447 97 q 358 6 411 39 q 243 -26 306 -26 q 83 52 140 -26 q 25 267 25 131 q 67 508 25 393 q 187 694 108 624 q 367 765 265 765 q 451 744 413 765 q 515 681 490 722 l 564 1032 l 811 1057 l 757 671 q 847 740 796 715 q 951 765 897 765 m 344 154 q 454 251 401 154 l 494 532 q 417 588 463 588 q 338 538 369 588 q 291 416 306 489 q 276 274 276 343 q 294 180 276 206 q 344 154 313 154 m 771 153 q 848 204 817 153 q 893 329 879 256 q 907 471 907 403 q 890 560 907 535 q 843 586 872 586 q 735 515 792 586 l 696 229 q 728 171 710 189 q 771 153 747 153 z "},"ď":{"ha":949,"x_min":25,"x_max":1076,"o":"m 836 1032 l 692 0 l 475 0 l 476 100 q 257 -26 388 -26 q 84 52 143 -26 q 25 274 25 131 q 64 499 25 385 q 183 689 103 613 q 383 765 264 765 q 475 748 433 765 q 546 700 517 731 l 594 1057 l 836 1032 m 438 588 q 343 537 379 588 q 292 414 307 486 q 276 274 276 342 q 294 180 276 206 q 344 154 313 154 q 486 279 410 154 l 524 546 q 438 588 488 588 m 901 1053 l 1076 1031 l 968 718 l 846 729 l 901 1053 z "},"ḓ":{"ha":813,"x_min":25,"x_max":836,"o":"m 836 1032 l 692 0 l 475 0 l 476 100 q 257 -26 388 -26 q 84 52 143 -26 q 25 274 25 131 q 64 499 25 385 q 183 689 103 613 q 383 765 264 765 q 475 748 433 765 q 546 700 517 731 l 594 1057 l 836 1032 m 438 588 q 343 537 379 588 q 292 414 307 486 q 276 274 276 342 q 294 180 276 206 q 344 154 313 154 q 486 279 410 154 l 524 546 q 438 588 488 588 m 124 -385 l 49 -285 l 271 -85 l 418 -85 l 586 -285 l 489 -385 l 325 -254 l 124 -385 z "},"đ":{"ha":828,"x_min":25,"x_max":903,"o":"m 883 824 l 807 824 l 692 0 l 475 0 l 476 100 q 257 -26 388 -26 q 84 52 143 -26 q 25 274 25 131 q 64 499 25 385 q 183 689 103 613 q 383 765 264 765 q 475 748 433 765 q 546 700 517 731 l 563 824 l 394 824 l 396 961 l 582 961 l 594 1057 l 836 1032 l 826 961 l 903 961 l 883 824 m 524 546 q 438 588 488 588 q 343 537 379 588 q 292 414 307 486 q 276 274 276 342 q 294 180 276 206 q 344 154 313 154 q 486 279 410 154 l 524 546 z "},"ȡ":{"ha":1103,"x_min":25,"x_max":1083,"o":"m 925 350 q 1039 310 994 350 q 1083 206 1083 271 q 999 35 1083 97 q 789 -26 915 -26 q 715 -21 744 -26 l 657 -121 l 553 -76 l 608 15 q 500 128 533 56 q 390 14 449 54 q 257 -26 331 -26 q 83 52 140 -26 q 25 274 25 131 q 63 500 25 388 q 183 689 100 613 q 392 765 265 765 q 477 748 438 765 q 546 700 517 731 l 594 1057 l 836 1032 l 728 263 q 725 210 724 229 l 726 213 q 813 317 767 285 q 925 350 860 350 m 524 543 q 485 577 506 567 q 438 588 465 588 q 343 537 379 588 q 292 414 307 486 q 276 274 276 342 q 294 180 276 206 q 346 154 313 154 q 417 189 382 154 q 486 279 451 224 l 524 543 m 838 147 q 899 161 875 147 q 922 200 922 175 q 894 225 922 225 q 856 208 874 225 q 811 149 838 192 q 838 147 819 147 z "},"ḋ":{"ha":813,"x_min":25,"x_max":836,"o":"m 836 1032 l 692 0 l 475 0 l 476 100 q 257 -26 388 -26 q 84 52 143 -26 q 25 274 25 131 q 64 499 25 385 q 183 689 103 613 q 383 765 264 765 q 475 748 433 765 q 546 700 517 731 l 594 1057 l 836 1032 m 438 588 q 343 537 379 588 q 292 414 307 486 q 276 274 276 342 q 294 180 276 206 q 344 154 313 154 q 486 279 410 154 l 524 546 q 438 588 488 588 m 488 1108 q 397 1142 431 1108 q 363 1228 363 1175 q 408 1337 363 1293 q 519 1381 453 1381 q 610 1347 576 1381 q 644 1261 644 1314 q 599 1152 644 1196 q 488 1108 554 1108 z "},"ḍ":{"ha":813,"x_min":25,"x_max":836,"o":"m 836 1032 l 692 0 l 475 0 l 476 100 q 257 -26 388 -26 q 84 52 143 -26 q 25 274 25 131 q 64 499 25 385 q 183 689 103 613 q 383 765 264 765 q 475 748 433 765 q 546 700 517 731 l 594 1057 l 836 1032 m 438 588 q 343 537 379 588 q 292 414 307 486 q 276 274 276 342 q 294 180 276 206 q 344 154 313 154 q 486 279 410 154 l 524 546 q 438 588 488 588 m 347 -78 q 438 -111 404 -78 q 472 -197 472 -144 q 427 -306 472 -262 q 315 -350 382 -350 q 224 -317 258 -350 q 190 -231 190 -283 q 235 -122 190 -165 q 347 -78 281 -78 z "},"ƍ":{"ha":789,"x_min":24,"x_max":764,"o":"m 297 -312 q 24 -206 124 -312 l 144 -87 q 214 -133 179 -118 q 294 -147 249 -147 q 363 -128 339 -147 q 386 -78 386 -108 q 364 -34 386 -53 q 274 14 342 -15 q 89 139 147 68 q 31 321 31 210 q 72 522 31 419 q 207 694 114 624 q 444 765 300 765 q 615 726 543 765 q 726 618 688 686 q 764 467 764 550 q 706 246 764 340 q 506 97 647 151 q 592 11 567 56 q 617 -83 617 -33 q 581 -194 617 -142 q 474 -279 546 -246 q 297 -312 401 -312 m 388 161 q 489 299 463 222 q 515 469 515 375 q 492 556 515 526 q 426 586 469 586 q 315 502 350 586 q 279 311 279 418 q 303 227 279 260 q 388 161 326 194 z "},"ʤ":{"ha":1413,"x_min":25,"x_max":1397,"o":"m 1376 572 l 1101 297 q 1284 226 1219 286 q 1349 60 1349 165 q 1294 -135 1349 -50 q 1142 -265 1239 -219 q 924 -311 1044 -311 q 610 -162 714 -311 l 751 -40 q 835 -106 794 -86 q 928 -125 875 -125 q 1053 -76 1007 -125 q 1099 58 1099 -28 q 1064 136 1099 114 q 958 158 1029 158 l 825 158 l 843 297 l 1094 557 l 769 557 l 692 0 l 475 0 l 476 100 q 257 -26 388 -26 q 84 52 143 -26 q 25 274 25 131 q 64 499 25 385 q 183 689 103 613 q 383 765 264 765 q 475 748 433 765 q 546 700 517 731 l 594 1057 l 836 1032 l 796 740 l 1397 740 l 1376 572 m 524 546 q 438 588 488 588 q 343 537 379 588 q 292 414 307 486 q 276 274 276 342 q 294 180 276 206 q 344 154 313 154 q 486 279 410 154 l 524 546 z "},"ɗ":{"ha":813,"x_min":25,"x_max":1051,"o":"m 864 1057 q 1051 1004 975 1057 l 967 854 q 881 878 922 878 q 828 858 847 878 q 801 796 808 838 l 793 740 l 794 740 l 692 0 l 475 0 l 476 100 q 257 -26 388 -26 q 83 52 140 -26 q 25 274 25 131 q 63 500 25 388 q 183 689 100 613 q 392 765 265 765 q 477 748 438 765 q 546 700 517 731 l 551 740 l 550 740 l 558 794 q 653 985 574 913 q 864 1057 733 1057 m 524 543 q 485 577 506 567 q 438 588 465 588 q 343 537 379 588 q 292 414 307 486 q 276 274 276 342 q 294 180 276 206 q 346 154 313 154 q 486 279 410 154 l 524 543 z "},"ḏ":{"ha":813,"x_min":25,"x_max":836,"o":"m 836 1032 l 692 0 l 475 0 l 476 100 q 257 -26 388 -26 q 84 52 143 -26 q 25 274 25 131 q 64 499 25 385 q 183 689 103 613 q 383 765 264 765 q 475 748 433 765 q 546 700 517 731 l 594 1057 l 836 1032 m 438 588 q 343 537 379 588 q 292 414 307 486 q 276 274 276 342 q 294 180 276 206 q 344 154 313 154 q 486 279 410 154 l 524 546 q 438 588 488 588 m 143 -104 l 574 -104 l 550 -274 l 119 -274 l 143 -104 z "},"ɖ":{"ha":826,"x_min":25,"x_max":907,"o":"m 907 -253 q 694 -311 818 -311 q 507 -252 574 -311 q 440 -79 440 -193 q 443 -31 440 -64 l 447 0 l 449 0 l 461 85 q 381 7 435 40 q 257 -26 328 -26 q 83 52 140 -26 q 25 274 25 131 q 63 500 25 388 q 183 689 100 613 q 392 765 265 765 q 477 748 438 765 q 546 700 517 731 l 594 1057 l 836 1032 l 692 0 l 690 0 l 683 -57 q 682 -75 682 -64 q 744 -135 682 -135 q 792 -128 772 -135 q 844 -108 813 -122 l 907 -253 m 346 154 q 486 279 410 154 l 524 543 q 485 577 506 567 q 438 588 465 588 q 343 537 379 588 q 292 414 307 486 q 276 274 276 342 q 294 180 276 206 q 346 154 313 154 z "},"ƌ":{"ha":813,"x_min":25,"x_max":836,"o":"m 692 0 l 475 0 l 476 100 q 257 -26 388 -26 q 83 52 140 -26 q 25 274 25 131 q 63 492 25 385 q 181 672 100 600 q 382 743 261 743 q 473 726 432 743 q 542 678 514 708 l 567 857 l 281 857 l 306 1032 l 836 1032 l 692 0 m 521 521 q 482 554 501 544 q 433 564 463 564 q 343 518 378 564 q 292 406 308 472 q 276 274 276 339 q 294 180 276 206 q 346 154 313 154 q 486 279 410 154 l 521 521 z "},"ǳ":{"ha":1444,"x_min":25,"x_max":1471,"o":"m 836 1032 l 692 0 l 475 0 l 476 100 q 257 -26 388 -26 q 84 52 143 -26 q 25 274 25 131 q 64 499 25 385 q 183 689 103 613 q 383 765 264 765 q 475 748 433 765 q 546 700 517 731 l 594 1057 l 836 1032 m 438 588 q 343 537 379 588 q 292 414 307 486 q 276 274 276 342 q 294 180 276 206 q 344 154 313 154 q 486 279 410 154 l 524 546 q 438 588 488 588 m 1471 740 l 1447 567 l 1100 185 l 1401 185 l 1354 0 l 771 0 l 793 174 l 1144 557 l 876 557 l 901 740 l 1471 740 z "},"ʣ":{"ha":1363,"x_min":25,"x_max":1388,"o":"m 1365 567 l 1004 185 l 1319 185 l 1272 0 l 475 0 l 476 100 q 257 -26 388 -26 q 84 52 143 -26 q 25 274 25 131 q 64 499 25 385 q 183 689 103 613 q 383 765 264 765 q 475 748 433 765 q 546 700 517 731 l 594 1057 l 836 1032 l 796 740 l 1388 740 l 1365 567 m 524 546 q 438 588 488 588 q 343 537 379 588 q 292 414 307 486 q 276 274 276 342 q 294 180 276 206 q 344 154 313 154 q 486 279 410 154 l 524 546 m 715 174 l 1071 557 l 769 557 l 715 174 z "},"ǆ":{"ha":1444,"x_min":25,"x_max":1496,"o":"m 836 1032 l 692 0 l 475 0 l 476 100 q 257 -26 388 -26 q 84 52 143 -26 q 25 274 25 131 q 64 499 25 385 q 183 689 103 613 q 383 765 264 765 q 475 748 433 765 q 546 700 517 731 l 594 1057 l 836 1032 m 438 588 q 343 537 379 588 q 292 414 307 486 q 276 274 276 342 q 294 180 276 206 q 344 154 313 154 q 486 279 410 154 l 524 546 q 438 588 488 588 m 1471 740 l 1447 567 l 1100 185 l 1401 185 l 1354 0 l 771 0 l 793 174 l 1144 557 l 876 557 l 901 740 l 1471 740 m 1418 1142 l 1496 1043 l 1274 843 l 1126 843 l 958 1043 l 1050 1142 l 1215 1011 l 1418 1142 z "},"ʥ":{"ha":1507,"x_min":25,"x_max":1513,"o":"m 1347 392 q 1467 352 1421 392 q 1513 242 1513 313 q 1428 58 1513 118 q 1193 0 1343 -1 l 1203 28 l 1189 0 l 1182 0 q 1158 -132 1171 -40 l 1150 -183 l 1015 -179 q 1049 0 1033 -62 l 475 0 l 476 100 q 257 -26 388 -26 q 84 52 143 -26 q 25 274 25 131 q 64 499 25 385 q 183 689 103 613 q 383 765 264 765 q 475 748 433 765 q 546 700 517 731 l 594 1057 l 836 1032 l 796 740 l 1388 740 l 1365 578 l 992 185 l 1099 185 q 1206 344 1144 296 q 1347 392 1268 392 m 524 546 q 438 588 488 588 q 343 537 379 588 q 292 414 307 486 q 276 274 276 342 q 294 180 276 206 q 344 154 313 154 q 486 279 410 154 l 524 546 m 769 557 l 717 179 l 1078 557 l 769 557 m 1260 185 q 1327 198 1303 185 q 1351 238 1351 211 q 1321 267 1351 267 q 1235 185 1267 267 l 1260 185 z "},"e":{"ha":746,"x_min":26,"x_max":743,"o":"m 743 558 q 271 267 743 311 q 392 153 278 153 q 481 169 438 153 q 578 221 524 185 l 664 76 q 361 -26 519 -26 q 111 59 196 -26 q 26 290 26 144 q 70 510 26 401 q 211 692 114 619 q 458 765 308 765 q 668 707 593 765 q 743 558 743 649 m 281 411 q 449 458 400 418 q 499 547 499 499 q 484 589 499 572 q 436 606 469 606 q 335 551 374 606 q 281 411 297 496 z "},"é":{"ha":746,"x_min":26,"x_max":743,"o":"m 743 558 q 271 267 743 311 q 392 153 278 153 q 481 169 438 153 q 578 221 524 185 l 664 76 q 361 -26 519 -26 q 111 59 196 -26 q 26 290 26 144 q 70 510 26 401 q 211 692 114 619 q 458 765 308 765 q 668 707 593 765 q 743 558 743 649 m 281 411 q 449 458 400 418 q 499 547 499 499 q 484 589 499 572 q 436 606 469 606 q 335 551 374 606 q 281 411 297 496 m 601 1175 l 678 992 l 326 858 l 272 982 l 601 1175 z "},"ĕ":{"ha":746,"x_min":26,"x_max":743,"o":"m 743 558 q 271 267 743 311 q 392 153 278 153 q 481 169 438 153 q 578 221 524 185 l 664 76 q 361 -26 519 -26 q 111 59 196 -26 q 26 290 26 144 q 70 510 26 401 q 211 692 114 619 q 458 765 308 765 q 668 707 593 765 q 743 558 743 649 m 281 411 q 449 458 400 418 q 499 547 499 499 q 484 589 499 572 q 436 606 469 606 q 335 551 374 606 q 281 411 297 496 m 450 874 q 285 947 339 874 q 239 1132 232 1021 l 371 1151 q 398 1072 374 1100 q 467 1043 422 1043 q 547 1073 513 1043 q 599 1154 581 1103 l 725 1128 q 631 946 703 1018 q 450 874 560 874 z "},"ě":{"ha":746,"x_min":26,"x_max":749,"o":"m 743 558 q 271 267 743 311 q 392 153 278 153 q 481 169 438 153 q 578 221 524 185 l 664 76 q 361 -26 519 -26 q 111 59 196 -26 q 26 290 26 144 q 70 510 26 401 q 211 692 114 619 q 458 765 308 765 q 668 707 593 765 q 743 558 743 649 m 281 411 q 449 458 400 418 q 499 547 499 499 q 484 589 499 572 q 436 606 469 606 q 335 551 374 606 q 281 411 297 496 m 671 1142 l 749 1043 l 526 843 l 379 843 l 211 1043 l 303 1142 l 468 1011 l 671 1142 z "},"ȩ":{"ha":746,"x_min":26,"x_max":743,"o":"m 743 558 q 271 267 743 311 q 392 153 278 153 q 481 169 438 153 q 578 221 524 185 l 664 76 q 413 -24 546 -8 l 406 -62 q 503 -105 469 -71 q 536 -193 536 -139 q 513 -276 536 -235 q 436 -346 489 -318 q 301 -374 383 -374 q 143 -326 208 -374 l 211 -219 q 294 -242 251 -242 q 364 -200 364 -242 q 336 -169 364 -178 q 243 -161 308 -161 l 278 -19 q 90 83 153 1 q 26 290 26 164 q 70 510 26 401 q 211 692 114 619 q 458 765 308 765 q 668 707 593 765 q 743 558 743 649 m 281 411 q 449 458 400 418 q 499 547 499 499 q 484 589 499 572 q 436 606 469 606 q 335 551 374 606 q 281 411 297 496 z "},"ê":{"ha":746,"x_min":26,"x_max":743,"o":"m 743 558 q 271 267 743 311 q 392 153 278 153 q 481 169 438 153 q 578 221 524 185 l 664 76 q 361 -26 519 -26 q 111 59 196 -26 q 26 290 26 144 q 70 510 26 401 q 211 692 114 619 q 458 765 308 765 q 668 707 593 765 q 743 558 743 649 m 281 411 q 449 458 400 418 q 499 547 499 499 q 484 589 499 572 q 436 606 469 606 q 335 551 374 606 q 281 411 297 496 m 272 856 l 197 954 l 419 1154 l 567 1154 l 735 954 l 638 856 l 474 986 l 272 856 z "},"ế":{"ha":746,"x_min":26,"x_max":942,"o":"m 942 1226 l 689 1026 l 607 1108 l 825 1356 l 942 1226 m 463 929 l 263 810 l 186 908 l 408 1097 l 556 1097 l 724 908 l 631 810 l 463 929 m 458 765 q 668 707 593 765 q 743 558 743 649 q 271 267 743 311 q 392 153 278 153 q 481 169 438 153 q 578 221 524 185 l 664 76 q 361 -26 519 -26 q 111 59 196 -26 q 26 290 26 144 q 70 510 26 401 q 211 692 114 619 q 458 765 308 765 m 281 411 q 449 458 400 418 q 499 547 499 499 q 484 589 499 572 q 436 606 469 606 q 335 551 374 606 q 281 411 297 496 z "},"ệ":{"ha":746,"x_min":26,"x_max":743,"o":"m 743 558 q 271 267 743 311 q 392 153 278 153 q 481 169 438 153 q 578 221 524 185 l 664 76 q 361 -26 519 -26 q 111 59 196 -26 q 26 290 26 144 q 70 510 26 401 q 211 692 114 619 q 458 765 308 765 q 668 707 593 765 q 743 558 743 649 m 281 411 q 449 458 400 418 q 499 547 499 499 q 484 589 499 572 q 436 606 469 606 q 335 551 374 606 q 281 411 297 496 m 272 856 l 197 954 l 419 1154 l 567 1154 l 735 954 l 638 856 l 474 986 l 272 856 m 335 -78 q 426 -111 392 -78 q 460 -197 460 -144 q 415 -306 460 -262 q 303 -350 369 -350 q 212 -317 246 -350 q 178 -231 178 -283 q 223 -122 178 -165 q 335 -78 268 -78 z "},"ề":{"ha":746,"x_min":26,"x_max":743,"o":"m 346 1101 l 247 1026 l 50 1235 l 194 1353 l 346 1101 m 264 810 l 188 908 l 410 1097 l 557 1097 l 725 908 l 632 810 l 464 929 l 264 810 m 743 558 q 271 267 743 311 q 392 153 278 153 q 481 169 438 153 q 578 221 524 185 l 664 76 q 361 -26 519 -26 q 111 59 196 -26 q 26 290 26 144 q 70 510 26 401 q 211 692 114 619 q 458 765 308 765 q 668 707 593 765 q 743 558 743 649 m 281 411 q 449 458 400 418 q 499 547 499 499 q 484 589 499 572 q 436 606 469 606 q 335 551 374 606 q 281 411 297 496 z "},"ể":{"ha":746,"x_min":26,"x_max":908,"o":"m 743 558 q 271 267 743 311 q 392 153 278 153 q 481 169 438 153 q 578 221 524 185 l 664 76 q 361 -26 519 -26 q 111 59 196 -26 q 26 290 26 144 q 70 510 26 401 q 211 692 114 619 q 458 765 308 765 q 668 707 593 765 q 743 558 743 649 m 281 411 q 449 458 400 418 q 499 547 499 499 q 484 589 499 572 q 436 606 469 606 q 335 551 374 606 q 281 411 297 496 m 256 810 l 179 908 l 401 1097 l 549 1097 l 717 908 l 624 810 l 456 929 l 256 810 m 640 1203 q 721 1219 694 1206 q 747 1260 747 1232 q 700 1294 747 1294 q 617 1276 661 1294 l 589 1375 q 740 1411 658 1411 q 865 1373 822 1411 q 908 1274 908 1335 q 772 1133 908 1158 l 763 1063 l 624 1063 l 640 1203 z "},"ễ":{"ha":746,"x_min":26,"x_max":774,"o":"m 425 1185 q 383 1172 401 1185 q 343 1128 365 1158 l 236 1185 q 326 1301 274 1256 q 438 1346 378 1346 q 488 1338 468 1346 q 536 1311 507 1329 q 585 1290 567 1290 q 626 1303 607 1290 q 665 1346 644 1317 l 774 1290 q 684 1174 736 1218 q 574 1129 632 1129 q 529 1138 549 1129 q 481 1163 510 1146 q 452 1178 467 1171 q 425 1185 438 1185 m 458 926 l 258 807 l 182 906 l 404 1094 l 551 1094 l 719 906 l 626 807 l 458 926 m 458 765 q 668 707 593 765 q 743 558 743 649 q 271 267 743 311 q 392 153 278 153 q 481 169 438 153 q 578 221 524 185 l 664 76 q 361 -26 519 -26 q 111 59 196 -26 q 26 290 26 144 q 70 510 26 401 q 211 692 114 619 q 458 765 308 765 m 281 411 q 449 458 400 418 q 499 547 499 499 q 484 589 499 572 q 436 606 469 606 q 335 551 374 606 q 281 411 297 496 z "},"ȅ":{"ha":746,"x_min":26,"x_max":743,"o":"m 743 558 q 271 267 743 311 q 392 153 278 153 q 481 169 438 153 q 578 221 524 185 l 664 76 q 361 -26 519 -26 q 111 59 196 -26 q 26 290 26 144 q 70 510 26 401 q 211 692 114 619 q 458 765 308 765 q 668 707 593 765 q 743 558 743 649 m 281 411 q 449 458 400 418 q 499 547 499 499 q 484 589 499 572 q 436 606 469 606 q 335 551 374 606 q 281 411 297 496 m 324 1207 l 422 924 l 292 865 l 156 1126 l 324 1207 m 572 1207 l 658 921 l 529 871 l 404 1132 l 572 1207 z "},"ë":{"ha":746,"x_min":26,"x_max":763,"o":"m 743 558 q 271 267 743 311 q 392 153 278 153 q 481 169 438 153 q 578 221 524 185 l 664 76 q 361 -26 519 -26 q 111 59 196 -26 q 26 290 26 144 q 70 510 26 401 q 211 692 114 619 q 458 765 308 765 q 668 707 593 765 q 743 558 743 649 m 281 411 q 449 458 400 418 q 499 547 499 499 q 484 589 499 572 q 436 606 469 606 q 335 551 374 606 q 281 411 297 496 m 300 886 q 220 915 250 886 q 190 990 190 944 q 230 1085 190 1047 q 328 1124 269 1124 q 408 1094 378 1124 q 438 1018 438 1064 q 398 924 438 961 q 300 886 358 886 m 625 886 q 545 915 575 886 q 515 990 515 944 q 555 1085 515 1047 q 653 1124 594 1124 q 733 1094 703 1124 q 763 1018 763 1064 q 723 924 763 961 q 625 886 683 886 z "},"ė":{"ha":746,"x_min":26,"x_max":743,"o":"m 743 558 q 271 267 743 311 q 392 153 278 153 q 481 169 438 153 q 578 221 524 185 l 664 76 q 361 -26 519 -26 q 111 59 196 -26 q 26 290 26 144 q 70 510 26 401 q 211 692 114 619 q 458 765 308 765 q 668 707 593 765 q 743 558 743 649 m 281 411 q 449 458 400 418 q 499 547 499 499 q 484 589 499 572 q 436 606 469 606 q 335 551 374 606 q 281 411 297 496 m 460 867 q 369 900 403 867 q 335 986 335 933 q 380 1095 335 1051 q 492 1139 425 1139 q 583 1106 549 1139 q 617 1019 617 1072 q 572 910 617 954 q 460 867 526 867 z "},"ẹ":{"ha":746,"x_min":26,"x_max":743,"o":"m 743 558 q 271 267 743 311 q 392 153 278 153 q 481 169 438 153 q 578 221 524 185 l 664 76 q 361 -26 519 -26 q 111 59 196 -26 q 26 290 26 144 q 70 510 26 401 q 211 692 114 619 q 458 765 308 765 q 668 707 593 765 q 743 558 743 649 m 281 411 q 449 458 400 418 q 499 547 499 499 q 484 589 499 572 q 436 606 469 606 q 335 551 374 606 q 281 411 297 496 m 335 -78 q 426 -111 392 -78 q 460 -197 460 -144 q 415 -306 460 -262 q 303 -350 369 -350 q 212 -317 246 -350 q 178 -231 178 -283 q 223 -122 178 -165 q 335 -78 268 -78 z "},"è":{"ha":746,"x_min":26,"x_max":743,"o":"m 743 558 q 271 267 743 311 q 392 153 278 153 q 481 169 438 153 q 578 221 524 185 l 664 76 q 361 -26 519 -26 q 111 59 196 -26 q 26 290 26 144 q 70 510 26 401 q 211 692 114 619 q 458 765 308 765 q 668 707 593 765 q 743 558 743 649 m 281 411 q 449 458 400 418 q 499 547 499 499 q 484 589 499 572 q 436 606 469 606 q 335 551 374 606 q 281 411 297 496 m 396 1175 l 683 979 l 615 861 l 293 992 l 396 1175 z "},"ẻ":{"ha":746,"x_min":26,"x_max":743,"o":"m 743 558 q 271 267 743 311 q 392 153 278 153 q 481 169 438 153 q 578 221 524 185 l 664 76 q 361 -26 519 -26 q 111 59 196 -26 q 26 290 26 144 q 70 510 26 401 q 211 692 114 619 q 458 765 308 765 q 668 707 593 765 q 743 558 743 649 m 281 411 q 449 458 400 418 q 499 547 499 499 q 484 589 499 572 q 436 606 469 606 q 335 551 374 606 q 281 411 297 496 m 400 978 q 481 994 454 981 q 507 1035 507 1007 q 460 1069 507 1069 q 376 1051 421 1069 l 349 1150 q 500 1186 418 1186 q 625 1148 582 1186 q 668 1049 668 1110 q 532 908 668 933 l 522 838 l 383 838 l 400 978 z "},"ȇ":{"ha":746,"x_min":26,"x_max":743,"o":"m 743 558 q 271 267 743 311 q 392 153 278 153 q 481 169 438 153 q 578 221 524 185 l 664 76 q 361 -26 519 -26 q 111 59 196 -26 q 26 290 26 144 q 70 510 26 401 q 211 692 114 619 q 458 765 308 765 q 668 707 593 765 q 743 558 743 649 m 281 411 q 449 458 400 418 q 499 547 499 499 q 484 589 499 572 q 436 606 469 606 q 335 551 374 606 q 281 411 297 496 m 208 854 q 306 1036 232 964 q 490 1108 379 1108 q 656 1035 601 1108 q 704 851 711 961 l 569 832 q 541 910 565 882 q 472 939 517 939 q 338 829 382 939 l 208 854 z "},"ē":{"ha":746,"x_min":26,"x_max":743,"o":"m 743 558 q 271 267 743 311 q 392 153 278 153 q 481 169 438 153 q 578 221 524 185 l 664 76 q 361 -26 519 -26 q 111 59 196 -26 q 26 290 26 144 q 70 510 26 401 q 211 692 114 619 q 458 765 308 765 q 668 707 593 765 q 743 558 743 649 m 281 411 q 449 458 400 418 q 499 547 499 499 q 484 589 499 572 q 436 606 469 606 q 335 551 374 606 q 281 411 297 496 m 678 906 l 247 906 l 271 1075 l 701 1075 l 678 906 z "},"ę":{"ha":746,"x_min":26,"x_max":743,"o":"m 743 558 q 271 267 743 311 q 392 153 278 153 q 481 169 438 153 q 578 221 524 185 l 664 76 q 485 -10 581 15 q 367 -135 367 -65 q 431 -185 367 -185 q 517 -174 468 -185 l 485 -322 q 385 -333 438 -333 q 242 -293 297 -333 q 188 -182 188 -253 q 292 -22 188 -81 q 93 78 160 -4 q 26 290 26 161 q 70 510 26 401 q 211 692 114 619 q 458 765 308 765 q 668 707 593 765 q 743 558 743 649 m 281 411 q 449 458 400 418 q 499 547 499 499 q 484 589 499 572 q 436 606 469 606 q 335 551 374 606 q 281 411 297 496 z "},"ɛ":{"ha":678,"x_min":10,"x_max":681,"o":"m 315 -26 q 94 31 178 -26 q 10 196 10 89 q 69 334 10 282 q 238 394 129 386 q 89 549 89 429 q 172 707 89 649 q 401 765 256 765 q 681 667 581 765 l 571 551 q 502 586 536 575 q 428 597 468 597 q 355 576 382 597 q 328 519 328 556 q 348 473 328 490 q 407 456 368 456 l 503 456 l 457 301 l 378 301 q 260 217 260 301 q 286 166 260 185 q 367 147 313 147 q 448 161 407 147 q 544 207 489 175 l 622 68 q 486 -1 567 24 q 315 -26 406 -26 z "},"ʚ":{"ha":786,"x_min":10,"x_max":757,"o":"m 321 -26 q 94 32 179 -26 q 10 200 10 90 q 69 335 10 283 q 239 394 129 386 q 90 542 90 429 q 131 656 90 606 q 247 736 171 707 q 424 765 322 765 q 670 679 583 765 q 757 443 757 593 q 705 198 757 304 q 555 33 653 92 q 321 -26 457 -26 m 353 147 q 480 236 440 147 q 519 442 519 325 q 494 562 519 526 q 417 597 468 597 q 353 577 376 597 q 329 522 329 557 q 349 474 329 492 q 407 456 368 456 l 439 456 l 394 301 l 378 301 q 260 217 260 301 q 283 165 260 183 q 353 147 306 147 z "},"ɜ":{"ha":676,"x_min":-31,"x_max":636,"o":"m 368 765 q 562 715 488 765 q 636 576 636 664 q 588 458 636 507 q 447 393 539 410 q 578 339 533 383 q 622 224 622 294 q 585 100 622 157 q 468 8 549 43 q 264 -26 388 -26 q -31 67 85 -26 l 85 201 q 169 160 129 172 q 257 147 210 147 q 343 170 314 147 q 372 232 372 193 q 278 301 372 301 l 158 301 l 194 456 l 281 456 q 360 478 332 456 q 389 538 389 500 q 314 597 389 597 q 234 585 269 597 q 156 549 199 574 l 61 681 q 368 765 193 765 z "},"ɞ":{"ha":788,"x_min":28,"x_max":747,"o":"m 364 -26 q 113 55 199 -26 q 28 289 28 136 q 80 536 28 428 q 230 705 132 644 q 463 765 328 765 q 610 741 544 765 q 711 673 675 717 q 747 572 747 629 q 699 456 747 503 q 558 393 650 410 q 689 339 644 383 q 733 224 733 294 q 695 100 733 157 q 574 8 657 43 q 364 -26 492 -26 m 371 147 q 459 172 431 147 q 488 238 488 196 q 464 285 488 269 q 389 301 440 301 l 350 301 l 386 456 l 392 456 q 473 478 444 456 q 501 540 501 501 q 435 597 501 597 q 338 548 375 597 q 283 426 300 499 q 267 282 267 354 q 291 178 267 208 q 371 147 315 147 z "},"ɝ":{"ha":1057,"x_min":-31,"x_max":1086,"o":"m 1086 474 q 906 424 1004 424 q 760 466 808 424 q 704 583 711 508 l 703 594 l 635 557 q 580 451 628 494 q 447 393 532 408 q 578 339 533 383 q 622 224 622 294 q 585 100 622 157 q 468 8 549 43 q 264 -26 388 -26 q -31 67 85 -26 l 85 201 q 169 160 129 172 q 257 147 210 147 q 343 170 314 147 q 372 232 372 193 q 278 301 372 301 l 158 301 l 194 456 l 281 456 q 360 478 332 456 q 389 538 389 500 q 314 597 389 597 q 234 585 269 597 q 156 549 199 574 l 61 681 q 368 765 193 765 q 503 744 444 765 q 597 683 563 722 l 711 740 l 910 740 l 899 660 q 897 643 897 654 q 951 592 897 592 q 993 597 976 592 q 1036 611 1010 601 l 1086 474 z "},"ɘ":{"ha":753,"x_min":10,"x_max":722,"o":"m 389 765 q 643 674 564 765 q 722 439 722 582 q 672 197 722 303 q 524 33 621 92 q 293 -26 426 -26 q 10 81 126 -26 l 118 214 q 201 167 161 182 q 292 153 242 153 q 453 267 408 153 q 155 334 261 279 q 49 507 49 389 q 90 637 49 578 q 209 731 132 696 q 389 765 286 765 m 296 515 q 337 443 296 471 q 481 410 378 415 q 482 461 482 426 q 458 569 482 532 q 382 606 435 606 q 319 581 343 606 q 296 515 296 556 z "},"ʃ":{"ha":385,"x_min":-264,"x_max":622,"o":"m 435 1057 q 622 1004 546 1057 l 538 854 q 451 878 493 878 q 399 858 418 878 q 372 796 379 838 l 364 740 l 365 740 l 263 0 l 257 -36 q 151 -241 236 -171 q -65 -311 65 -311 q -264 -250 -187 -311 l -167 -107 q -119 -128 -137 -122 q -76 -135 -101 -135 q -17 -114 -39 -135 q 11 -53 6 -93 l 19 0 l 122 740 l 121 740 l 129 794 q 224 985 144 913 q 435 1057 304 1057 z "},"ʆ":{"ha":482,"x_min":-175,"x_max":719,"o":"m 532 1057 q 719 1004 643 1057 l 635 854 q 549 878 590 878 q 496 858 515 878 q 469 796 476 838 l 461 740 l 363 36 q 356 -6 361 17 q 481 -60 419 -25 l 429 -157 q 325 -117 396 -139 q 213 -263 286 -215 q 19 -311 139 -311 q -124 -267 -72 -311 q -175 -147 -175 -224 q -112 -12 -175 -62 q 47 39 -50 39 q 121 36 90 39 l 218 740 l 226 794 q 322 985 242 913 q 532 1057 401 1057 m 13 -189 q 71 -164 50 -189 q 104 -78 92 -139 q 49 -74 82 -74 q -14 -92 8 -74 q -36 -142 -36 -111 q -24 -176 -36 -164 q 13 -189 -11 -189 z "},"ƪ":{"ha":592,"x_min":19,"x_max":683,"o":"m 683 -253 q 471 -311 594 -311 q 283 -252 350 -311 q 217 -79 217 -193 q 219 -31 217 -64 l 224 0 l 303 575 q 208 556 260 556 q 75 615 129 556 q 19 768 21 674 q 59 917 19 851 q 169 1020 99 983 q 326 1057 239 1057 q 511 994 444 1057 q 578 817 578 932 q 574 757 578 789 l 467 0 l 460 -57 q 458 -75 458 -64 q 521 -135 458 -135 q 569 -128 549 -135 q 621 -108 589 -122 l 683 -253 m 281 724 q 325 731 300 724 l 336 811 l 339 844 q 330 878 339 868 q 300 889 321 889 q 244 856 263 889 q 228 778 226 824 q 241 736 228 749 q 281 724 254 724 z "},"ʅ":{"ha":711,"x_min":31,"x_max":681,"o":"m 681 33 q 468 -25 592 -25 q 281 34 347 -25 q 214 207 214 93 q 217 256 214 222 l 221 286 l 222 286 l 246 454 l 247 454 l 254 511 q 256 529 256 518 q 193 589 256 589 q 145 583 165 589 q 93 563 125 576 l 31 707 q 243 765 119 765 q 431 706 364 765 q 497 533 497 647 q 494 485 497 518 l 490 454 l 489 454 l 465 286 l 464 286 l 457 229 q 456 211 456 222 q 518 151 456 151 q 566 158 546 151 q 618 178 586 164 l 681 33 z "},"ɇ":{"ha":746,"x_min":26,"x_max":743,"o":"m 743 558 q 361 278 743 335 l 317 167 q 392 153 344 153 q 481 169 438 153 q 578 221 524 185 l 664 76 q 361 -26 519 -26 q 243 -12 293 -26 l 206 -106 l 125 -85 l 167 18 q 62 127 97 57 q 26 290 26 197 q 70 510 26 401 q 211 692 114 619 q 458 765 308 765 l 471 765 l 500 836 l 579 817 l 554 756 q 694 684 644 738 q 743 558 743 631 m 408 611 q 314 535 349 593 q 267 399 279 478 q 324 404 306 401 l 408 611 m 521 550 q 494 607 521 590 l 421 425 q 521 550 521 463 m 268 267 l 260 267 q 261 250 260 254 l 268 267 z "},"ẽ":{"ha":746,"x_min":26,"x_max":749,"o":"m 743 558 q 271 267 743 311 q 392 153 278 153 q 481 169 438 153 q 578 221 524 185 l 664 76 q 361 -26 519 -26 q 111 59 196 -26 q 26 290 26 144 q 70 510 26 401 q 211 692 114 619 q 458 765 308 765 q 668 707 593 765 q 743 558 743 649 m 281 411 q 449 458 400 418 q 499 547 499 499 q 484 589 499 572 q 436 606 469 606 q 335 551 374 606 q 281 411 297 496 m 544 872 q 498 882 519 872 q 451 908 476 892 q 419 927 432 921 q 394 933 407 933 q 351 919 369 933 q 311 871 333 904 l 201 933 q 294 1059 240 1010 q 407 1108 347 1108 q 458 1099 438 1108 q 507 1071 479 1089 q 533 1053 522 1058 q 557 1047 544 1047 q 598 1062 579 1047 q 639 1108 617 1076 l 749 1047 q 656 921 710 969 q 544 872 603 872 z "},"ǝ":{"ha":746,"x_min":3,"x_max":719,"o":"m 385 767 q 635 681 550 767 q 719 450 719 596 q 676 230 719 339 q 535 48 632 121 q 288 -25 438 -25 q 78 33 153 -25 q 3 182 3 92 q 475 474 3 429 q 354 588 468 588 q 265 572 308 588 q 168 519 222 556 l 82 664 q 385 767 226 767 m 310 135 q 411 190 374 135 q 465 329 449 244 q 297 282 346 322 q 247 193 247 242 q 262 151 247 168 q 310 135 276 135 z "},"ə":{"ha":746,"x_min":3,"x_max":719,"o":"m 385 767 q 635 681 550 767 q 719 450 719 596 q 676 230 719 339 q 535 48 632 121 q 288 -25 438 -25 q 78 33 153 -25 q 3 182 3 92 q 475 474 3 429 q 354 588 468 588 q 265 572 308 588 q 168 519 222 556 l 82 664 q 385 767 226 767 m 310 135 q 411 190 374 135 q 465 329 449 244 q 297 282 346 322 q 247 193 247 242 q 262 151 247 168 q 310 135 276 135 z "},"ɚ":{"ha":1143,"x_min":3,"x_max":1172,"o":"m 1172 474 q 992 424 1090 424 q 846 466 894 424 q 790 583 797 508 l 789 594 l 708 550 q 719 450 719 499 q 676 230 719 339 q 535 48 632 121 q 288 -25 438 -25 q 78 33 153 -25 q 3 182 3 92 q 475 474 3 429 q 354 588 468 588 q 265 572 308 588 q 168 519 222 556 l 82 664 q 385 767 226 767 q 650 665 563 767 l 797 740 l 996 740 l 985 660 q 983 643 983 654 q 1038 592 983 592 q 1079 597 1063 592 q 1122 611 1096 601 l 1172 474 m 310 135 q 411 190 374 135 q 465 329 449 244 q 297 282 346 322 q 247 193 247 242 q 262 151 247 168 q 310 135 276 135 z "},"ʒ":{"ha":706,"x_min":-97,"x_max":690,"o":"m 669 572 l 394 297 q 577 226 513 286 q 642 60 642 165 q 587 -135 642 -50 q 435 -265 532 -219 q 217 -311 338 -311 q -97 -162 7 -311 l 44 -40 q 128 -106 88 -86 q 221 -125 168 -125 q 346 -76 300 -125 q 392 58 392 -28 q 357 136 392 114 q 251 158 322 158 l 118 158 l 136 297 l 388 557 l 60 557 l 85 740 l 690 740 l 669 572 z "},"ǯ":{"ha":706,"x_min":-97,"x_max":697,"o":"m 669 572 l 394 297 q 577 226 513 286 q 642 60 642 165 q 587 -135 642 -50 q 435 -265 532 -219 q 217 -311 338 -311 q -97 -162 7 -311 l 44 -40 q 128 -106 88 -86 q 221 -125 168 -125 q 346 -76 300 -125 q 392 58 392 -28 q 357 136 392 114 q 251 158 322 158 l 118 158 l 136 297 l 388 557 l 60 557 l 85 740 l 690 740 l 669 572 m 619 1142 l 697 1043 l 475 843 l 328 843 l 160 1043 l 251 1142 l 417 1011 l 619 1142 z "},"ʓ":{"ha":713,"x_min":-92,"x_max":699,"o":"m 676 572 l 401 308 q 584 236 519 297 q 649 65 649 175 q 575 -156 649 -64 q 369 -286 501 -247 l 394 -362 l 274 -408 l 244 -308 q 179 -311 203 -311 q -19 -260 54 -311 q -92 -112 -92 -208 q -64 -4 -92 -50 q 10 65 -36 42 q 108 89 56 89 q 226 49 183 89 q 301 -89 269 8 l 306 -101 q 400 64 400 -60 q 365 147 400 124 q 260 171 331 171 l 125 171 l 143 308 l 399 557 l 67 557 l 93 740 l 699 740 l 676 572 m 193 -125 q 160 -56 176 -75 q 117 -36 143 -36 q 85 -48 97 -36 q 74 -78 74 -60 q 96 -113 74 -101 q 176 -125 118 -125 l 193 -125 z "},"ƹ":{"ha":708,"x_min":-35,"x_max":724,"o":"m 699 557 l 350 557 l 547 292 l 531 158 l 528 160 l 529 158 l 399 158 q 265 116 313 158 q 218 -4 218 74 q 251 -95 218 -65 q 340 -125 283 -125 q 442 -106 394 -125 q 549 -40 489 -86 l 656 -165 q 304 -311 517 -311 q 121 -274 197 -311 q 5 -172 44 -237 q -35 -22 -35 -107 q 8 138 -35 68 q 128 250 50 208 q 308 299 206 292 l 96 572 l 118 740 l 724 740 l 699 557 z "},"ƺ":{"ha":713,"x_min":-28,"x_max":686,"o":"m 172 -312 q 26 -230 81 -281 q -28 -111 -28 -179 q 42 26 -28 -24 q 235 101 111 76 q 372 143 333 122 q 410 203 410 164 q 388 244 410 232 q 313 256 365 256 l 138 256 l 156 382 l 378 568 l 57 568 l 82 740 l 686 740 l 665 583 l 419 393 l 439 393 q 601 344 543 393 q 660 211 658 296 q 579 33 660 94 q 356 -57 499 -28 q 251 -82 286 -71 q 203 -104 215 -93 q 190 -131 190 -115 q 203 -157 190 -146 q 242 -182 215 -168 l 172 -312 z "},"f":{"ha":489,"x_min":-119,"x_max":696,"o":"m 503 878 q 434 855 458 878 q 403 781 410 832 l 397 740 l 567 740 l 517 569 l 374 569 l 306 93 q 239 -105 289 -26 q 116 -230 189 -183 q -60 -311 43 -276 l -119 -135 q 8 -57 -35 -104 q 63 82 50 -10 l 129 569 l 26 569 l 49 740 l 153 740 l 161 796 q 260 984 176 911 q 481 1057 343 1057 q 601 1040 546 1057 q 696 994 656 1022 l 613 849 q 503 878 564 878 z "},"ḟ":{"ha":489,"x_min":-119,"x_max":696,"o":"m 503 878 q 434 855 458 878 q 403 781 410 832 l 397 740 l 567 740 l 517 569 l 374 569 l 306 93 q 239 -105 289 -26 q 116 -230 189 -183 q -60 -311 43 -276 l -119 -135 q 8 -57 -35 -104 q 63 82 50 -10 l 129 569 l 26 569 l 49 740 l 153 740 l 161 796 q 260 984 176 911 q 481 1057 343 1057 q 601 1040 546 1057 q 696 994 656 1022 l 613 849 q 503 878 564 878 m 474 1108 q 383 1142 417 1108 q 349 1228 349 1175 q 394 1337 349 1293 q 506 1381 439 1381 q 597 1347 563 1381 q 631 1261 631 1314 q 585 1152 631 1196 q 474 1108 540 1108 z "}}}
